<svg xmlns="http://www.w3.org/2000/svg" width="20.654" height="4.948" viewBox="0 0 5.654 4.948">
    <defs>
        <style>.a{fill:#fff;fill-rule:evenodd;}</style>
    </defs>
    <path class="a"
          d="M9.1,10.227a.353.353,0,0,0,0,.5l1.871,1.87L9.1,14.467a.354.354,0,0,0,.5.5l2.12-2.12a.353.353,0,0,0,0-.5L9.6,10.227a.353.353,0,0,0-.5,0Z"
          transform="translate(-6.173 -10.123)"/>
    <path class="a"
          d="M15.425,17.228a.353.353,0,0,0-.353-.353H10.478a.353.353,0,0,0,0,.707h4.593A.353.353,0,0,0,15.425,17.228Z"
          transform="translate(-10.125 -14.754)"/>
</svg>