<svg xmlns="http://www.w3.org/2000/svg" width="130" height="112" viewBox="0 0 130 112"><defs><style>.a,.b{fill:#34302f;}.b,.d,.e{fill-rule:evenodd;}.c,.d{fill:#fefefe;}</style></defs><g transform="translate(0)"><path class="a" d="M116.04,148.04H14.156A14.108,14.108,0,0,0,.1,162.128v43.928a12.351,12.351,0,0,0,4.206,9.361,21.209,21.209,0,0,0,9.775,4.72l50.472,11,51.565-11a20.967,20.967,0,0,0,9.781-4.708,12.387,12.387,0,0,0,4.2-9.373V162.128a14.111,14.111,0,0,0-14.058-14.088Z" transform="translate(-0.1 -119.136)"/><path class="b" d="M80.323,241.632l50.8-10.649c5.223-1.093,10.915-4.165,10.915-10.106V177.67a10.146,10.146,0,0,0-10.186-10.03H29.874A10.147,10.147,0,0,0,19.69,177.67v43.208c0,5.943,5.722,8.993,10.931,10.11l49.7,10.645Z" transform="translate(-15.865 -133.547)"/><path class="c" d="M77.386,238.678l.151.7,50.787-10.649a18.782,18.782,0,0,0,7.719-3.376,10.323,10.323,0,0,0,2.715-3.163,8.864,8.864,0,0,0,1.054-4.266V174.714A10.863,10.863,0,0,0,128.9,163.97H26.947A10.865,10.865,0,0,0,16.04,174.714v43.208a8.845,8.845,0,0,0,1.06,4.266,11.4,11.4,0,0,0,4.483,4.338,20.952,20.952,0,0,0,5.957,2.2l49.844,10.678.153-.033-.151-.7.155-.7L27.849,227.335a17.644,17.644,0,0,1-7.118-3.1,8.887,8.887,0,0,1-2.35-2.714,7.408,7.408,0,0,1-.89-3.594V174.714a9.222,9.222,0,0,1,2.78-6.576,9.493,9.493,0,0,1,6.676-2.739H128.9a9.5,9.5,0,0,1,6.676,2.739,9.214,9.214,0,0,1,2.78,6.576v43.208a7.441,7.441,0,0,1-.884,3.6,9.969,9.969,0,0,1-3.92,3.782,19.155,19.155,0,0,1-5.535,2.031L77.235,237.977l.151.7.155-.7-.155.7Z" transform="translate(-12.928 -130.593)"/><path class="d" d="M208.122.5A29.164,29.164,0,1,1,178.96,29.664,29.164,29.164,0,0,1,208.122.5Z" transform="translate(-143.125 -0.402)"/><path d="M207.719,0a29.261,29.261,0,1,1-20.69,8.571A29.175,29.175,0,0,1,207.719,0Zm20.553,8.71a29.067,29.067,0,1,0,8.513,20.553A28.976,28.976,0,0,0,228.273,8.71Z" transform="translate(-142.722)"/><path class="c" d="M84.238,339.69a3.248,3.248,0,0,0-.941-2.529,3.965,3.965,0,0,0-2.747-.855H79.507v6.578l.25.029.215.017c.074.006.168.01.279.01h.484c.2,0,.42-.01.662-.027s.478-.043.709-.076a5.334,5.334,0,0,0,.635-.119,2.12,2.12,0,0,0,.455-.166,2.386,2.386,0,0,0,.353-.3,1.922,1.922,0,0,0,.344-.512,3.3,3.3,0,0,0,.252-.818A6.8,6.8,0,0,0,84.238,339.69Zm-.746-7.947a2.475,2.475,0,0,0-.83-2.134,3.92,3.92,0,0,0-2.339-.6c-.148,0-.295,0-.437.008s-.271.018-.383.029v5.533h1.1a6.112,6.112,0,0,0,1.156-.111,3.246,3.246,0,0,0,.894-.281,1.47,1.47,0,0,0,.3-.25,1.5,1.5,0,0,0,.269-.437,3.2,3.2,0,0,0,.2-.709,6.1,6.1,0,0,0,.074-1.043Zm4.137,8.161a5.362,5.362,0,0,1-.363,2.031,3.793,3.793,0,0,1-1.117,1.517,5.1,5.1,0,0,1-1.909.951,10.265,10.265,0,0,1-2.759.326q-.521,0-1.211-.018c-.459-.014-.935-.029-1.425-.047s-.968-.047-1.435-.084-.873-.076-1.22-.113V327.495c.66-.076,1.414-.131,2.259-.168s1.642-.057,2.39-.057a12.135,12.135,0,0,1,2.482.234,5.9,5.9,0,0,1,1.913.726,3.474,3.474,0,0,1,1.222,1.265,3.77,3.77,0,0,1,.43,1.855,4.437,4.437,0,0,1-.244,1.537A4.028,4.028,0,0,1,86,334.041a3.259,3.259,0,0,1-.947.8,4.508,4.508,0,0,1-1.123.457v.057a5.232,5.232,0,0,1,1.683.633A4.138,4.138,0,0,1,86.755,337a4.034,4.034,0,0,1,.662,1.324,5.556,5.556,0,0,1,.215,1.576Z" transform="translate(-61.334 -262.438)"/><path class="c" d="M162.441,338.865a6.287,6.287,0,0,1-.474,2.431,5.632,5.632,0,0,1-1.408,2,6.764,6.764,0,0,1-2.319,1.363,9.4,9.4,0,0,1-3.214.5,10.677,10.677,0,0,1-2.72-.318,5.318,5.318,0,0,1-2.077-1.033,4.6,4.6,0,0,1-1.332-1.872,7.592,7.592,0,0,1-.467-2.833V327.74h3.315v11.7a7.389,7.389,0,0,0,.225,2.04,2.512,2.512,0,0,0,.67,1.164,2.165,2.165,0,0,0,1.109.531,8.586,8.586,0,0,0,1.519.119,6.49,6.49,0,0,0,1.818-.221,4.065,4.065,0,0,0,1.257-.6,1.705,1.705,0,0,0,.652-1.175,12.4,12.4,0,0,0,.131-1.937V327.74h3.317v11.125Z" transform="translate(-119.006 -262.815)"/><path class="c" d="M249.687,335.51a13.388,13.388,0,0,0-.269-2.814,6.147,6.147,0,0,0-.845-2.114,3.849,3.849,0,0,0-1.468-1.324,4.6,4.6,0,0,0-2.118-.459,8.308,8.308,0,0,0-2.009.234,3.873,3.873,0,0,0-1.468.662,3.108,3.108,0,0,0-.791,1.882,24.4,24.4,0,0,0-.25,3.932,15.766,15.766,0,0,0,.225,2.8,6.766,6.766,0,0,0,.742,2.171,3.711,3.711,0,0,0,1.384,1.406,4.3,4.3,0,0,0,2.15.494,8.128,8.128,0,0,0,2.175-.244,4.782,4.782,0,0,0,1.451-.652,1.492,1.492,0,0,0,.484-.744,7.811,7.811,0,0,0,.344-1.371,17.613,17.613,0,0,0,.205-1.808q.064-1,.064-2.06Zm3.5,0a12.271,12.271,0,0,1-.512,3.671,7.593,7.593,0,0,1-1.546,2.806,6.774,6.774,0,0,1-2.581,1.786,9.529,9.529,0,0,1-3.6.625,9.322,9.322,0,0,1-3.614-.633,6.271,6.271,0,0,1-2.468-1.8,7.5,7.5,0,0,1-1.417-2.8A13.6,13.6,0,0,1,237,335.51a13.124,13.124,0,0,1,.465-3.624,7.245,7.245,0,0,1,1.445-2.749,6.34,6.34,0,0,1,2.487-1.744,9.614,9.614,0,0,1,3.577-.6,9.829,9.829,0,0,1,3.6.6,6.7,6.7,0,0,1,2.562,1.744,7.416,7.416,0,0,1,1.539,2.749A11.989,11.989,0,0,1,253.19,335.51Z" transform="translate(-189.992 -262.052)"/><path class="c" d="M350.478,344.563l-11.533-12.054h-.037q.038,1.508.076,2.776c.01.359.019.718.025,1.08s.014.693.021,1,.008.574.008.81v6.3H337.1V327.18h1.454l11.553,12c-.014-.922-.025-1.782-.037-2.591,0-.348,0-.7-.01-1.052s-.014-.691-.02-1.015-.01-.617-.01-.884v-6.326h1.939v17.254h-1.492Z" transform="translate(-270.241 -262.367)"/><path class="c" d="M437.284,344.4a7.392,7.392,0,0,1-3.261-.652,5.638,5.638,0,0,1-2.181-1.827,7.87,7.87,0,0,1-1.22-2.821,16.174,16.174,0,0,1-.383-3.661,10.369,10.369,0,0,1,.373-2.9,8.069,8.069,0,0,1,1.015-2.238,7.117,7.117,0,0,1,1.49-1.63,8.356,8.356,0,0,1,1.79-1.089,8.727,8.727,0,0,1,1.929-.605,10.433,10.433,0,0,1,1.919-.186c.385,0,.793.014,1.22.037s.845.061,1.25.1.779.092,1.126.147.635.109.857.16l-.615,2.441a8.119,8.119,0,0,0-.951-.234c-.41-.08-.847-.16-1.312-.232s-.925-.137-1.379-.187a10.928,10.928,0,0,0-1.126-.074c-.336,0-.635.01-.894.027a4.094,4.094,0,0,0-.72.113,3.039,3.039,0,0,0-.615.234,4.256,4.256,0,0,0-.588.371,3.068,3.068,0,0,0-1.033,2.05,21.714,21.714,0,0,0-.271,3.762,10.719,10.719,0,0,0,1.025,5.246,3.515,3.515,0,0,0,3.3,1.779,17.731,17.731,0,0,0,2.683-.213,14.524,14.524,0,0,0,2.536-.605v1.435a10.992,10.992,0,0,1-1.37.531,14.725,14.725,0,0,1-1.509.391c-.516.105-1.037.184-1.566.24a14.237,14.237,0,0,1-1.517.084Z" transform="translate(-344.925 -262.052)"/><path class="c" d="M525.272,338.865a6.289,6.289,0,0,1-.474,2.431,5.589,5.589,0,0,1-1.408,2,6.767,6.767,0,0,1-2.32,1.363,9.389,9.389,0,0,1-3.214.5,10.69,10.69,0,0,1-2.721-.318,5.3,5.3,0,0,1-2.078-1.033,4.6,4.6,0,0,1-1.331-1.872,7.631,7.631,0,0,1-.467-2.833V327.74h3.317v11.7a7.4,7.4,0,0,0,.224,2.04,2.5,2.5,0,0,0,.672,1.164,2.158,2.158,0,0,0,1.109.531,8.568,8.568,0,0,0,1.517.119,6.494,6.494,0,0,0,1.818-.221,4.073,4.073,0,0,0,1.259-.6,1.705,1.705,0,0,0,.652-1.175,12.417,12.417,0,0,0,.131-1.937V327.74h3.317v11.125Z" transform="translate(-409.631 -262.815)"/><path class="c" d="M77.629,443.475a1.645,1.645,0,0,0,.56-.084,1.2,1.2,0,0,0,.41-.234.956.956,0,0,0,.25-.363,1.238,1.238,0,0,0,.084-.465,1.045,1.045,0,0,0-.324-.818,1.416,1.416,0,0,0-.982-.3h-.881v2.259h.881Zm0-2.845a3.052,3.052,0,0,1,.906.119,1.721,1.721,0,0,1,.638.344,1.4,1.4,0,0,1,.379.535,1.914,1.914,0,0,1,.125.7,1.773,1.773,0,0,1-.135.7,1.523,1.523,0,0,1-.393.549,1.828,1.828,0,0,1-.64.359,2.739,2.739,0,0,1-.879.127H76.75v2.054h-.74V440.63h1.621Z" transform="translate(-61.189 -353.484)"/><path class="c" d="M101.8,449.357a1.751,1.751,0,0,1,.451-.623.978.978,0,0,1,.654-.224,1.012,1.012,0,0,1,.234.025.691.691,0,0,1,.2.084l-.051.51a.109.109,0,0,1-.115.1.749.749,0,0,1-.158-.021,1.062,1.062,0,0,0-.234-.023.946.946,0,0,0-.328.053.772.772,0,0,0-.256.16,1.11,1.11,0,0,0-.2.259,2.045,2.045,0,0,0-.162.354v2.452h-.685v-3.882h.39a.222.222,0,0,1,.154.041.278.278,0,0,1,.059.147l.047.59Z" transform="translate(-81.421 -359.823)"/><path class="c" d="M119.569,450.128a1.329,1.329,0,0,0-.066-.434.921.921,0,0,0-.2-.342.879.879,0,0,0-.312-.223,1.086,1.086,0,0,0-.418-.08,1.048,1.048,0,0,0-.777.287,1.341,1.341,0,0,0-.353.791Zm.553,1.82a1.429,1.429,0,0,1-.3.268,1.833,1.833,0,0,1-.377.186,2.515,2.515,0,0,1-.841.146,1.957,1.957,0,0,1-.742-.137,1.619,1.619,0,0,1-.586-.4,1.8,1.8,0,0,1-.385-.65,2.634,2.634,0,0,1-.139-.888,2.245,2.245,0,0,1,.125-.76,1.847,1.847,0,0,1,.357-.611,1.64,1.64,0,0,1,.572-.406,1.884,1.884,0,0,1,.759-.146,1.731,1.731,0,0,1,.644.117,1.481,1.481,0,0,1,.514.336,1.57,1.57,0,0,1,.338.545,2.066,2.066,0,0,1,.123.738.43.43,0,0,1-.035.215c-.021.037-.064.053-.131.053h-2.593a2.259,2.259,0,0,0,.1.64,1.284,1.284,0,0,0,.252.453.975.975,0,0,0,.383.271,1.307,1.307,0,0,0,.5.09,1.468,1.468,0,0,0,.441-.059,2,2,0,0,0,.32-.129c.088-.047.164-.09.225-.127a.279.279,0,0,1,.154-.059.147.147,0,0,1,.131.064l.191.25Z" transform="translate(-93.641 -359.854)"/><path class="c" d="M141.04,452.492V448.61h.41a.169.169,0,0,1,.182.143l.051.4a1.94,1.94,0,0,1,.482-.434,1.13,1.13,0,0,1,.621-.168.909.909,0,0,1,.635.219,1.212,1.212,0,0,1,.349.59,1.326,1.326,0,0,1,.217-.363,1.3,1.3,0,0,1,.3-.254,1.343,1.343,0,0,1,.351-.147,1.524,1.524,0,0,1,.377-.045,1.449,1.449,0,0,1,.547.1,1.117,1.117,0,0,1,.406.285,1.277,1.277,0,0,1,.254.463,2.04,2.04,0,0,1,.088.625v2.472h-.687V450.02a1.046,1.046,0,0,0-.2-.691.707.707,0,0,0-.574-.236.888.888,0,0,0-.32.061.756.756,0,0,0-.266.174.83.83,0,0,0-.182.289,1.122,1.122,0,0,0-.068.4v2.472h-.683V450.02a1.1,1.1,0,0,0-.187-.7.665.665,0,0,0-.549-.23.857.857,0,0,0-.467.137,1.486,1.486,0,0,0-.394.369v2.891h-.685Z" transform="translate(-113.113 -359.854)"/><path class="c" d="M176.038,445.7h-.683v-3.882h.683Zm.144-5.1a.449.449,0,0,1-.039.184.522.522,0,0,1-.107.152.49.49,0,0,1-.158.105.484.484,0,0,1-.189.037.452.452,0,0,1-.185-.037.521.521,0,0,1-.152-.105.537.537,0,0,1-.1-.152.454.454,0,0,1-.037-.184.522.522,0,0,1,.037-.191.509.509,0,0,1,.1-.156.439.439,0,0,1,.152-.105.454.454,0,0,1,.185-.039.5.5,0,0,1,.348.144.5.5,0,0,1,.107.156A.487.487,0,0,1,176.182,440.6Z" transform="translate(-140.529 -353.066)"/><path class="c" d="M190.655,448.86v3.881h-.406a.173.173,0,0,1-.183-.141l-.053-.418a2.143,2.143,0,0,1-.566.451,1.517,1.517,0,0,1-.721.17,1.393,1.393,0,0,1-.56-.106,1.121,1.121,0,0,1-.408-.3,1.25,1.25,0,0,1-.246-.463,2.088,2.088,0,0,1-.082-.6v-2.474h.681v2.474a1.037,1.037,0,0,0,.2.683.759.759,0,0,0,.615.24,1.161,1.161,0,0,0,.566-.143,1.763,1.763,0,0,0,.484-.4V448.86h.681Z" transform="translate(-150.32 -360.103)"/><path class="c" d="M211.92,452.492V448.61h.41a.168.168,0,0,1,.18.143l.051.4a1.973,1.973,0,0,1,.482-.434,1.13,1.13,0,0,1,.621-.168.907.907,0,0,1,.633.219,1.211,1.211,0,0,1,.349.59,1.278,1.278,0,0,1,.217-.363,1.3,1.3,0,0,1,.3-.254,1.316,1.316,0,0,1,.351-.147,1.525,1.525,0,0,1,.377-.045,1.464,1.464,0,0,1,.547.1,1.133,1.133,0,0,1,.406.285,1.276,1.276,0,0,1,.254.463,2.037,2.037,0,0,1,.088.625v2.472h-.687V450.02a1.046,1.046,0,0,0-.2-.691.707.707,0,0,0-.574-.236.87.87,0,0,0-.318.061.738.738,0,0,0-.266.174.8.8,0,0,0-.182.289,1.122,1.122,0,0,0-.068.4v2.472H214.2V450.02a1.088,1.088,0,0,0-.187-.7.668.668,0,0,0-.549-.23.857.857,0,0,0-.467.137,1.524,1.524,0,0,0-.4.369v2.891h-.685Z" transform="translate(-169.948 -359.854)"/><path class="c" d="M258.97,443.118a2.842,2.842,0,0,0,.137.908,1.88,1.88,0,0,0,.393.678,1.728,1.728,0,0,0,.615.426,2.271,2.271,0,0,0,1.6,0,1.7,1.7,0,0,0,.613-.426,1.929,1.929,0,0,0,.393-.678,3.087,3.087,0,0,0,0-1.816,1.938,1.938,0,0,0-.393-.679,1.732,1.732,0,0,0-.613-.428,2.246,2.246,0,0,0-1.6,0,1.713,1.713,0,0,0-.615.428,1.906,1.906,0,0,0-.393.679A2.788,2.788,0,0,0,258.97,443.118Zm4.906,3.88h-.613a.736.736,0,0,1-.246-.039.49.49,0,0,1-.2-.135l-.961-1.051a2.958,2.958,0,0,1-.945.146,2.9,2.9,0,0,1-1.1-.2,2.481,2.481,0,0,1-.855-.578,2.61,2.61,0,0,1-.552-.886,3.388,3.388,0,0,1,0-2.267,2.618,2.618,0,0,1,.552-.888,2.528,2.528,0,0,1,.855-.582,3.077,3.077,0,0,1,2.208,0,2.476,2.476,0,0,1,.855.582,2.636,2.636,0,0,1,.552.888,3.164,3.164,0,0,1,.2,1.132,3.2,3.2,0,0,1-.08.736,2.916,2.916,0,0,1-.229.65,2.525,2.525,0,0,1-.365.547,2.486,2.486,0,0,1-.482.424L263.874,447Z" transform="translate(-207.064 -353.215)"/><path class="c" d="M295.991,448.86v3.881h-.406a.173.173,0,0,1-.184-.141l-.055-.418a2.141,2.141,0,0,1-.566.451,1.51,1.51,0,0,1-.72.17,1.4,1.4,0,0,1-.562-.106,1.137,1.137,0,0,1-.408-.3,1.252,1.252,0,0,1-.248-.463,2.085,2.085,0,0,1-.082-.6v-2.474h.681v2.474a1.037,1.037,0,0,0,.2.683.759.759,0,0,0,.615.24,1.154,1.154,0,0,0,.564-.143,1.763,1.763,0,0,0,.484-.4V448.86h.681Z" transform="translate(-234.784 -360.103)"/><path class="c" d="M318.184,450.714a5.961,5.961,0,0,0-.8.074,2.255,2.255,0,0,0-.541.156.727.727,0,0,0-.3.225.5.5,0,0,0-.094.291.645.645,0,0,0,.051.266.493.493,0,0,0,.137.182.542.542,0,0,0,.2.1.931.931,0,0,0,.25.033,1.432,1.432,0,0,0,.33-.037,1.244,1.244,0,0,0,.281-.105,1.744,1.744,0,0,0,.252-.164,2.261,2.261,0,0,0,.236-.219Zm-2.2-1.587a2.223,2.223,0,0,1,.7-.465,2.187,2.187,0,0,1,.824-.152,1.49,1.49,0,0,1,.578.105,1.2,1.2,0,0,1,.427.3,1.26,1.26,0,0,1,.26.463,1.88,1.88,0,0,1,.088.6v2.484h-.3a.32.32,0,0,1-.154-.031.219.219,0,0,1-.084-.129l-.078-.369c-.1.094-.2.18-.3.252a1.812,1.812,0,0,1-.307.184,1.775,1.775,0,0,1-.344.115,1.961,1.961,0,0,1-.4.041,1.37,1.37,0,0,1-.426-.064,1.018,1.018,0,0,1-.348-.189.935.935,0,0,1-.234-.32,1.106,1.106,0,0,1-.086-.459.864.864,0,0,1,.127-.443,1.1,1.1,0,0,1,.412-.377,2.576,2.576,0,0,1,.738-.27,5.451,5.451,0,0,1,1.119-.121v-.3a1.034,1.034,0,0,0-.2-.683.7.7,0,0,0-.572-.234,1.21,1.21,0,0,0-.424.064,1.644,1.644,0,0,0-.295.143c-.084.051-.154.1-.215.14a.293.293,0,0,1-.178.063.2.2,0,0,1-.119-.037.372.372,0,0,1-.084-.09l-.123-.219Z" transform="translate(-253.253 -359.822)"/><path class="c" d="M340.013,445.483h-.683V439.84h.683Z" transform="translate(-272.148 -352.849)"/><path class="c" d="M351.2,445.7h-.683v-3.882h.683Zm.146-5.1a.4.4,0,0,1-.043.184.484.484,0,0,1-.105.152.491.491,0,0,1-.158.105.474.474,0,0,1-.187.037.452.452,0,0,1-.186-.037.491.491,0,0,1-.254-.258.454.454,0,0,1-.037-.184.486.486,0,0,1,.037-.191.5.5,0,0,1,.1-.156.439.439,0,0,1,.152-.105.461.461,0,0,1,.186-.039.47.47,0,0,1,.188.039.493.493,0,0,1,.158.105.463.463,0,0,1,.105.156A.455.455,0,0,1,351.35,440.6Z" transform="translate(-281.007 -353.066)"/><path class="c" d="M362.408,447.621a.938.938,0,0,1-.707-.256,1.021,1.021,0,0,1-.248-.74v-2.376h-.467a.168.168,0,0,1-.105-.035.142.142,0,0,1-.041-.111v-.273l.637-.08.156-1.2a.169.169,0,0,1,.051-.094.156.156,0,0,1,.107-.037h.344v1.336h1.123v.494h-1.123v2.331a.5.5,0,0,0,.117.363.41.41,0,0,0,.306.119.518.518,0,0,0,.186-.029.686.686,0,0,0,.137-.062.935.935,0,0,0,.1-.065.128.128,0,0,1,.072-.029.117.117,0,0,1,.1.064l.2.326a1.331,1.331,0,0,1-.426.26,1.439,1.439,0,0,1-.513.094Z" transform="translate(-289.383 -354.923)"/><path class="c" d="M380.717,448.86l-2.165,5.028a.4.4,0,0,1-.086.123.228.228,0,0,1-.158.047H377.8l.709-1.54-1.6-3.655h.59a.223.223,0,0,1,.141.043.269.269,0,0,1,.07.1l1.039,2.445a2.56,2.56,0,0,1,.1.336c.035-.119.074-.234.115-.339L379.972,449a.211.211,0,0,1,.08-.1.213.213,0,0,1,.123-.039h.541Z" transform="translate(-302.259 -360.09)"/><path class="c" d="M416.85,443.475a1.653,1.653,0,0,0,.56-.084,1.167,1.167,0,0,0,.41-.234.955.955,0,0,0,.25-.363,1.2,1.2,0,0,0,.086-.465,1.045,1.045,0,0,0-.324-.818,1.413,1.413,0,0,0-.982-.3h-.883v2.259h.883Zm0-2.845a3.062,3.062,0,0,1,.906.119,1.72,1.72,0,0,1,.638.344,1.413,1.413,0,0,1,.377.535,1.875,1.875,0,0,1,.125.7,1.771,1.771,0,0,1-.135.7,1.523,1.523,0,0,1-.392.549,1.844,1.844,0,0,1-.64.359,2.737,2.737,0,0,1-.879.127h-.883v2.054h-.738V440.63Z" transform="translate(-332.988 -353.484)"/><path class="c" d="M442.081,450.128a1.329,1.329,0,0,0-.068-.434.909.909,0,0,0-.506-.564,1.1,1.1,0,0,0-.42-.08,1.043,1.043,0,0,0-.775.287,1.33,1.33,0,0,0-.354.791Zm.551,1.82a1.381,1.381,0,0,1-.3.268,1.788,1.788,0,0,1-.377.186,2.517,2.517,0,0,1-.842.146,1.967,1.967,0,0,1-.744-.137,1.628,1.628,0,0,1-.584-.4,1.835,1.835,0,0,1-.387-.65,2.688,2.688,0,0,1-.137-.888,2.246,2.246,0,0,1,.125-.76,1.85,1.85,0,0,1,.357-.611,1.64,1.64,0,0,1,.572-.406,1.881,1.881,0,0,1,.758-.146,1.749,1.749,0,0,1,.646.117,1.49,1.49,0,0,1,.511.336,1.573,1.573,0,0,1,.34.545,2.023,2.023,0,0,1,.123.738.43.43,0,0,1-.035.215.141.141,0,0,1-.131.053h-2.593a2.252,2.252,0,0,0,.1.64,1.315,1.315,0,0,0,.25.453,1,1,0,0,0,.383.271,1.307,1.307,0,0,0,.5.09,1.469,1.469,0,0,0,.441-.059,1.927,1.927,0,0,0,.32-.129c.09-.047.164-.09.225-.127a.284.284,0,0,1,.154-.059.147.147,0,0,1,.131.064l.191.25Z" transform="translate(-352.26 -359.854)"/><path class="c" d="M463.216,447.621a.938.938,0,0,1-.707-.256,1.029,1.029,0,0,1-.246-.74v-2.376h-.468a.153.153,0,0,1-.1-.035.137.137,0,0,1-.043-.111v-.273l.636-.08.158-1.2a.159.159,0,0,1,.051-.094.149.149,0,0,1,.106-.037h.343v1.336h1.123v.494h-1.123v2.331a.491.491,0,0,0,.119.363.414.414,0,0,0,.307.119.515.515,0,0,0,.183-.029.747.747,0,0,0,.137-.062.767.767,0,0,0,.1-.065.128.128,0,0,1,.072-.029.117.117,0,0,1,.1.064l.2.326a1.321,1.321,0,0,1-.428.26,1.447,1.447,0,0,1-.513.094Z" transform="translate(-370.224 -354.923)"/><path class="c" d="M494.114,441.233v1.919h2.255v.607h-2.255v2.359h-.744V440.63h3.384v.6Z" transform="translate(-395.651 -353.485)"/><path class="c" d="M517.9,452.014a1,1,0,0,0,.859-.385,2.206,2.206,0,0,0,0-2.155.993.993,0,0,0-.859-.389,1.225,1.225,0,0,0-.508.1.955.955,0,0,0-.359.289,1.254,1.254,0,0,0-.215.461,2.5,2.5,0,0,0-.07.619,1.779,1.779,0,0,0,.285,1.076A1.01,1.01,0,0,0,517.9,452.014Zm0-3.464a2.006,2.006,0,0,1,.767.141,1.642,1.642,0,0,1,.582.4,1.73,1.73,0,0,1,.369.631,2.749,2.749,0,0,1,0,1.652,1.762,1.762,0,0,1-.369.627,1.616,1.616,0,0,1-.582.4,1.99,1.99,0,0,1-.767.141,2.022,2.022,0,0,1-.773-.141,1.6,1.6,0,0,1-.584-.4,1.769,1.769,0,0,1-.371-.627,2.5,2.5,0,0,1-.127-.828,2.549,2.549,0,0,1,.127-.824,1.771,1.771,0,0,1,.371-.631,1.646,1.646,0,0,1,.584-.4A1.985,1.985,0,0,1,517.9,448.55Z" transform="translate(-413.834 -359.854)"/><path class="c" d="M542.6,452.014a1,1,0,0,0,.857-.385,2.2,2.2,0,0,0,0-2.155.992.992,0,0,0-.857-.389,1.241,1.241,0,0,0-.51.1.956.956,0,0,0-.359.289,1.284,1.284,0,0,0-.215.461,2.476,2.476,0,0,0-.07.619,1.779,1.779,0,0,0,.285,1.076A1.014,1.014,0,0,0,542.6,452.014Zm0-3.464a1.989,1.989,0,0,1,.765.141,1.645,1.645,0,0,1,.582.4,1.762,1.762,0,0,1,.371.631,2.709,2.709,0,0,1,0,1.652,1.743,1.743,0,0,1-.371.627,1.6,1.6,0,0,1-.582.4,2,2,0,0,1-.765.141,2.022,2.022,0,0,1-.773-.141,1.613,1.613,0,0,1-.584-.4,1.789,1.789,0,0,1-.369-.627,2.5,2.5,0,0,1-.127-.828,2.544,2.544,0,0,1,.127-.824,1.791,1.791,0,0,1,.369-.631,1.664,1.664,0,0,1,.584-.4A1.991,1.991,0,0,1,542.6,448.55Z" transform="translate(-433.363 -359.854)"/><path class="c" d="M568.191,442.525a1.121,1.121,0,0,0-.412-.357,1.186,1.186,0,0,0-.5-.1.982.982,0,0,0-.832.386,1.8,1.8,0,0,0-.291,1.1,2.84,2.84,0,0,0,.065.65,1.226,1.226,0,0,0,.191.445.749.749,0,0,0,.311.256,1.044,1.044,0,0,0,.416.08,1.092,1.092,0,0,0,.588-.154,1.681,1.681,0,0,0,.463-.433v-1.874Zm.681-2.685v5.643h-.406a.174.174,0,0,1-.184-.141l-.06-.47a2.045,2.045,0,0,1-.568.482,1.442,1.442,0,0,1-.736.183,1.425,1.425,0,0,1-.605-.127,1.234,1.234,0,0,1-.463-.379,1.835,1.835,0,0,1-.3-.621,3.211,3.211,0,0,1-.1-.855,2.7,2.7,0,0,1,.115-.8,1.98,1.98,0,0,1,.33-.642,1.578,1.578,0,0,1,.525-.428,1.562,1.562,0,0,1,.7-.154,1.393,1.393,0,0,1,.611.121,1.506,1.506,0,0,1,.453.334V439.84h.682Z" transform="translate(-453.241 -352.849)"/><path class="e" d="M232.752,68.269a16.29,16.29,0,0,0-.676,1.822l-.129.31c-.314.761-.668,1.7-1.039,2.472a4.811,4.811,0,0,0-1.218-.262,10.441,10.441,0,0,0-2.843.349,9.513,9.513,0,0,1-.945-1.029,34.19,34.19,0,0,0-3.325-3.829l-.437-.291-.228.471a8.65,8.65,0,0,0-.414,1.4c-.543,2.05-1.119,4.305-.586,6.418.057.221.308.767.332.978-.865,4.143.471,4.268.334,6.3a16.288,16.288,0,0,1-.908,3.926c-.08.217-.254.291-.431.42l-1.416.992c-.728.513-1.993,1.6-1.993,1.6l.966,1.035s1.007-.668,1.168-.828c.513-.521,1.181-.912,1.744-1.388.482-.416,1.527-1.32,1.583-1.956.074-.875.254-1.779.377-2.651a4.131,4.131,0,0,0-.459-1.66,5.325,5.325,0,0,1,.416-5.582l.156-.223-.131-.242c-1.193-2.269-.568-4.778.012-7.136.8.9,1.978,2.538,2.485,3.2a10.19,10.19,0,0,1,.928,1.086l.109.428.433-.105a8.423,8.423,0,0,1,3.579-.316,4.989,4.989,0,0,1,1.007.211l.408.2a25.812,25.812,0,0,0,1.027-2.607l1.148-2.739a11.759,11.759,0,0,1,1.132,2.144,3.565,3.565,0,0,1,.217,1.115,3.859,3.859,0,0,1-.248,1.523c-.217.484-.537.73-.389,1.32a1.581,1.581,0,0,0,.4,1.052,8.215,8.215,0,0,1,.968,1.2,3.247,3.247,0,0,1,.465,1.872,7.583,7.583,0,0,1-.947,3.065c-.488.812-1.107.89-.953,1.925.211,1.427,1.4,2.169,1.9,3.421a4.725,4.725,0,0,1,.314,3.544c-.353.984-.836,1.417-.836,1.677,0,.65.012,1.308.037,1.964h.619c-.006-.156-.012-.3-.025-.453a2.367,2.367,0,0,1,.551-2.064,4.4,4.4,0,0,0,.154-4.075c-.594-1.667-2.032-2.683-2.1-4.485,1.593-2.212,2.724-5.506,1.086-8.011-.506-.761.154-2.03.154-3.009a10.921,10.921,0,0,0-1.4-3.9L234.453,68c1.732-1.7.433-1.882,1.275-3.741,1.037-1.544.951-3.284,2.788-4.5.74-.5.637-1.14.767-1.827a1.049,1.049,0,0,1,.309-.564,9.724,9.724,0,0,1,3.126-1.742,12.965,12.965,0,0,1,2.974-.83c.922-.148,2.5.111,3.516-.061.939-.154,1.867-.4,2.806-.556a10.708,10.708,0,0,0,2.093-.775c.625-.24.964.057,1.164.652a13.116,13.116,0,0,0,1.05,2.968,9.356,9.356,0,0,1,.447,2.9,3.724,3.724,0,0,1-.656,1.908c-.515.832-1.248,1.716-1.849,2.528a2.194,2.194,0,0,0-.506,1.084c-.025.08-.086.3-.148.453-.068-.086-.144-.185-.185-.228a6.218,6.218,0,0,1-.68-.658,25.413,25.413,0,0,1-1.244-2.689c-.365-.613-1.228-.2-.922.644a11.28,11.28,0,0,1,2.437,4.288,3.4,3.4,0,0,1,.051,3.63,21.057,21.057,0,0,1-1.974,2.271,16.474,16.474,0,0,1-1.544,1.667,4.947,4.947,0,0,0-.851.972c-.068.1-.131.26-.2.351a.476.476,0,0,1-.148-.186,9.7,9.7,0,0,0-.814-1.6,27.525,27.525,0,0,1-2.132-3.376,7.612,7.612,0,0,1-.332-2.031,17.566,17.566,0,0,1,.146-3.427c.144-.961.008-2.038.186-3.022.068-.373.156-.972-.357-.972-.7,0-.7.67-.777,1.189a10.317,10.317,0,0,0-.193,1.827c.043,1.392-.377,5.123.02,5.976a43.538,43.538,0,0,0,2.726,5.16c.252.4,1.191,1.976,1.582,2.087.283.088.525-.111.724-.283a2.16,2.16,0,0,0,.412-.553,1.032,1.032,0,0,1,.143-.185c.008-.008.014-.018.025-.031a2.1,2.1,0,0,0,.074.334,8.4,8.4,0,0,0,.351.767c.131.33,1.539,2.892,1.613,2.974l.254.285a16.227,16.227,0,0,1,2.206,2.607C256.119,87.013,255.9,94.4,255.9,94.4L257,93.54s-.1-7.023-1.2-9.368l-.373-.789a10.61,10.61,0,0,0-2.562-2.946,1.523,1.523,0,0,1-.217-.193c-.832-.99-1.736-4.077-2.019-4.368-.045-.037-.08-.074-.123-.105a3.165,3.165,0,0,0,.2-.334,9.757,9.757,0,0,1,1.689-1.909,8.307,8.307,0,0,0,1.984-2.86,4.471,4.471,0,0,0,.347-1.474,3.762,3.762,0,0,0-.168-1.779c-.1-.3-.242-.453-.08-.756.408-.781.8-1.554,1.238-2.318.519-.9,1.2-1.677,1.7-2.571a5.042,5.042,0,0,0,.668-2.683,5.952,5.952,0,0,0-.2-1.71c-.217-.664-.8-1.517-.945-2.118-.144-.564-.293-1.214-.474-1.765a3.488,3.488,0,0,0-1.091-1.476c-1.162-.676-2.661.068-3.6.793a11.284,11.284,0,0,1-2.454.613,20.955,20.955,0,0,1-3.448.137,13.754,13.754,0,0,0-7.253,3.054,1.694,1.694,0,0,0-.422,1.1c.012.143.057.285.068.433.023.267-.351.719-.537.881-2.312,1.927-2.093,3.922-3.071,6.714a8.256,8.256,0,0,0-1.3,1.636l-.6.886Z" transform="translate(-173.625 -41.647)"/></g></svg>