<svg xmlns="http://www.w3.org/2000/svg" width="102" height="102" viewBox="0 0 102 102"><defs><style>.a,.b{fill:#fff;}.a{fill-rule:evenodd;}</style></defs><g transform="translate(0 0)"><path class="a" d="M15.064,31.269c.418-1.425,2.184-6.268.209-6.439-.988.114-1.975.209-2.963.323.665-1.368,1.33-2.754,2.013-4.122-1.728-3.4.456-3.742,1.937-4.616,3.495-1.652,5.508-1.292,5.451,1.975,6.021-.646,8,12.441,15.214,13.429,6.686.76,11.928.532,17.133-1.861,3.628-2.051,6.857-7.351,10.333-10.5,4.065-3.913,8.4,4.882,4.236,6.23,4.35.836,2.773,9.307-1.273,11.3,2.032.684,2.26,2.659,1.273,3.495q-4.074,3.7-8.13,7.389C58.257,53.8,52.5,63.844,45,63.711A27.643,27.643,0,0,0,42.53,70.8c.817.608,1.615,1.2,2.431,1.8-2.469-.285-4.863-.38-6.667.855.38.456.779.912,1.159,1.368a4.873,4.873,0,0,0-3.7-.741,14.928,14.928,0,0,0-7.18,2.849c.912-.988,1.823-1.994,1.9-3.058-1.634-.551-4.445.19-6.876.532A82.318,82.318,0,0,0,35.1,71.347a25.435,25.435,0,0,0,1.159-7.712C19.718,57.861,9.613,44.793,15.026,31.288Zm14.151,3.8C27.069,54.518,45.493,52.581,53.262,50.7,38.712,58.45,23.574,49.067,29.215,35.068Zm8.111,35.386,2.963-6.439,1.8.057-1.9,6.287Z" transform="translate(9.768 11.355)"/><path class="b" d="M18.143,83.839A46.463,46.463,0,1,1,51,97.441,46.274,46.274,0,0,1,18.143,83.839ZM0,51A51,51,0,1,0,14.937,14.937,50.84,50.84,0,0,0,0,51Z" transform="translate(0 0)"/></g></svg>