<svg xmlns="http://www.w3.org/2000/svg" width="102" height="102" viewBox="0 0 102 102"><defs><style>.a{fill:#fff;}</style></defs><g transform="translate(0 0)"><path class="a" d="M18.152,83.85A46.457,46.457,0,1,1,51,97.453a46.308,46.308,0,0,1-32.848-13.6ZM0,51A51,51,0,1,0,14.939,14.938,50.843,50.843,0,0,0,0,51Z" transform="translate(0 0)"/><path class="a" d="M76.68,114.121c4.533-.674,4.2-2.708,14.307-3.434,4.435-.34,8.055.505,12.411.554,15.155,0,14.6-1.822,21.6-1.822,2.453-.052,6.389.291,7.235,2.72,1.927.505,1.982,5.311,1.822,8.264-.211,4.383-.634,8.794.793,13.1.447,1.553-.766,2.214.447,4.882.634,1.951-.659,4.355-.211,7.238-.714-1.136-.4-3.672-1.109-3.887a2.28,2.28,0,0,1-.4,2.352c.606-1.372.132-2.481-.08-3.669-.08.922.211,2.006-.263,2.744a16.764,16.764,0,0,0-.052-3.8,9.86,9.86,0,0,1-.291,2.775,3.191,3.191,0,0,0-.211-2.061c-.055-1.372,1.054-2.352,1.026-3.541a13.021,13.021,0,0,0-1.743-6.258c.239,2.116.028,4.068.717,6.258a2.554,2.554,0,0,1,.159,1.822,21.171,21.171,0,0,0-1.032,8c.319,3.908-.845,2.273-1.24,3.59l-1,.714-.319,2.113c-1.057,1.188-4.463,1-4.463.371.291-1.455,1.875-3.063,2.8-4.438a14.308,14.308,0,0,0,.873-8.288c-1.479,2.505-2.218,6.6-2.536,9.8l-.925.683-.239.579c-.447,1.216-4.463,1.822-4.383.98.239-1.265,1.32-2.242,1.951-3.351a17.287,17.287,0,0,0,1.535-4.729c.028-1.473.714-2.64,1.084-3.957a14.488,14.488,0,0,0,0-3.2h-.793c-.028.818-.239,2.245-.606,2.245-.423,0-.606-1.188-.606-1.9l-1.032-.45c0,.662-.08,1.51-.447,1.51-.4,0-.447-1.164-.475-1.743A5.235,5.235,0,0,1,119,135.325c-7.232,4.092-7.1,4.989-23.131.61l-.132,5.624a6.714,6.714,0,0,1-.135,3.963,15.5,15.5,0,0,0,0,6.23l-.447.79-.343,1.614c-.423,1.473-4.594,1.473-4.411.87.187-1.271,1.559-2.061,2.031-3.617a1.9,1.9,0,0,1,.346-1.482,18.234,18.234,0,0,0-.214-4.3c-.659-.689-.606-1.8-.922-2.72l-.554-1.691c-.184,1.531-.738,3.3-1,4.861l-.925,4.3a11.731,11.731,0,0,0,0,2.723c-.45.187-.527.686-.793,1.026-.4.53-4.117.634-3.96.107.343-1.639,1.531-1.951,2.509-4.542a13.3,13.3,0,0,0,.554-5.648c-.606-.711-.447-2.558-.686-3.853a3.9,3.9,0,0,1-4.408-1.244c-4.015-3.881-4.144-6.521-7.023-9.924a7.227,7.227,0,0,1-2.72-1.455c-1.13-1.268-1.89-5.605-2.934-5.2l6.98-8.242Z" transform="translate(-48.451 -75.965)"/><path class="a" d="M45.04,116.409a17.993,17.993,0,0,0-2.4.848,17.331,17.331,0,0,1-2.4.851,5.7,5.7,0,0,1-1.678-.358,2.11,2.11,0,0,1-1.293-.852c-.11-.208-.349-.57-.714-1.1a.92.92,0,0,1-.175-.9,9.238,9.238,0,0,1,1.161-3.109,22.6,22.6,0,0,0,1.544-3.161,3.189,3.189,0,0,0-1.158-2.671A21.3,21.3,0,0,1,35.18,103.7a4.556,4.556,0,0,1,2.533-1.4,14.851,14.851,0,0,1,1.486.211c.845.144,1.338.214,1.486.214h.5a2.987,2.987,0,0,0,.551.064.617.617,0,0,0,.441-.119,15.327,15.327,0,0,0,2.423-2.5,2.419,2.419,0,0,1,2.037-.852,2.965,2.965,0,0,1,2.864,1.979,3.245,3.245,0,0,0,3.253,1.973,3.511,3.511,0,0,0,.662-.089,3.455,3.455,0,0,1,.606-.089,2.025,2.025,0,0,1,1.706.787,8.739,8.739,0,0,1,.992,1.826h.628l-7.47,15.017c-.236-.475-1.127-.5-1.363-.977q-1.87-3.34-3.467-3.342Z" transform="translate(-24.405 -68.946)"/></g></svg>