<svg xmlns="http://www.w3.org/2000/svg" width="257" height="84.837" viewBox="0 0 257 84.837">
    <defs>
        <style>.a,.b{fill:#fff;}.a{fill-rule:evenodd;}</style>
    </defs>
    <g transform="translate(0.01 11)">
        <g transform="translate(-0.01 -11)">
            <path class="a"
                  d="M318.4,127.045a18.391,18.391,0,0,0,2.363,10.579c1.808,2.891,4.244,4.155,6.6,3.793A18.385,18.385,0,0,0,325,130.84C323.2,127.946,320.759,126.684,318.4,127.045Z"
                  transform="translate(-283.824 -113.208)"/>
            <path class="a"
                  d="M318.4,246.2a18.377,18.377,0,0,0,2.363,10.573c1.808,2.9,4.244,4.161,6.6,3.793A18.376,18.376,0,0,0,325,249.991C323.2,247.1,320.759,245.836,318.4,246.2Z"
                  transform="translate(-283.824 -219.435)"/>
            <path class="a"
                  d="M318.4,367.572a18.386,18.386,0,0,0,2.363,10.577c1.808,2.9,4.244,4.156,6.6,3.794A18.4,18.4,0,0,0,325,371.362C323.2,368.472,320.759,367.206,318.4,367.572Z"
                  transform="translate(-283.824 -327.64)"/>
            <path class="a"
                  d="M415.285,130.84a18.394,18.394,0,0,0-2.367,10.577c2.359.362,4.8-.9,6.6-3.793a18.361,18.361,0,0,0,2.366-10.579C419.528,126.684,417.089,127.946,415.285,130.84Z"
                  transform="translate(-368.086 -113.208)"/>
            <path class="a"
                  d="M415.285,249.991a18.385,18.385,0,0,0-2.367,10.574c2.359.368,4.8-.9,6.6-3.793a18.345,18.345,0,0,0,2.366-10.573C419.528,245.836,417.089,247.1,415.285,249.991Z"
                  transform="translate(-368.086 -219.435)"/>
            <path class="a"
                  d="M415.285,371.362a18.412,18.412,0,0,0-2.367,10.581c2.359.362,4.8-.9,6.6-3.794a18.354,18.354,0,0,0,2.366-10.577C419.528,367.206,417.089,368.472,415.285,371.362Z"
                  transform="translate(-368.086 -327.64)"/>
            <path class="a"
                  d="M385.44,272.01a12.509,12.509,0,0,1,2.346,5.453,11.428,11.428,0,0,1,2.225-5.453A7.157,7.157,0,0,1,385.44,272.01Z"
                  transform="translate(-343.623 -242.5)"/>
            <path class="a"
                  d="M387.688,77.27c-.8.9-2.248,3.548-2.248,7.959a12.55,12.55,0,0,1,2.346,5.457,11.44,11.44,0,0,1,2.225-5.457C390.011,80.72,388.474,78.121,387.688,77.27Z"
                  transform="translate(-343.623 -68.887)"/>
            <path class="a"
                  d="M385.44,390.82c1.206,1.294,1.908,3.539,2.346,5.455a11.4,11.4,0,0,1,2.225-5.455A7.134,7.134,0,0,1,385.44,390.82Z"
                  transform="translate(-343.623 -348.421)"/>
            <path class="b"
                  d="M118.086,30.931V51.582c0,7.421-.292,11.443-3.422,18.057-1.819,3.844-4.66,7.87-12.523,15.2l-1.53-.627c5.679-7.42,6.917-12.335,7.719-16,1.092-4.649,1.748-15.736,1.748-35.759V26.282c0-3.4-.073-18.5-.655-23.154-1.748-.357-7.5-1.071-9.611-1.252L99.52,0c1.748.179,10.34.358,14.344.358,3.932,0,10.121-.179,12.6-.358l-.219,1.877c-1.238.18-5.242.894-7.791,1.252-.292,2.773-.363,21.1-.363,23.064v4.739Z"
                  transform="translate(-88.722 0)"/>
            <path class="b"
                  d="M483.638,159.561l-2.342.25a44.878,44.878,0,0,1-1.833,4.649,167.3,167.3,0,0,0-18.462-1.2,5.736,5.736,0,0,1-.39,2.021c10.783.858,15.989,3.269,18.14,4.528a22.608,22.608,0,0,1,1.12,4.6l2.343.6a68.178,68.178,0,0,1,1.426-15.448Z"
                  transform="translate(-410.638 -142.25)"/>
            <path class="b"
                  d="M73.5,216.675c1.881-.209,6.2-.42,8.074-.51v-.016a3.834,3.834,0,0,1-.152-1.024c-3.2.067-10.541.1-14.541.1-1.771,0-4.6-.012-7.644-.037-.042.471-.111.936-.2,1.394l2.04.092a14.481,14.481,0,0,1,.407,4v2.651a24.674,24.674,0,0,1-.3,4.948,59.938,59.938,0,0,1-12.93,1.3c-21.991,0-36.143-10.449-36.143-18.6,0-7.581,10.613-13.763,26.8-14.389a5.665,5.665,0,0,1-.292-1.618,84.611,84.611,0,0,0-22.542,3.859c-8.959,3-16.086,8.049-16.086,15.1,0,6.248,7.431,11.9,20.26,15.047,8.552,2.1,20.362,2.4,26.98,2.4a249.249,249.249,0,0,0,26.063-1.649,52.8,52.8,0,0,1-.2-5.9v-1.6a29.61,29.61,0,0,1,.409-5.55Z"
                  transform="translate(0.01 -173.818)"/>
            <path class="b"
                  d="M798.991,322.616l1.39-2.516a2.9,2.9,0,0,0,1.852.749,1.617,1.617,0,0,0,1.717-1.748V310.73h3.318v8.409c0,3.168-1.93,4.627-4.747,4.627a5.257,5.257,0,0,1-3.531-1.15Z"
                  transform="translate(-712.308 -277.019)"/>
            <path class="b"
                  d="M900.981,315.394a3.508,3.508,0,1,0-3.492,3.707A3.458,3.458,0,0,0,900.981,315.394Zm-10.381,0a6.884,6.884,0,1,1,6.889,6.624A6.537,6.537,0,0,1,890.6,315.394Z"
                  transform="translate(-793.979 -275.272)"/>
            <path class="b"
                  d="M1042.539,323.536l-5.441-7.411v7.411h-3.318V310.73h3.415l5.208,7.046V310.73h3.338v12.806Z"
                  transform="translate(-921.626 -277.019)"/>
            <path class="b" d="M1166.27,323.536h3.32V310.73h-3.32Z" transform="translate(-1039.742 -277.019)"/>
            <path class="b"
                  d="M1214.766,278.1l-1.794-2.765h1.755l1.331,1.555,1.275-1.555h1.774l-1.736,2.765Zm-4.206,12.076,1.755-2.476a5.832,5.832,0,0,0,4.111,1.689c1.139,0,1.832-.442,1.832-1.057,0-1.747-7.294-.346-7.294-5.28,0-2.151,1.832-4.07,5.133-4.07a7.887,7.887,0,0,1,5.229,1.785l-1.814,2.363a6.082,6.082,0,0,0-3.764-1.326c-.964,0-1.389.384-1.389.922,0,1.631,7.274.44,7.274,5.2,0,2.572-1.911,4.281-5.364,4.281a7.892,7.892,0,0,1-5.712-2.035Z"
                  transform="translate(-1079.227 -245.46)"/>
            <path class="b"
                  d="M1335.315,323.536l-3.376-4.819-.869,1.075v3.744h-3.32V310.73h3.32v5.261l3.956-5.261h4.091l-5,5.99,5.267,6.816Z"
                  transform="translate(-1183.703 -277.019)"/>
            <path class="b" d="M1444.95,323.536h3.32V310.73h-3.32Z" transform="translate(-1288.189 -277.019)"/>
            <path class="b"
                  d="M1502.12,315.394a3.508,3.508,0,1,0-3.492,3.707A3.457,3.457,0,0,0,1502.12,315.394Zm-10.38,0a6.884,6.884,0,1,1,6.888,6.624A6.536,6.536,0,0,1,1491.74,315.394Z"
                  transform="translate(-1329.902 -275.272)"/>
            <path class="b"
                  d="M1696.08,316.494c0-4.072,3.126-6.624,6.966-6.624a6.006,6.006,0,0,1,5.5,3.111l-2.778,1.439a3.194,3.194,0,0,0-2.72-1.631,3.707,3.707,0,0,0,0,7.411,4.091,4.091,0,0,0,2.373-.768v-1h-2.895v-2.9h6.213v5.088a7.449,7.449,0,0,1-5.691,2.5c-3.841,0-6.966-2.554-6.966-6.624Z"
                  transform="translate(-1512.074 -276.253)"/>
            <path class="b"
                  d="M1842.225,316.063a1.435,1.435,0,0,0-1.6-1.363H1838v2.746h2.625A1.427,1.427,0,0,0,1842.225,316.063Zm-.367,8.564-2.162-4.3H1838v4.3h-3.319V311.82h6.445a4.136,4.136,0,0,1,4.477,4.264,3.885,3.885,0,0,1-2.567,3.841l2.625,4.7Z"
                  transform="translate(-1635.638 -277.991)"/>
            <path class="b"
                  d="M1954.344,288.5V286.87h7.005V288.5Zm-2.624,8.7v-7.623h3.376v7.507a2.713,2.713,0,0,0,5.422,0v-7.507h3.359v7.6c0,3.189-1.948,5.433-6.059,5.433C1953.668,302.614,1951.72,300.349,1951.72,297.2Z"
                  transform="translate(-1739.98 -255.748)"/>
            <path class="b"
                  d="M2092.484,318.214a3.289,3.289,0,0,0-3.55-3.514h-2.1v7.046h2.085a3.409,3.409,0,0,0,3.57-3.532Zm-8.974,6.413V311.82h5.4c4.052,0,6.966,2.42,6.966,6.394s-2.913,6.413-6.945,6.413Z"
                  transform="translate(-1857.472 -277.991)"/>
            <path class="b"
                  d="M2203.616,315.084l-1.64,4.82h3.28Zm3.185,9.543-.637-1.843h-5.075l-.636,1.843h-3.762l4.844-12.807h4.166l4.864,12.807H2206.8Z"
                  transform="translate(-1958.373 -277.991)"/>
            <path class="b" d="M2338.32,324.627h3.318V311.82h-3.318Z" transform="translate(-2084.639 -277.991)"/>
        </g>
    </g>
</svg>