<svg xmlns="http://www.w3.org/2000/svg" width="135" height="135" viewBox="0 0 135 135"><defs><style>.a{fill:#1a5a40;}</style></defs><path class="a" d="M24.016,110.984A61.47,61.47,0,1,1,67.489,129a61.31,61.31,0,0,1-43.473-18.012ZM0,67.511A67.481,67.481,0,1,0,19.765,19.765,67.282,67.282,0,0,0,0,67.511Z" transform="translate(0 0)"/><path class="a" d="M18.194,40.948c0-.48-.022-.937,0-1.417a6.6,6.6,0,0,1,.632-2.965c.283-.545.763-.61,1.09-.087.371.589.632,1.221.981,1.81.48.807.959,1.592,1.461,2.376a1.578,1.578,0,0,1,.24.414,1,1,0,0,0,.85.632,2.7,2.7,0,0,1,1.4.676c.065.087.24.087.349.087a15.711,15.711,0,0,1,4.164.283,8.744,8.744,0,0,0,3.183.371c.7-.087,1.4-.262,2.115-.305.937-.044,1.875,0,2.812,0,.676,0,1.33,0,1.984.022.981.044,1.94.065,2.921.2,1.09.153,2.158.414,3.248.589a19.5,19.5,0,0,0,2.267.262,21.158,21.158,0,0,0,2.878.087c1.548-.109,3.118-.283,4.666-.5,1.33-.174,2.638-.458,3.968-.676.545-.087,1.09-.131,1.635-.218.632-.087,1.265-.218,1.9-.327,1.352-.2,2.7-.436,4.077-.61a20.715,20.715,0,0,1,2.856-.153c.741.022,1.461.218,2.2.305a.814.814,0,0,0,.458-.065c1.657-.741,3.336-1.461,4.993-2.289a18.912,18.912,0,0,0,5.058-3.4,12.217,12.217,0,0,0,2.682-4.295,14.156,14.156,0,0,0,.872-5.211,6.745,6.745,0,0,0-1.33-4.055A17.393,17.393,0,0,0,81.2,18.6c-.763-.567-1.592-1.025-2.4-1.526a3.214,3.214,0,0,1-1.352-1.4,1.537,1.537,0,0,1,.807-2.028,4.045,4.045,0,0,1,2.333-.283,9.74,9.74,0,0,1,4.84,2.485,16.267,16.267,0,0,1,4.295,5.712,12.815,12.815,0,0,1,1,3.488,16.491,16.491,0,0,1,.087,3.881,18.321,18.321,0,0,1-.959,4.164,21.851,21.851,0,0,1-3.27,5.821,32.729,32.729,0,0,1-3.554,3.815,5.558,5.558,0,0,0-1.439,1.744,2.813,2.813,0,0,0-.174.85q0,.916.065,1.831a.811.811,0,0,0,.218.48,25.735,25.735,0,0,1,3.488,5.407,36.314,36.314,0,0,1,1.722,4.513,37.121,37.121,0,0,0,1.265,3.6,14.749,14.749,0,0,0,1.635,2.921,3.929,3.929,0,0,0,2.551,1.592.862.862,0,0,1,.676.763,13.745,13.745,0,0,0,.327,1.592c.24.763.523,1.526.828,2.289.632,1.483,1.286,2.943,1.919,4.426.305.676.632,1.33.916,2.006a2.39,2.39,0,0,1,0,1.9,2.962,2.962,0,0,0-.24,1.155,1.218,1.218,0,0,1-.741,1.221,5.22,5.22,0,0,0-.741.458,1.614,1.614,0,0,1-1.265.262c-.785-.153-1.548-.262-2.333-.371-.262-.044-.327-.153-.327-.392a4.014,4.014,0,0,0-.065-.719,1.181,1.181,0,0,1,.349-1.068c.283-.283.589-.567.872-.872.632-.632.654-.894.24-1.679a24.759,24.759,0,0,0-2.551-3.815c-.545-.676-1.134-1.33-1.679-1.984a3.982,3.982,0,0,0-2.442-1.4c-.959-.174-1.919-.283-2.856-.48a8.2,8.2,0,0,1-1.592-.589,35.364,35.364,0,0,1-6-3.4,4.79,4.79,0,0,0-.392-.305c-.131-.109-.262-.2-.414-.327a6.813,6.813,0,0,0-.109,3.619A12.553,12.553,0,0,0,75.795,70.6a1.6,1.6,0,0,1,.109,1.679.886.886,0,0,1-.305.327,8.206,8.206,0,0,0-1.853,1.831,28.282,28.282,0,0,1-4.709,4.273c-.567.436-1.112.894-1.679,1.352a3.172,3.172,0,0,1-1.526.567,11.088,11.088,0,0,1-1.2.087c-.589.044-1.155.109-1.744.131a.5.5,0,0,1-.349-.087,7.393,7.393,0,0,1-.916-.719,1.281,1.281,0,0,1-.305-1.766,2.531,2.531,0,0,1,1.57-1.177.89.89,0,0,1,.414-.022,2.544,2.544,0,0,0,2.224-.5A13.375,13.375,0,0,0,67.292,75c.7-.741,1.308-1.526,1.962-2.311a1.408,1.408,0,0,0,.087-1.679,9.268,9.268,0,0,0-2.289-2.66c-.414-.371-.85-.719-1.243-1.112-.436-.458-.872-.937-1.265-1.439-.654-.763-1.308-1.526-1.94-2.311a.352.352,0,0,0-.392-.131c-1.439.24-2.878.48-4.317.7a50.4,50.4,0,0,1-7.478.371,21.6,21.6,0,0,0-2.355.262c-.24.022-.174.2-.174.349.022.741.087,1.483.044,2.224-.065,1.134-.2,2.246-.327,3.379-.087.785-.218,1.548-.283,2.333-.087.807-.131,1.635-.153,2.464,0,.392.065.807.065,1.2a2.456,2.456,0,0,1-.7,1.919,1.911,1.911,0,0,0-.48,1.352,3.109,3.109,0,0,1-.654,1.875,1.26,1.26,0,0,1-1.025.523c-.807,0-1.613.065-2.42.065a12.6,12.6,0,0,1-1.265-.065.787.787,0,0,1-.741-.654c-.087-.262-.2-.523-.283-.785a.787.787,0,0,1,.262-.937c.283-.24.523-.5.828-.741a1.5,1.5,0,0,1,1.221-.218c.414.087.589-.044.719-.436a4.178,4.178,0,0,0,.044-2.137c-.2-.937-.392-1.875-.523-2.812-.109-.741-.153-1.483-.24-2.224a9.012,9.012,0,0,0-.785-2.812,7.191,7.191,0,0,0-1.57-2.355,3.575,3.575,0,0,0-1.025-.654c-.305-.174-.654-.262-.959-.436a1.118,1.118,0,0,0-1.286.131,3.568,3.568,0,0,0-1.09,1.046,2.407,2.407,0,0,1-1.4,1.046A4.029,4.029,0,0,0,32.191,68.4a10.047,10.047,0,0,1-2.7,1.788c-1.243.61-2.507,1.177-3.794,1.722-.807.327-1.679.567-2.529.828-.305.109-.61.218-.894.327a.725.725,0,0,0-.131.065c-.283.523-.807.676-1.286.916a2.836,2.836,0,0,0-1.439,1.766,4.114,4.114,0,0,1-1.875,2.573,2.384,2.384,0,0,1-2.2.153,1.1,1.1,0,0,1-.654-1.025,3.28,3.28,0,0,1,.567-2.071c.828-1.243,1.613-2.507,2.485-3.706a11.521,11.521,0,0,1,2.442-2.267c1.744-1.33,3.51-2.638,5.254-3.99a17.593,17.593,0,0,0,1.635-1.483,1.83,1.83,0,0,0,.371-1.875c-.2-.763-.327-1.526-.48-2.289-.087-.436-.131-.872-.2-1.308a1.923,1.923,0,0,0-1.156-1.483,13.331,13.331,0,0,1-3.183-1.962.717.717,0,0,0-.48-.109c-.436.065-.828.174-1.265.262a3.829,3.829,0,0,0-.872.131,9.151,9.151,0,0,0-2.42,1.156,2.3,2.3,0,0,1-1.526.5,1.349,1.349,0,0,1-1.025-.436,5.083,5.083,0,0,0-1.417-1.046,2.284,2.284,0,0,1-.916-.959c-.022-.065-.109-.109-.153-.153-.2-.2-.392-.371-.567-.567a.692.692,0,0,1-.065-.785c.218-.48.436-.959.7-1.439a2.972,2.972,0,0,0,.349-1.766c-.044-.371-.109-.719-.153-1.068a3.382,3.382,0,0,1,.959-2.812l1.788-1.853c.131-.131.109-.262.065-.436-.305-.828-.632-1.657-.872-2.507a20.279,20.279,0,0,1-.349-2.006v-.218c.022-.632.414-.872.981-.545a21.819,21.819,0,0,1,2.093,1.4c.371.283.676.676,1.025,1l.065.065Z" transform="translate(14.077 16.017)"/></svg>