<svg xmlns="http://www.w3.org/2000/svg" width="135" height="135" viewBox="0 0 135 135"><defs><style>.a{fill:#1a5a40;}</style></defs><path class="a" d="M24.048,110.991a61.488,61.488,0,1,1,43.485,18.015A61.3,61.3,0,0,1,24.048,110.991ZM0,67.516A67.476,67.476,0,1,0,19.766,19.761,67.244,67.244,0,0,0,0,67.516Z"/><path class="a" d="M113.184,47c1.549-4.236.593-9.062-3.1-11.558a5.446,5.446,0,0,0,.989-.69c-3.989.952-7.747-.624-7.813-4.268,2.11-.361,2.8-2.725,1.319-4.465-1.352-1.543-3.3-.952-4.022-.919-1.286-1.084-2.506-1.543-5.407-3.382-3.462-2.167-9.231-6.83-17.9-7.256-4.385-.263-8.934-.788-18.4-.69-14.7.23-14.638-2.692-32.836,6.7-11.506,4.892-14.737,9.489-15.1,9.588A14.57,14.57,0,0,1,7.391,28.97c-.33-.131-1.121-1.609-2.044-1.543-.527.033-.89.558-.725,1.97-1.352-.23-.989,1.478.758,3.185C6.567,33.7,6.666,35.34,9.468,35.833a1.009,1.009,0,0,1,.725.493c-.56,1.872,2.143,6.271-.3,7.65-1.088.1-.989.558-1.187,1.051-1.352-.066-.659.919-2.11.624-1.418-.3-1.088.164-.4,2.364.1.3-.791,3.842,2.11,3.48.923.525.989.722,1.22,1.084-.231.328-1.121.525-.2,1.248,2.11,1.609,3.363-.3,6.2.722,3.462,1.182,7.418,1.346,10.55-.2a2.851,2.851,0,0,1,2.736.46c2.044,1.313,2.242.033,2.8.722,1.352,1.543.4,4.17.989,6.337-.725,2.824-1.055,3.842-1.714,4.465-.527.493-.89.591-1.055,1.445-.3.164-.3.854-1.451,2.069.923.788,3.659.591,4.912-.361.56.164.989.3,1.253-.1a1.8,1.8,0,0,0,.4-1.051c.429-.919.462-2.725,1.055-4.3.495-1.346,1.352-2.036,1.451-3.579,1.747.1.857,2.43,2.44,3.448.89.591.923,1.872,3.264,2.233.593.591,1.121.525,2.506,1.412,1.088-.919.527-3.382-.758-3.907.231-.361,1.582-.1,1.055-.985-.527-.854-1.352-.821-1.978-1.116-.33-1.084-1.517-1.215-1.582-1.675-.3-1.872,1.978-1.543,3.2-3.612.725-1.215,1.055-.328,3.89-2.955,4.286-1.281,13.253,2.167,20.242.23,7.055-1.872,11.044-.3,11.473.23.1,2.791,1.121,5.582.132,7.289-1.484,2.561-3.429,5.68-3.264,6.6a11.37,11.37,0,0,1-1.319,2.2c1.484.263,4.945,1.051,5.6-.985.462.657,1.286.361,1.286-.033a10.443,10.443,0,0,1,3.692-8.044c.659-.624,1.813-.394,2.308-1.084a5.276,5.276,0,0,0,.725-2.627c1.747.1,1.418,1.346,2.44,2.134.692.525.824,1.872.956,2.922s-.066,4.006.1,4.63c-.1.788-1.187,2.1-1.22,2.364-.033.394,4.879.722,5.407-1.281,1.352.788,1.022-.821.758-1.445-3.066-6.928.593-7.388-.033-8.635,1.549-1.97-.725-2.988-.989-5.385,4.022-6.8,3.758-5.779,5.176-11.328a22.46,22.46,0,0,0,.824-6.041c.725.164,1.286.46,2.077,2.988a7.408,7.408,0,0,0-.33-1.74c6.725,2.5,3.561,4.7,7.286,8.471a6.187,6.187,0,0,1,.264,2.233Z" transform="translate(8.679 31.089)"/></svg>