<svg xmlns="http://www.w3.org/2000/svg" width="135" height="135" viewBox="0 0 135 135">
    <defs>
        <style>.a{fill:#1a5a40;}</style>
    </defs>
    <path class="a"
          d="M24.021,110.984a61.5,61.5,0,1,1,43.493,18.005,61.3,61.3,0,0,1-43.493-18.005ZM0,67.5A67.474,67.474,0,1,0,19.765,19.761,67.355,67.355,0,0,0,0,67.5Z"
          transform="translate(0 0)"/>
    <path class="a"
          d="M19.808,22.868c5.964-.9,5.54-3.578,18.846-4.533,5.858-.451,10.6.663,16.355.742,19.96,0,19.244-2.412,28.468-2.412,3.234-.08,8.429.371,9.542,3.578,2.545.663,2.624,7,2.412,10.894-.292,5.778-.848,11.583,1.034,17.256.583,2.041-1.007,2.916.583,6.441.848,2.571-.875,5.752-.265,9.542-.928-1.511-.53-4.851-1.458-5.116a2.988,2.988,0,0,1-.53,3.1c.8-1.8.186-3.26-.106-4.824-.106,1.219.265,2.651-.345,3.6a21.1,21.1,0,0,0-.08-5.01,13.107,13.107,0,0,1-.371,3.658,4.157,4.157,0,0,0-.265-2.7c-.08-1.8,1.378-3.1,1.352-4.665a16.967,16.967,0,0,0-2.306-8.244c.318,2.783.027,5.354.954,8.244a3.394,3.394,0,0,1,.212,2.412,28.027,28.027,0,0,0-1.352,10.55c.424,5.142-1.113,3-1.643,4.718l-1.325.928L89.1,73.813c-1.4,1.564-5.884,1.325-5.884.5.371-1.908,2.465-4.029,3.684-5.858a18.7,18.7,0,0,0,1.14-10.921c-1.962,3.313-2.916,8.694-3.34,12.909l-1.219.9-.318.769c-.583,1.59-5.884,2.412-5.778,1.3.318-1.67,1.749-2.942,2.571-4.427,1.193-2.068,1.458-4.082,2.015-6.229.027-1.935.928-3.472,1.431-5.222a18.664,18.664,0,0,0,0-4.215H82.364c-.027,1.087-.318,2.969-.8,2.969-.557,0-.8-1.564-.8-2.518l-1.352-.583c0,.875-.106,1.988-.583,1.988-.53,0-.583-1.537-.636-2.306a7.119,7.119,0,0,1-2.624-2.068c-9.542,5.381-9.357,6.574-30.483.8l-.186,7.422a8.765,8.765,0,0,1-.186,5.222,20.392,20.392,0,0,0,0,8.217L44.141,73.5l-.451,2.121c-.557,1.935-6.044,1.935-5.8,1.14.239-1.67,2.068-2.7,2.677-4.771a2.575,2.575,0,0,1,.451-1.962c-.08-1.882.239-3.711-.292-5.672-.875-.9-.8-2.359-1.219-3.578l-.742-2.227c-.239,2.015-.981,4.347-1.325,6.415l-1.219,5.672a16.15,16.15,0,0,0,0,3.578c-.583.239-.689.9-1.034,1.352-.53.689-5.434.848-5.222.133.451-2.147,2.015-2.571,3.313-5.991a17.92,17.92,0,0,0,.742-7.448c-.8-.928-.583-3.366-.9-5.089-3.022.769-4.268-.133-5.8-1.643-5.3-5.116-5.46-8.588-9.251-13.068a9.536,9.536,0,0,1-3.578-1.908c-1.484-1.67-2.492-7.4-3.87-6.839l9.2-10.868Z"
          transform="translate(17.992 27.765)"/>
    <path class="a"
          d="M18.348,37.624a24.334,24.334,0,0,0-3.154,1.113,24.333,24.333,0,0,1-3.154,1.113,7.628,7.628,0,0,1-2.227-.477c-.928-.318-1.511-.689-1.7-1.113a12.638,12.638,0,0,0-.954-1.431,1.251,1.251,0,0,1-.239-1.193,12.459,12.459,0,0,1,1.537-4.109A33.1,33.1,0,0,0,10.5,27.366a4.243,4.243,0,0,0-1.511-3.525A31.487,31.487,0,0,1,5.36,20.872q2.107-1.829,3.34-1.829a19.11,19.11,0,0,1,1.961.265c1.113.186,1.776.292,1.961.292h.663a4.169,4.169,0,0,0,.716.08.808.808,0,0,0,.583-.159,19.011,19.011,0,0,0,3.181-3.287,3.206,3.206,0,0,1,2.677-1.113,3.9,3.9,0,0,1,3.764,2.6,4.287,4.287,0,0,0,4.294,2.6,4.685,4.685,0,0,0,.875-.106,4.3,4.3,0,0,1,.8-.106,2.7,2.7,0,0,1,2.253,1.034,11.155,11.155,0,0,1,1.3,2.412h.822L24.71,43.35c-.318-.636-1.484-.663-1.8-1.3-1.643-2.942-3.181-4.4-4.559-4.4Z"
          transform="translate(8.848 25.129)"/>
</svg>