<svg xmlns="http://www.w3.org/2000/svg" width="135" height="135" viewBox="0 0 135 135"><defs><style>.a{fill:#1a5a40;}</style></defs><path class="a" d="M24.029,110.974a61.478,61.478,0,1,1,43.48,18.015,61.276,61.276,0,0,1-43.48-18.015ZM0,67.5A67.484,67.484,0,1,0,19.767,19.764,67.36,67.36,0,0,0,0,67.5Z" transform="translate(0 0)"/><path class="a" d="M100.608,89.059c0-.333-.092-.684-.111-1.017-.037-.481-.037-.943-.111-1.406-.092-.721-.166-1.443-.3-2.164-.111-.684-.148-1.406-.3-2.09-.074-.3-.037-.592-.129-.888-.2-.7-.222-1.424-.37-2.127-.092-.444-.092-.906-.166-1.35-.111-.721-.166-1.443-.222-2.164a.9.9,0,0,0-.24-.518,11.574,11.574,0,0,0-.962-.943c-.333-.351-.7-.666-1.017-1.036-.481-.555-.943-1.11-1.369-1.7A10.1,10.1,0,0,1,93.653,68.1a11.6,11.6,0,0,1-.444-2.978v-1a3.706,3.706,0,0,0-.037-1.11,5.463,5.463,0,0,1-.111-1.091c-.037-.37-.092-.721-.129-1.091-.055-.629-.092-1.239-.129-1.868a.315.315,0,0,0-.018-.129c-.2-.407-.092-.888-.222-1.313-.111-.388-.037-.832-.166-1.2-.129-.351-.111-.721-.2-1.073-.111-.425-.222-.851-.3-1.295a10.079,10.079,0,0,0-.962-3.015,8.916,8.916,0,0,1-.888-3.7,5.044,5.044,0,0,0-.037-1.184,4.312,4.312,0,0,1-.074-1.609,3.538,3.538,0,0,0-.018-1.646.651.651,0,0,1,.055-.37c.019-.092.055-.2.074-.314.037-.98-.018-1.942.111-2.923a14.111,14.111,0,0,0,.019-1.979h0V35.894a11.3,11.3,0,0,0-.092-1.35c-.092-.721,0-1.461-.148-2.2-.092-.462-.037-.962-.166-1.406-.092-.3-.055-.592-.148-.888-.148-.425-.24-.851-.351-1.276a11.577,11.577,0,0,0-1.517-3.7c-1.054-1.628-2.053-3.293-3.2-4.884a24.233,24.233,0,0,0-3.071-3.663,4.575,4.575,0,0,0-1.2-.851,3.157,3.157,0,0,0-2.5-.074c-.61.2-.666.24-.629.851a9.561,9.561,0,0,0,.129,1.017,4.337,4.337,0,0,0,.148,1,20.161,20.161,0,0,0,1.7,3.33c.481.758.962,1.517,1.369,2.312.518,1.017.98,2.072,1.443,3.126.425,1.017.869,2.016,1.239,3.052.277.8.462,1.628.666,2.442a6.841,6.841,0,0,1,.259,1.831c0,.388.018.8,0,1.184a4,4,0,0,1-1.535,3.2,3.092,3.092,0,0,1-1,.555,6.417,6.417,0,0,1-.832.111c-.277.037-.536.111-.814.129-1.979.055-3.977-.019-5.957.111-1.5.111-3.034.037-4.532.019a37.688,37.688,0,0,1-4.569-.111,26.5,26.5,0,0,0-2.719-.148c-.037,0-.092.018-.129,0-.314-.2-.684-.092-1.017-.129-.37-.037-.721-.092-1.091-.129-.425-.019-.851-.074-1.276-.111-.925-.074-1.831-.166-2.756-.277-.555-.074-1.11-.092-1.683-.148a.657.657,0,0,1-.185-.037c-.444-.074-.888-.166-1.313-.222-.444-.074-.906-.074-1.35-.148-.777-.148-1.572-.351-2.349-.518a6.2,6.2,0,0,1-2.22-.943,12.155,12.155,0,0,1-1.831-1.554c-.518-.536-1.073-1.054-1.572-1.591-.407-.444-.758-.943-1.147-1.406-.462-.573-.962-1.11-1.406-1.7-.721-.943-1.424-1.924-2.127-2.886-.666-.925-1.295-1.868-2-2.756a12.462,12.462,0,0,0-1.979-2.423,10.681,10.681,0,0,0-2.978-1.72,9.644,9.644,0,0,0-3.071-.8c-.314-.222-.684-.092-1.017-.129a7.276,7.276,0,0,0-1.091-.111c-.758.019-1.517.056-2.275.129-.351.037-.7.166-1.054.2a5.07,5.07,0,0,0-1.387.444,6.069,6.069,0,0,0-2.22,1.628,5.932,5.932,0,0,0-.629.888,1.421,1.421,0,0,1-.906.629,5.794,5.794,0,0,1-2.867-.074,1.347,1.347,0,0,0-.758-.037,1.845,1.845,0,0,1-.888.111,12.374,12.374,0,0,0-1.665.148.414.414,0,0,0-.277.148,1.585,1.585,0,0,0-.074,1.868c.092.111.055.185.037.314a7.481,7.481,0,0,0,.333,3.126,5.377,5.377,0,0,0,2.238,2.96,1.035,1.035,0,0,1,.536.666,1.91,1.91,0,0,0,1.406,1.535,5.284,5.284,0,0,0,1.628.3c.943.074,1.905-.037,2.867.129a7.234,7.234,0,0,1,1.424.314,2,2,0,0,1,1.128.8c.5.851,1.073,1.646,1.646,2.442.851,1.221,1.757,2.423,2.608,3.663,1.609,2.368,3.237,4.717,4.606,7.214.74,1.35,1.5,2.7,2.109,4.125a7.844,7.844,0,0,1,.758,2.682,1.082,1.082,0,0,0,.222.518,27.559,27.559,0,0,1,2.146,3.33A19.98,19.98,0,0,1,39.211,64.7c.222.8.425,1.591.573,2.4.111.666.259,1.332.333,2,.129.925.166,1.85.259,2.756.092.777.037,1.554.129,2.331.129,1.313-.018,2.645.129,3.977.148,1.239-.037,2.516.129,3.792a21.189,21.189,0,0,1,.037,2.423.693.693,0,0,1-.259.555c-.536.518-1.054,1.054-1.572,1.591-.37.388-.74.8-1.091,1.221a2.467,2.467,0,0,0-.592,1.128,3.092,3.092,0,0,0-.019,1.091c.056.259.388.37.666.481.851.351,1.683.7,2.516,1.054.092.055.166.018.277.018a11.221,11.221,0,0,0,1.572-.3,21.954,21.954,0,0,0,3.071-.777c.5-.185.5-.222.721-.7a5.058,5.058,0,0,0,.37-1.276c.185-.888.407-1.776.555-2.682.166-.906.351-1.831.518-2.756.055-.314.074-.647.148-.943.185-.647.222-1.295.351-1.942.148-.647.148-1.313.3-1.961.185-.8.222-1.609.388-2.386.074-.37.037-.74.129-1.091a21.858,21.858,0,0,0,.37-2.2,6.715,6.715,0,0,0,.166-1.2,7.857,7.857,0,0,1,.222-1.11c.074-.425.074-.851.148-1.276.055-.37.2-.74.24-1.11.018-.259.129-.277.314-.277a18.238,18.238,0,0,0,2.46-.092l1.776-.277a25.085,25.085,0,0,0,2.645-.647,28.434,28.434,0,0,0,3.441-1.276c1.276-.518,2.516-1.147,3.755-1.739,1.036-.481,2.053-1.036,3.145-1.424.536-.185,1.091-.314,1.628-.5a13,13,0,0,1,2.2-.629,8.227,8.227,0,0,1,2.941.037,9.029,9.029,0,0,1,3.459,2,16.863,16.863,0,0,1,2.59,3.145,25.155,25.155,0,0,1,1.424,2.22,13.513,13.513,0,0,0,1.85,2.479c.629.666,1.332,1.258,2,1.887.037.019.055.055.092.092.444.37.888.74,1.35,1.091.444.37.943.7,1.35,1.11a5.069,5.069,0,0,1,1.628,2.053c.259.832.666,1.609,1,2.4l2.053,5.05c.277.666.592,1.313.869,1.979.185.425.351.832.536,1.258l-1.221.888-.518,1.961,1.7.925h2.164c.8,0,1.591.037,2.368,0a1.427,1.427,0,0,0,1.424-1.147,8.148,8.148,0,0,0,.129-1.35Z" transform="translate(9.974 13.469)"/></svg>