<svg xmlns="http://www.w3.org/2000/svg" width="135" height="135" viewBox="0 0 135 135"><defs><style>.a{fill:#1a5a40;}</style></defs><g transform="translate(0 -0.01)"><path class="a" d="M24.024,110.982A61.479,61.479,0,1,1,67.5,128.989a61.285,61.285,0,0,1-43.472-18.007ZM0,67.51A67.5,67.5,0,1,0,19.77,19.78,67.3,67.3,0,0,0,0,67.51Z"/><path class="a" d="M144.121,137.879c0-15.289-12.8-29-32.082-24.1-10.162,2.639-18.3,2.185-21.684-2.029-4.82-6.177-9.94-4.369-7-5.271,14.306-4.218,11.9-19.884,9.26-21.917-3.087-1.955-17.47,17.023-19.056,21.466a17.179,17.179,0,0,0-8.354,3.312c-2.861,2.188-9.493,10.395-5.8,13.03,3.992,4.443,10.166,7.759,16.413,7.3.229,2.861,1.283,13.932,9.493,16.568-1.955,3.767-4.894,7.759-10.391,8.661-4.447.676-4.447,3.541,3.989,3.09,4.447-.455,5.049-1.357,6.853-2.414,4.447-3.312,12.35-5.571,15.433-10.842-.225,1.5,2.041,3.09,3.09,3.541,9.792,3.312,10.624,3.767,11.977,5.271-.906,1.127-4,1.127-5.271,1.127-7.752-.451-15.965.225-17.1.9-6.173,3.541,7.075,3.316,9.563,3.316,8.136.451,6.853.6,13.707.6,10.169-.155,29.144,3.161,22.294-8.136,4.894,2.861,11.526,0,13.26-2.861C154.745,145.183,152.56,133.887,144.121,137.879Zm-72.974-24.1c-.676.828-1.73,2.639-3.09,2.639s-.673-1.357,0-2.185a7.4,7.4,0,0,1,3.77-2.484C73.11,111.522,71.827,112.65,71.147,113.777Z" transform="translate(-36.775 -53.217)"/></g></svg>