<svg xmlns="http://www.w3.org/2000/svg" width="135" height="135" viewBox="0 0 135 135"><defs><style>.a,.b{fill:#1a5a40;}.a{fill-rule:evenodd;}</style></defs><g transform="translate(0 0)"><path class="a" d="M15.928,36.229c.549-1.871,2.869-8.233.274-8.458-1.3.15-2.595.274-3.892.424.873-1.8,1.746-3.618,2.645-5.414-2.27-4.466.6-4.915,2.545-6.063,4.591-2.171,7.235-1.7,7.161,2.595,7.909-.848,10.5,16.342,19.985,17.64,8.782,1,15.669.7,22.5-2.445,4.765-2.695,9.007-9.656,13.573-13.8,5.339-5.14,11.028,6.412,5.564,8.184,5.714,1.1,3.643,12.225-1.672,14.845,2.67.9,2.969,3.493,1.672,4.591q-5.352,4.865-10.679,9.706c-2.944,7.784-10.5,20.983-20.359,20.808-1.672,2.869-2.52,6.437-3.243,9.306,1.073.8,2.121,1.572,3.194,2.37-3.243-.374-6.387-.5-8.757,1.123.5.6,1.023,1.2,1.522,1.8a6.4,6.4,0,0,0-4.865-.973,19.608,19.608,0,0,0-9.431,3.742c1.2-1.3,2.4-2.62,2.495-4.017-2.146-.724-5.838.249-9.032.7a108.13,108.13,0,0,0,15.12-4.017,33.41,33.41,0,0,0,1.522-10.13c-21.731-7.585-35-24.75-27.894-42.49Zm18.588,4.99C31.7,66.767,55.9,64.222,66.1,61.752,46.99,71.932,27.105,59.607,34.515,41.218ZM45.169,87.7l3.892-8.458,2.37.075-2.495,8.258Z" transform="translate(17.212 20.778)"/><path class="b" d="M24.013,110.963a61.495,61.495,0,1,1,43.487,18,61.244,61.244,0,0,1-43.487-18ZM0,67.5A67.5,67.5,0,1,0,19.769,19.769,67.289,67.289,0,0,0,0,67.5Z" transform="translate(0 0)"/></g></svg>