<svg xmlns="http://www.w3.org/2000/svg" width="135" height="135" viewBox="0 0 135 135"><defs><style>.a{fill:#1a5a40;}</style></defs><g transform="translate(0 0)"><path class="a" d="M24.021,110.971A61.489,61.489,0,1,1,67.5,128.981a61.3,61.3,0,0,1-43.484-18.01ZM0,67.5A67.5,67.5,0,1,0,19.771,19.769,67.322,67.322,0,0,0,0,67.5Z" transform="translate(0 0)"/><path class="a" d="M109.442,55.672c.844-.048,1.668-.1,2.493-.125-.4-1.448-.824-2.886-1.246-4.333a74.3,74.3,0,0,0-8.945-2.435c-2.809-.153-5.656-.3-8.494-.422q-3.394-2.919-6.826-5.829c-2.09-1.371-4.19-2.713-6.28-4.065A20.222,20.222,0,0,0,74.239,35.5c-4.007-1.572-8.024-3.145-12.032-4.688-8.868-2.56-20.574-6.145-28.742-.125v.125c-.134.259-.786,2.2-.824,2.109v.844c1.62,3.988,3.681,8.964,7.047,11.658,1.62,2.665,3.24,5.877,4.161,7.2.968.7,1.946,1.39,2.9,2.09-.23-.173-.451-.336-.681-.5l.192-.441c.6.01,4.851-.872,4.9-.738,2.991.623,5.6.575,8.092-1.371,2.4-3.538,2.819-7.277,2.243-11.485,1.093,3.614,1.323,5.858.2,9.491-2.79,4.583-4.506,5.436-9.788,5.762-2.771-.067-3.844.221-5.158-.719A127.377,127.377,0,0,0,55.63,65.221c.652,3.058,1.045,7.047,4.333,8.446-.1-1.39-.221-2.79-.345-4.18h.3a22.365,22.365,0,0,0,1,4.851A10.989,10.989,0,0,0,63.6,75.479c-.173-1-.623-1.985-.278-2.934.374,1.093.719,2.215,1.074,3.336.844.316.844.316,1.122.23,0-1.419,0-1.419.221-1.745A20.146,20.146,0,0,1,69.349,76.8a8.059,8.059,0,0,0,4.036,2.167c7.094,3.336,16.1,6.155,14.918,15.646-2.493,3.49-5.906-.47-7.651-2.589-.824-1.841-2.042-5.676-2.32-5.982-1.639,1.889-2.636,2.042-1.745,4.583.671.777,1.342,1.544,1.994,2.32-1.419-.949-2.991-2.138-3.288-3.959a12.687,12.687,0,0,0-3.94,4.007c.47,1.716,2.272,2.636,3.643,3.528-1.572-.422-2.713-1.591-4.132-1.889a11.059,11.059,0,0,0-.7,3.71c.47.4.949.8,1.39,1.189-.575-.1-1.141-.2-1.716-.278a7.4,7.4,0,0,1-2.79,3.691H71.8c-2.56.451-4.957,1.39-7.5,1.889a23.921,23.921,0,0,0-3.864,5.129c2.263-.546,4.257-2.263,6.73-2.09-3.691,1.093-6.749,1.591-7.075,5.647-.374.144-.748.3-1.15.451.077.374.125.748.173,1.141,3.355-1.467,7.171-1.486,10.738-2.435,7.344-3.058,7.344-3.058,7.545-2.962a10.291,10.291,0,0,0-.527,2.665c.5-.153,3.835-2.713,4.132-2.713-1.764,1.5-5.359,3.586-3.739,6.452.518-.671,1.62-2.013,2.541-2.013-1.371,1.419-2.263,1.917-2.512,3.72h.6c4.257-3.087,6.328-5.187,8.465-9.961a34.275,34.275,0,0,0,11.783-7.3c1.218-1.544,2.416-3.087,3.614-4.631,1.266-2.186,3.739-9.683,4.573-13.1,0,.1.01.2.01.3,1.189-2.215,2.311-3.931,2.311-6.471-.623-2.09-.623-2.09-.5-2.263.3.546.594,1.122.9,1.7.221-.872.422-1.745.623-2.589-.824-1.371.173-2.416.824-3.691-1.467-1.668-1.467-1.668-1.62-2.09.777.4,1.544.824,2.311,1.246a9.65,9.65,0,0,0,.652-3.835c-.4-.4-2.263-1.246-4.055-2.387.029-.1.048-.2.077-.268,1.39.393,2.761.824,4.132,1.246.748-3.01.652-6.9-2.589-8.044Z" transform="translate(-1.116 -0.734)"/></g></svg>