<svg xmlns="http://www.w3.org/2000/svg" width="179" height="89" viewBox="0 0 179 89"><g transform="translate(0 0)"><path d="M87.816,607.244h0l-.138.207-.028-.165.135-.241.03.2Zm-1.705,3.951h0l-.031-.1.121-.028-.089.123Zm-.118,1.125h0l-.163.039.057-.2.106.087v.076Zm-.591.853h-.09l.057-.073Zm-.4-.019h0l-.057.112.147-.314Zm-.192.389h0c.105-.021.192,0,.192.061Zm8.81,0c.479-4.463.8-8.228.991-11.33s.28-5.708.314-7.768q0-3.1-.109-5.069c-.084-1.279-.084-2.391-.057-3.274a1.2,1.2,0,0,1,0-.311v-.344a2.03,2.03,0,0,0-.859-1.51,5.265,5.265,0,0,0-1.363-.548,3.479,3.479,0,0,0-1.139-.012c-.112,0-.193.012-.251.012a1.117,1.117,0,0,0-.711.317c-.06.055-.06.111-.06.208-.085.317-.28,1.589-.651,3.813-.367,2.206-.856,4.8-1.45,7.722-.57,2.96-1.23,5.968-1.938,8.985a65.885,65.885,0,0,1-2.161,7.515l-.365.729.139.163-.251.221-.234.427-.135.3-.178.589-.136.316-.259.145.024.247-.163.138c-.091.15-.148.168-.148.15,0-.036,0,.058.03.265.027.163.088.247.147.247l-.03-.123a.345.345,0,0,0,.2.093c.145-.03.259-.147.425-.37l.148-.206.392-.443.2-.037.2-.395.4-.548.088-.134a.465.465,0,0,0-.058.335l-.03-.086a1.8,1.8,0,0,1-.192.494,1.437,1.437,0,0,1-.232.226l.027.208.027.247-.054.121v.07a4.719,4.719,0,0,1,.4-.424,5.987,5.987,0,0,0,.485-.536h-.087l.057-.205.118.09.283-.422.22-.411.317-.331v-.093l-.024-.111.079-.091v.091l.06-.28.711-1.42h-.091l.269-.681.048-.211.142-.313-.028-.2.057-.2.09-.085.136-.226a5.506,5.506,0,0,0,.546-1.4,11.092,11.092,0,0,1,.428-1.371l.591-2.733c.254-.742.518-1.482.711-2.221.222-.763.461-1.5.651-2.225-.057,2.776-.25,5.736-.53,8.922-1.658,11.092.506,19.035-2,29.574a16.639,16.639,0,0,1-.708,1.547,2.156,2.156,0,0,1-2.586,1.028c-.681-.286-1.4-.482-2.079-.793-1.7-.786-3.409-1.582-5-2.523-1.477-.856-2.9-1.791-4.343-2.706a17.245,17.245,0,0,1-2.707-1.754,27.26,27.26,0,0,0-2.755-2.583,37.479,37.479,0,0,1-4.353-4.129c-1.537-1.481-2.556-3.549-4.66-4.44a7.791,7.791,0,0,0,.735,2.059,50.383,50.383,0,0,0,12.29,12.814,70.994,70.994,0,0,0,6.74,4.449,43.852,43.852,0,0,0,6.764,3.42c2.64,1.091,3.214.226,4.265-1.133a12.1,12.1,0,0,0,.907-1.251c4.009-4.174,2.442-17.986,3.328-28.283Z" transform="translate(-55.695 -555.703)"/><path d="M150.847,50.435h0A93.562,93.562,0,0,0,158.175,60.8c3.114,3.9,5.869,8.09,9.7,11.4a6.069,6.069,0,0,1,.86,1.352c.021-.05.021.056-.033.092a1.778,1.778,0,0,1-.575.252,1.134,1.134,0,0,1-.563-.237c-4.007-2.455-7.853-5.131-11.965-7.351-4.142-2.228-7.659-5.258-11.549-7.777a40.342,40.342,0,0,1-6.525-4.669c-.517-.437-1.726-.437-1.88-.895-.458-1.313-2.157-.819-2.683-2.246-.369-1.01-1.967-1.607-3.08-2.335-.855-.562-.021-.989.2-1.15,1.594-1.112,3.075-2.394,4.57-3.556,2.623-2.029,4.918-4.37,7.355-6.559.957-.838,2.191-.785,2.319.354.313,2.513,1.907,4.507,2.882,6.759a46.85,46.85,0,0,0,3.649,6.209ZM38.289,25.67h0l-.1.012v-.069l.078-.115.081.073-.058.1Zm1.029-5.059h0l.228.137-.177.025-.051-.163Zm.021-.568h0l.265.417-.211-.052Zm-.045-.816h0l.075-.019-.051.105Zm-3.694,7.9h0l-.036-.2-.247.052-.12-.159.178-.04.077-.11.03.2.082.054.2.1.145.16-.311-.053ZM34.518,22.09h0l-.142-.328-.027-.162.289.01.03.3-.15.185Zm.342,3.287h0l-.057.194.117.1-.174.107c-.135.026-.2,0-.2-.054l-.117-.163.178-.04-.151-.258-.06.1-.024-.1.142-.189.12.06.189.073c.033.111-.024.171-.135.206V25.5l.168-.121Zm29.5,48.169h0l.093.107-.86.1.087-.2h.68Zm-.767,0h0l-.512.092-.511.059.433-.151h.59ZM49.841,73.8h-.181l.181-.054Zm2.717-.036h.43v.122l-.253.021Zm0,.143h0a.219.219,0,0,1,.177.057h-.09Zm-1.36,0h0l.43.092H51.45a.247.247,0,0,1-.135-.054c-.03,0-.054-.039-.117-.039ZM55.173,74h0l-.088.068c-.06,0-.093-.009-.093-.054,0,0,0-.014-.054-.014h.236Zm6.209.058h0l-.165.054A.25.25,0,0,1,61.381,74.062Zm-2.554.164h0a.576.576,0,0,0,.265.05h-.265Zm10.935-2.162v.06l.078.052-.175.069ZM164.163,7.8a16.967,16.967,0,0,0-.882,1.735,13.125,13.125,0,0,1-2.321,2.817c-2.707,3.121-5.178,6.42-8.086,9.4-2.086,2.115-3.947,4.412-6.341,6.182-.247.273-.223.163-.13.107.058-.015.07-.054.13-.107.667-.624,3.071-3.179,11.076-12.668C145.575,28.937,145.054,28.694,145.1,28.557c.477-2.556-.156-5.223.816-7.722a31.042,31.042,0,0,1,5.184-8.651,21.639,21.639,0,0,1,2.675-2.6,41.9,41.9,0,0,1,9.09-5.977c1.526-.785,2.774-2.19,4.7-2.273.4-.033.768-1.037,1.48-.4.061.033-.551.727-.8,1.129-.488.757-1.016,1.462-1.591,2.193C169.471.854,169.579.72,169.693.6c-.258-.226-.575-.645-.833-.614-2.741.217-5.011,1.848-7.466,2.92a42.045,42.045,0,0,0-10.237,6.423,23.183,23.183,0,0,0-8.369,14.436,20.41,20.41,0,0,0-.109,7.424c.09.428.274.853-.343,1.34-2.527,2.067-4.873,4.325-7.433,6.393-2.524,2.044-4.774,4.448-7.725,5.951-.422.2-.843.633-1.245.621-.557-.041-1.42-.255-1.606-.674-.723-1.351-2.053-1.88-3.189-2.647-2.608-1.845-5.445-3.431-8.052-5.318-6.195-4.447-12.346-9.016-19.211-12.427-1.648-.852-3.206-1.918-4.876-2.7-1.97-.954-3.944-1.934-5.887-2.962a49.961,49.961,0,0,0-8.2-3.532c-3.513-1.038-6.88-2.5-10.513-2.982-2.365-.306-4.66-1.262-7.067-.553-1.312-.867-2.806-.3-4.223-.6-1.51-.267-2.99.662-4.717.151-1.33-.365-3.014.27-4.512.636-1.188.3-2.331.971-3.519,1.153a23.87,23.87,0,0,0-9.3,3.413,17.678,17.678,0,0,1-3.128,1.88c-3.427,1.287-5.93,3.868-8.616,6.153a49.649,49.649,0,0,0-6.7,6.528c-.908,1.1-1.958,2.192-2.867,3.345a42.725,42.725,0,0,1-2.723,3.655,27.338,27.338,0,0,0-2.638,3.048,77,77,0,0,0-4.283,7.3c-.117.188-.057.475-.084.7.28-.06.74-.06.821-.221.484-.79.656-1.972,1.336-2.418,1.528-.974,2.322-2.5,3.264-3.877,2.551-3.817,5.815-7.023,8.853-10.443a20.91,20.91,0,0,1,2.894-2.81c2.779-2.193,5.556-4.424,8.486-6.442a59.73,59.73,0,0,1,6.75-4.037c1.552-.825,1.826-1.411,3.438-1.96a3.8,3.8,0,0,0-.168.366c-.395.975-.765,1.935-1.135,2.862l.027.073.061.257-.145.4.024.184-.058.093v.105a.214.214,0,0,0-.159.108l-.034,1.029.166.366-.034.124c0-.016.034-.016.034-.057l.2-.012.081-.044a.755.755,0,0,0-.027.41l.027.252c.028.058,0,.11-.051.11l-.174.11.174-.038.16.455-.277-.052a.407.407,0,0,1-.15-.163l.093-.2-.06-.259-.034-.2L34.206,23a.435.435,0,0,1-.027.219c-.033.024-.033.107,0,.214l.027.2a.28.28,0,0,1-.027.151c-.033.012-.033.066-.033.126V24.4l.093-.034-.034-.161.169-.149.292.052-.056.292-.431.171.2.621a.758.758,0,0,1-.027.27v.278c.027.06.051.122.084.122a.176.176,0,0,1,.06.126l.084-.012-.059.11.15.446a4.264,4.264,0,0,0,.253.426l.088-.2.075.076.147.246-.171.044.024.162a4.151,4.151,0,0,0,.428.364c.342.28.545.4.517.31l-.057.106a.73.73,0,0,0,.676.168,1.482,1.482,0,0,0,.515-.244l.078-.03a1.31,1.31,0,0,0,.712-.762l.313-.495.081-.114c.177-.034.256-.2.289-.507,0-.312.021-.462.021-.365l-.021-.11.111.069a4.539,4.539,0,0,0,.256-.8c.054-.366.081-.569.081-.623l-.028-.1.2-.494-.024-.182-.12-.065-.193-.18c.048-.061.077-.119.048-.131a.235.235,0,0,1,.083-.152l.2.054L39.338,23v-.092a.282.282,0,0,0-.135-.161h.114l-.024-.205-.034-.091-.177.039c.034-.108.093-.4.153-.768l.1.181.03.167.024.2a2.427,2.427,0,0,0,.211-.564,2.857,2.857,0,0,0,.135-.783l.024-.48-.024-.181-.108-.638.074-.108c0-.054-.02-.1-.1-.054l.081-.116v-.087l-.028-.2-.112-.621-.286-.058-.084-.431.217.123-.217-.217-.036-.2a4.715,4.715,0,0,0-.737-1.591l-.024-.03c.144-.056.277-.109.427-.151,4.506-1.475,10.745-1.086,15.426-1.706,2.545.784,5.229.834,7.8,1.253,2.641.422,5.108,1.393,7.7,1.816a11.186,11.186,0,0,1,2.894.918c3.652,1.705,7.316,3.407,10.92,5.235,3.724,1.889,7.437,3.865,11.039,5.971,2.951,1.748,5.791,3.716,8.655,5.6,1.161.784,2.265,1.707,3.466,2.459,1.243.772,2.183,2.136,3.824,2.189a4.278,4.278,0,0,0,3.146,2.3,1.494,1.494,0,0,1,.89.853,2.187,2.187,0,0,0,1.7,1.174c.768.2,1.873.826,1.982,1.408.205,1.192,1.448.28,1.621,1.132.22,1.031,1.02,1.206,1.935,1.262a1.462,1.462,0,0,1,.165,1.034,3.8,3.8,0,0,1-1.14.947c-1.162.826-2.349,1.572-3.516,2.356a22.51,22.51,0,0,1-3.712,2.646c-2.133.88-3.634,2.669-5.625,3.574-3.74,1.685-5.785,3.042-9.5,4.914-2.067,1.006-4.287,2.026-6.639,3-2.386.974-4.885,1.91-7.488,2.748-2.617.879-15.184,3.743-16.18,3.889-.989.112-2.133.243-3.336.326-1.29.111-2.449.206-3.576.316-1.144.05-1.848.107-2.133.107l-.367.1h-.74c-.181,0-.259-.044-.259-.059h-.758V73.7l-.177-.069V73.7l-1.195-.054-.078.054-.18-.054c-.448-.015-.93-.051-1.42-.051a11.987,11.987,0,0,1-1.384-.017h-.091l-.5-.061v.061l-.088-.061-.25-.085-.948.024-.758-.06a1.455,1.455,0,0,1-.511-.062h-.517l-.256-.121a12.442,12.442,0,0,1-2.1-.312l.178.069.312.262h-.083l.162.054h-.078l.165.1a3.583,3.583,0,0,0,.68.2,5.944,5.944,0,0,1,.857.113v-.059a1.535,1.535,0,0,0,.767.252c.4.021.68.059.842.059h.181l-.093-.089.175.089h-.081c.334.018.644.068.953.112.31.009.68.072,1.084.107l-.169-.054h.169c0,.018.145.077.49.077.336.033.617.063.836.083v-.05a7.3,7.3,0,0,0,1.029.05l.171-.083c.06.063.252.083.587.139h.4a.866.866,0,0,0,.37-.076c.334.02.677.05,1.017.05s.713,0,1.107-.029c-.559.056-1.107.092-1.606.107H55.416a36.075,36.075,0,0,1-7.286-.416,21.553,21.553,0,0,1-2.3-.5,2.42,2.42,0,0,0-.283.061.347.347,0,0,0-.231.337c0,.332.4.62,1.218.872a22.365,22.365,0,0,0,3.3.669c1.384.175,2.972.314,4.7.427,1.766.113,3.573.131,5.439.131,1.476-.017,2.956-.074,4.494-.17,1.47-.074,3.028-.258,4.624-.439,0,0,6.546-1.046,6.889-1.076a4.894,4.894,0,0,0,1.2-.259,101.328,101.328,0,0,0,10.886-2.555A93.787,93.787,0,0,0,102.5,65.99c2.072-.838,3.577-1.48,3.712-1.542,2.5-1.323,8.318-5.559,10.9-7.362,2.632-1.845,5.363-3.6,7.965-5.536.521-.366.68-.445,1.2-.107,7.178,5.056,14.208,10.276,21.6,15.015,4.822,3.158,9.732,6.2,14.617,9.224,1.741,1.094,3.681,1.931,5.559,2.864a39.533,39.533,0,0,1,5.587,2.813,4.188,4.188,0,0,0,2.8.984c.741-.172,1.23-1.4,1.823-2.175.142-.16.259-.365.4-.526.5-.568.481-.989-.138-1.569-1.68-1.664-3.3-3.4-4.856-5.17-2.654-2.976-5.232-6.022-7.834-9a50.069,50.069,0,0,1-4.256-4.816c-2.13-3.067-4.437-6.025-6.609-9.023a54.472,54.472,0,0,1-7.463-13.82c-2.1-2.015-.777-3.785.7-5.179A90.131,90.131,0,0,0,157.18,20.9c3.52-4.326,6.468-9.126,9.62-13.758a22.9,22.9,0,0,0,1.985-3.538c.222-.535.252-1.176-4.626,4.189Z" transform="translate(-0.01 0.013)"/><path d="M829.282,744.461h0c-.214.886-.453,2-.678,3.367-.222,1.327-.431,2.869-.621,4.612-.2,1.719-.338,3.535-.459,5.446v2.535c-.371,1.1-.771,2.222-1.169,3.427-.425,1.225-.9,2.446-1.453,3.706a11.6,11.6,0,0,1-.872,1.742,4.558,4.558,0,0,1-.973,1.272c.03.056-.079.056-.284-.052-.226-.1-.425-.525-.624-1.221a21,21,0,0,1-.618-3.6c-.1-1.224-.121-2.481-.1-3.7.06-1.2.154-2.368.254-3.481a28.143,28.143,0,0,1,.521-2.906,42.683,42.683,0,0,1,1.7-6.131,32.127,32.127,0,0,1,1.706-3.761,20.1,20.1,0,0,1,1.48-2.222c1.852-2.276,2.677-.641,2.677-.533a7.482,7.482,0,0,0-.491,1.5Zm.937-6.315a8.324,8.324,0,0,0-4.364.327c-.238.046,0,0-.609.24-.03,0-.03,0-.054.022-.022.041-.052.041-.112.054a7.98,7.98,0,0,0-1.79,1.838,20.383,20.383,0,0,0-2.472,4.087,48.01,48.01,0,0,0-2.363,6.047,32.076,32.076,0,0,0-1.4,7.5,37.745,37.745,0,0,0,.4,8.237,16.667,16.667,0,0,0,1.233,4.392,5.034,5.034,0,0,0,.793,1.621,3.453,3.453,0,0,0,1.679,1.305l.112-.021v.109c.283.09.566.207.819.316a3.648,3.648,0,0,0,.826.337l.194-.02c-.194.02-.314,0-.338-.054l-.109-.1.075-.109.114-.024.2-.03-.024-.093.192-.015c.2-.048.314-.048.314.015l.178-.114-.121-.072.406-.06.4-.085c-.063.022-.091.055-.091.085s-.033.06-.09.06l-.253.247-.141-.075a.6.6,0,0,1-.347.253l-.19.018.091.051a2.04,2.04,0,0,0,1.3-.792,5.13,5.13,0,0,0,2.224-2.614c.416-1.1.787-2.092,1.152-2.881a9.735,9.735,0,0,0,.175,1.087,2.819,2.819,0,0,0,.371,1.061l.564,1.124a2.74,2.74,0,0,0,1.169.841.362.362,0,0,0,.094.271,1.991,1.991,0,0,0,.19.263l.205-.026c.133.06.162.06.112.06-.079-.034-.112,0-.112.054a2.51,2.51,0,0,0,1.275-.2v-.115a2.6,2.6,0,0,0,.431-.464c.679-.393,1.076-.738,1.191-1.079a9.859,9.859,0,0,1,.4-.919,9.533,9.533,0,0,0,.573-1.552c.139-.468.25-.929.4-1.35.343-1.731.594-3.274.771-4.673l.076-.7.057-.307c0-.1-.057-.124-.111-.154a.186.186,0,0,1-.139-.147.327.327,0,0,0,.277-.133V761l.033-.425.06-.316a.379.379,0,0,1-.154-.167c0-.05.032-.114.094-.114s.087-.06.087-.123l.111-.618-.054-.2.079-.105c.051-.1.051-.151-.024-.209a.258.258,0,0,1-.028-.286c-.027-.086,0-.121.052-.121.088-.02.114-.054.088-.111a.121.121,0,0,0-.036-.2c-.051-.057-.075-.075,0-.112-.024-.058,0-.115.094-.115.063,0,.091-.054.091-.109-.091,0-.121,0-.121-.093l-.063-.189a.85.85,0,0,1,.184-.292.135.135,0,0,0,.079-.139.436.436,0,0,0-.314-.309.423.423,0,0,0-.449.024l-.084.112.117-.013a.292.292,0,0,0-.21.125,1.7,1.7,0,0,0-.217.433l-.06.306-.174.248.053.188-.286.4h-.024a3,3,0,0,0-.111.281l-.054.123.108.075c-.054.058-.078.115-.03.152.03.02.03.084-.024.165l-.2.111v-.112a3.408,3.408,0,0,0-.222.575c-.088.278-.181.579-.262.853l.081-.028-.057.308-.078.033-.054.205-.087.111c0,.085,0,.145-.033.163a.3.3,0,0,0-.024.148l-.145.43.027.109-.054.314-.142.316v.109c-.247.8-.561,1.649-.856,2.571a24.259,24.259,0,0,1-1.028,2.711,3.816,3.816,0,0,1-.078-.782,6.691,6.691,0,0,0-.055-.738,48.166,48.166,0,0,1,.371-5.928c.227-1.933.392-3.6.5-5.073.178-1.908.344-3.5.549-4.777.193-1.3.367-2.37.536-3.261.178-.851.28-1.555.371-2.07.024-.166,1.169-4.335.428-5.046a9.246,9.246,0,0,0-4.1-2.361Z" transform="translate(-776.697 -702.308)"/><path d="M1197.092,664.57h0c0-.135,0-.2.1-.2Zm10.639-5.148a.308.308,0,0,0-.256-.262.817.817,0,0,0-.4-.033h-.108l.024.2c-.193.03-.362.217-.5.588l-.206.553-.082.187c-.057-.052-.115-.07-.144-.109l-.06.153c-.03-.169.027-.293.177-.32v.088h.108l-.054-.306-.084.109-.028-.087-.06.225v-.123l-.09.247-.027-.2-.162.217.138.26.142.2-.142.428-.084.109h-.084v.112l-.148-.371v-.058A14.479,14.479,0,0,0,1205,662.7h.118l-.178.219-.139.423a.591.591,0,0,0-.141.319l-.121.534-.31.669c.03.06,0,.073-.028.073-.03.036-.048.057-.03.112h.088l-.088.124-.051.31-.112.51a35.55,35.55,0,0,1-1.572,4.015c-.423.8-.739,1.226-.9,1.263-.211.018-.346-.15-.4-.536a11.27,11.27,0,0,1,0-2.741c.111-1.259.217-2.594.367-4.016.137-1.469.281-2.856.4-4.188.135-1.358.192-2.371.223-3.11.172-2.2.37-4.053.567-5.536s.4-2.708.576-3.708c.19-.962.308-1.7.4-2.225a3.262,3.262,0,0,0,.054-1.275,1.013,1.013,0,0,0-.311-.4,6.258,6.258,0,0,0-.768-.718,4.308,4.308,0,0,0-1.055-.63,2.363,2.363,0,0,0-1.314-.135c-.652.081-1.332,1.917-2.011,5.378-.681,3.523-1.052,9.091-1.111,16.819v-.07l-.088.188-.03-.188-.16.218-.06.222.22.177-.317.654-.132-.282c-.054.135-.142.31-.238.494a8.489,8.489,0,0,1-.444.929l-.024.306-.117-.078-.25.429a.652.652,0,0,0-.155.334l-.193.552-.292.247-.564.883-.31.465c-.518.69-1.139,1.617-1.914,2.731a5.145,5.145,0,0,1-.929,1.139c-.089-.169-.256-.223-.518-.169a.137.137,0,0,0-.132.058c-.03.058-.09.058-.151.084l-.163.229.1.078a.423.423,0,0,1-.277.145.826.826,0,0,1-.371.169.382.382,0,0,0-.19.058.985.985,0,0,1-.316-.705,20.224,20.224,0,0,1-.172-3.909c.06-1.5.172-3.018.335-4.591.153-1.54.31-3.021.492-4.41.189-1.423.343-2.628.446-3.59.235-2.33.485-4.3.713-5.926.262-1.649.482-3,.684-4.018.2-1.058.344-1.9.447-2.483a3.637,3.637,0,0,0,.093-1.371,6.27,6.27,0,0,0-1.146-1.07,4.755,4.755,0,0,0-1.108-.633,2.334,2.334,0,0,0-1.267-.169c-.546.073-1.146,1.6-1.826,4.507a81.956,81.956,0,0,0-1.447,13.656c-.117,2.322-.171,4.69-.2,7.054a41.8,41.8,0,0,0,.566,7.287,4.978,4.978,0,0,0,.308,1.091,4.545,4.545,0,0,0,.337.645l-.473.054-1.164.313-.862.243-.826.019-1.155.208c-.551.074-1.172.163-1.946.314-.763.108-1.526.165-2.295.2a16.67,16.67,0,0,1-2.157-.073,3.57,3.57,0,0,1-1.736-.554,32.816,32.816,0,0,0,2.55-4.224c.795-1.513,1.476-3.017,2.083-4.5a37.263,37.263,0,0,0,1.528-4.3c.432-1.4.8-2.62,1.079-3.677q1.026-3.807,1.658-6.5t.934-4.5a28.411,28.411,0,0,0,.4-3.017,10.318,10.318,0,0,0-.06-1.959,1.445,1.445,0,0,0-.74-1.1,3.691,3.691,0,0,0-2.074-.073,3.936,3.936,0,0,0-1.423.431,1.49,1.49,0,0,0-.512.533,8.237,8.237,0,0,1-1.555,1.429,6.448,6.448,0,0,1-2.372.88,5.7,5.7,0,0,1-2.046-.141,5.578,5.578,0,0,1-1.757-.9,9.217,9.217,0,0,1-1.423-1.326l-.06.015a.168.168,0,0,1-.085.039c-.024-.039-.048-.039-.078,0-.516.535-.923.958-1.2,1.272-.251.3-.49.543-.682.787l-.121-.058.027.167c-.16.2-.25.274-.19.274a4.377,4.377,0,0,0-.741,1.166c-.088.26-.088.431-.027.521a11.9,11.9,0,0,0,3.463,2.261,10.931,10.931,0,0,0,3.811.648,9.708,9.708,0,0,0,4.744-1.517l-1.266,4.476c.023-.028.054-.051.054-.088-.518,2.683-1.2,5.387-2.026,8.154-.656,2.294-1.395,4.565-2.194,6.9a35.509,35.509,0,0,1-2.894,6.3l-.48.776-.094.017c-.159.28-.276.536-.4.723a1.167,1.167,0,0,0-.082.761,2.115,2.115,0,0,0,.266.889l.248.37.828.76a6.36,6.36,0,0,0,3.5.979,25.275,25.275,0,0,0,2.984-.3c1.107-.221,2.158-.443,3.19-.591a13.753,13.753,0,0,0,2.865-.768l1.341-.5c.058-.045.082-.064.082-.115l.075-.123.214.052.1-.022.661-.277.391-.093a.1.1,0,0,0,.111-.109.226.226,0,0,1,.157-.118c.054-.033.1,0,.1.022,0,.041.028.051.112.041l.1-.114.581-.245c.239.151.467.3.684.429a2.858,2.858,0,0,0,1.82.237,5.371,5.371,0,0,0,2.536-1.164,10.018,10.018,0,0,0,1.79-2.109,15.652,15.652,0,0,0,1.2-2.339c.314-.772.594-1.4.847-1.915l.548-1.112-.033-.081-.028-.2c0-.057.028-.09.119-.057.054.03.079,0,.079-.093l.2-.619.09-.12a8.665,8.665,0,0,0,.076,1.2c.053.4.114.773.178,1.079.059.4.135.938.247,1.606a7.423,7.423,0,0,0,.551,1.811,3.287,3.287,0,0,0,1.129,1.39,2.314,2.314,0,0,0,1.932.353,3.485,3.485,0,0,0,2.387-1.48,10.428,10.428,0,0,0,1.423-2.878,21.082,21.082,0,0,0,.708-3.048,15.612,15.612,0,0,1,.425-2.11l.234-1.058a.288.288,0,0,0-.053-.148c-.055-.021-.055-.054-.086-.124.058-.063.111-.1.194-.063.054,0,.115,0,.084-.087l.031-.524.144-.426-.051-.163a.148.148,0,0,1,.081-.153c.082,0,.105-.012.082-.066l.2-.673-.151-.277.205-.04a.313.313,0,0,0-.081-.192c-.03-.063-.064-.124-.094-.178a.245.245,0,0,1,.175-.274.243.243,0,0,0,.135-.29c-.054,0-.081,0-.105-.079l-.03-.212c.166-.219.259-.306.286-.219-.091,0-.12-.037-.12-.087l-.031-.208a.545.545,0,0,1,.205-.331.365.365,0,0,0,.11-.223Z" transform="translate(-1109.341 -610.396)"/></g></svg>