<svg xmlns="http://www.w3.org/2000/svg" xmlns:xlink="http://www.w3.org/1999/xlink" width="213" height="76" viewBox="0 0 213 76"><defs><style>.a{fill:#cecbcc;}.a,.b,.d,.e{fill-rule:evenodd;}.b{fill:#fefefe;}.c{fill:#00502b;}.d{fill:url(#a);}.e{fill:url(#b);}</style><linearGradient id="a" y1="0.5" x2="1" y2="0.5" gradientUnits="objectBoundingBox"><stop offset="0" stop-color="#00582e"/><stop offset="0.451" stop-color="#007238"/><stop offset="1" stop-color="#008d42"/></linearGradient><linearGradient id="b" x1="0.5" y1="1" x2="0.5" y2="0" xlink:href="#a"/></defs><g transform="translate(0 0)"><path class="a" d="M127.6,34.295l-.176.248a18.963,18.963,0,0,0-1.606,2.809,44.222,44.222,0,0,0-1.684,4.335l0,.01c-.73,2.129-1.385,4.29-2.008,6.452-.56,2.183-1.127,4.361-1.728,6.53q-.8,2.959-1.634,5.9V60.6a74.616,74.616,0,0,1-3.787,10.8c.75.382,1.485.788,2.106,1.139a23.237,23.237,0,0,1,3.119,2.039c1.257,1.017,2.42,2.47,1.818,4.237l-.915,2.7-2.457-1.333a27.031,27.031,0,0,0-4.115-1.6c-1.03-.344-2.061-.66-3.089-.99-4.737,6.341-13.426,9.494-20.981,9.425a18.064,18.064,0,0,1-10.126-2.957c-2.432-1.695-4.41-4.325-4.371-7.474.061-5.169,5.148-7.835,9.37-8.93l.019,0c.642-.159,1.3-.291,1.969-.392a6.207,6.207,0,0,1-.6-.477l-.013-.013a7.777,7.777,0,0,1-1.238-1.415,26.408,26.408,0,0,1-15.2,6.694,2.75,2.75,0,0,1,.589.974,2.472,2.472,0,0,1-.364,2.434c-3.675,4.878-10.046,7.358-15.945,7.177-13.1-.4-20.516-18.181-25.138-28.6q-.556-1.231-1.075-2.48-.472,1.646-.934,3.293c-.648,2.307-1.278,4.623-1.838,6.95a22.407,22.407,0,0,0-.666,3.441,3.061,3.061,0,0,0,.017.666,6.55,6.55,0,0,0,.141.658l.01.029.006.029a8.063,8.063,0,0,1,.224,1.271l.128,1.432-1.15.817a11.15,11.15,0,0,1-2.638,1.333,18.935,18.935,0,0,1-3.05.817l-.019,0a18.573,18.573,0,0,1-3.178.288,6.667,6.667,0,0,1-4.236-1.209,4.929,4.929,0,0,1-1.728-4.2v-.059a16.055,16.055,0,0,1,.442-2.722c.268-1.163.62-2.31.993-3.441q2.218-6.69,4.387-13.389,2.12-6.517,3.9-13.14,1.764-6.645,2.925-13.438a4.594,4.594,0,0,0,.066-.875,4.361,4.361,0,0,0-.1-.781l0-.019a10.433,10.433,0,0,0-.327-1.12l-.668-1.966,1.773-1a20.269,20.269,0,0,1,4.351-1.9,17.139,17.139,0,0,1,3.859-.686c.178-.013.354-.019.534-.024h.074a7.142,7.142,0,0,1,1.737.226,5,5,0,0,1,2.5,1.446l.024.029.026.029a5.221,5.221,0,0,1,1.226,2.669,7.906,7.906,0,0,1,.026,2.461l-.006.047-.01.046c-.121.654-.266,1.314-.409,1.964l-.006.025c-.281,1.222-.58,2.438-.878,3.656l-.006.019c-.409,1.621-.826,3.241-1.261,4.854-.383,1.458-.783,2.9-1.206,4.349,1.825-1.264,3.627-2.572,5.387-3.931a53.81,53.81,0,0,0,5.649-4.96A19.612,19.612,0,0,0,47.5,21.557a8.288,8.288,0,0,0,1.031-3.13c.019-.344.026-.686.023-1.028a6.273,6.273,0,0,0-.089-.9l-.4-2.291,2.2-.543c.979-.242,1.978-.472,2.975-.624a12.971,12.971,0,0,1,2-.2h.019a5.993,5.993,0,0,1,4.656,1.9,6.47,6.47,0,0,1,1.406,4.8,13.31,13.31,0,0,1-1.546,5.166,24.187,24.187,0,0,1-4.119,5.537l-.013.013-.013.017A44.2,44.2,0,0,1,51.8,33.7q-2.045,1.671-4.157,3.257c-1.293.984-2.581,1.977-3.857,2.99l-.01.01a29.653,29.653,0,0,0-2.831,2.482l-.013.013a8.007,8.007,0,0,0-.547.6c1.043,2.407,2.166,4.787,3.408,7.089,1.6,2.979,3.174,5.973,4.8,8.942C49.6,60.93,50.62,62.771,51.68,64.58a22.1,22.1,0,0,0,1.831,2.869A17.716,17.716,0,0,0,55.9,69.634a17.409,17.409,0,0,0,5.02,2.323,6.837,6.837,0,0,0,2.211.2c.3-.013.589-.032.881-.061-6.874-.8-11.916-4.908-11.808-13.01v-.017a30.948,30.948,0,0,1,1.123-7.649A31.391,31.391,0,0,1,56.285,44.3a30.8,30.8,0,0,1,4.593-6.188,31.47,31.47,0,0,1,5.6-5.022l.013-.01a25.136,25.136,0,0,1,6.291-3.15,20.971,20.971,0,0,1,5.645-1.076,6.837,6.837,0,0,1-3.784-8.021,9.609,9.609,0,0,1,8.944-7.465c4.564,0,7.5,4.024,6.5,8.55a9.794,9.794,0,0,1-7.126,7.254,8.819,8.819,0,0,1,4.27,2.141,8.767,8.767,0,0,1,2.4,7.375,9.191,9.191,0,0,1-.3,1.705,30.266,30.266,0,0,1,4.842-5.579,24.563,24.563,0,0,1,6.608-4.29,19.485,19.485,0,0,1,7.651-1.624h.023a16.666,16.666,0,0,1,4.282.552l.029.006a14.513,14.513,0,0,1,2.569.976,10.159,10.159,0,0,1,1.576-.731,9.469,9.469,0,0,1,3.3-.591,11.885,11.885,0,0,1,3.191.454l.026.006a15.7,15.7,0,0,1,3.191,1.353l1.255.692,1.039-.447a31.68,31.68,0,0,1,4.406-1.574l.019-.006a14.89,14.89,0,0,1,3.689-.549h.023a5.787,5.787,0,0,1,4.151,1.634,5.644,5.644,0,0,1,1.546,4.212,27.511,27.511,0,0,1,3.666-3.522,9.992,9.992,0,0,1,5.757-2.388h.422a4.718,4.718,0,0,1,4.089,1.989c.01.013.017.024.026.036l.9-.345a25.532,25.532,0,0,1,3.987-1.2,17.256,17.256,0,0,1,3.542-.408h.026a6.8,6.8,0,0,1,3.558.883,4.913,4.913,0,0,1,2.129,2.679l.006.017a7.486,7.486,0,0,1,.308,2.9,15.03,15.03,0,0,1-.455,2.595c-.189.715-.387,1.423-.593,2.131q-1.317,4.528-2.7,9.04c-.727,2.368-1.442,4.751-2.1,7.142-.18.67-.377,1.4-.541,2.147a30.932,30.932,0,0,0,2.939-3.322,59.831,59.831,0,0,0,3.987-5.8,64.832,64.832,0,0,0,3.151-5.913,39.385,39.385,0,0,0,1.962-5.068l.006-.013a17.389,17.389,0,0,0,.769-3.793,3.618,3.618,0,0,0-.017-.725l-.006-.032,0-.032a1.677,1.677,0,0,0-.111-.451l-.983-2.444,2.438-.833a20.183,20.183,0,0,1,2.2-.6l.029-.006c.741-.15,1.494-.278,2.244-.357a17.715,17.715,0,0,1,2.125-.131h.055l.056,0a8.737,8.737,0,0,1,2.712.556,5.28,5.28,0,0,1,2.579,2.064,6.092,6.092,0,0,1,.836,3.711l0,.029a15.674,15.674,0,0,1-.466,2.829c-.249,1.011-.551,2.01-.88,3q-1.137,3.361-2.293,6.721-1.037,3.039-1.875,6.139a30.65,30.65,0,0,0-.736,3.437c.547-.486,1.1-.976,1.642-1.471s1.1-1,1.668-1.466a3.976,3.976,0,0,1,2.231-1.114l.086-.006h.086a2.764,2.764,0,0,1,2.746,2.725,16.184,16.184,0,0,0,1.328,3.15,7.406,7.406,0,0,0,1.881,2.265,3.9,3.9,0,0,0,2.125.793,3.125,3.125,0,0,0,2.176-.728l.013-.01a3.957,3.957,0,0,0,.9-2.505,3.149,3.149,0,0,0-.176-1.241,6.631,6.631,0,0,0-.8-1.5q-.688-.956-1.45-1.843c-.625-.715-1.228-1.446-1.825-2.186l-.036-.047-.032-.046a13.409,13.409,0,0,1-2.149-4.365,13.927,13.927,0,0,1-.518-4.839v-.017a14.381,14.381,0,0,1,4.976-10.056,18.585,18.585,0,0,1,4.5-2.879,23.789,23.789,0,0,1,5.056-1.624l.019,0a26.808,26.808,0,0,1,5.15-.516,8,8,0,0,1,3.742.706l.026.013.026.013a4.579,4.579,0,0,1,2.27,3.4l.038.245-.006.245a6.469,6.469,0,0,1-1.085,3.3l-.017.024a10.469,10.469,0,0,1-2.864,2.725l-1.687,1.156-1.383-1.529a4.577,4.577,0,0,0-1.2-.993,1.957,1.957,0,0,0-.806-.229,2.024,2.024,0,0,0-1.307.362,2.915,2.915,0,0,0-.5,1.615,2.238,2.238,0,0,0,.157.915,8.136,8.136,0,0,0,.842,1.471c.9,1.19,1.779,2.4,2.615,3.643a18.738,18.738,0,0,1,2.208,4.385,14.388,14.388,0,0,1,.708,5.5v.029l0,.029a17.168,17.168,0,0,1-1.955,6.8,18.917,18.917,0,0,1-4.305,5.371,20.045,20.045,0,0,1-5.848,3.544l-.017.006a19,19,0,0,1-6.765,1.288h-.013a13.235,13.235,0,0,1-4.2-.692,12.008,12.008,0,0,1-3.83-2.058,9.954,9.954,0,0,1-2.047-2.173c-.364.338-.741.664-1.123.98l-.01.006a19.851,19.851,0,0,1-3.815,2.461,9.886,9.886,0,0,1-4.148,1.065h-.026a7.464,7.464,0,0,1-6.141-2.748,8.486,8.486,0,0,1-1.637-4.137,33.939,33.939,0,0,1-3.651,3.552,15.34,15.34,0,0,1-9.652,3.957h-.033a8.713,8.713,0,0,1-4.052-.9,6.3,6.3,0,0,1-2.658-2.614,8.873,8.873,0,0,1-.976-3.169v-.017l0-.019a16.469,16.469,0,0,1-.042-3.074,25.381,25.381,0,0,1,.652-3.829q.556-2.368,1.232-4.7c.5-1.726,1-3.45,1.521-5.166.515-1.692,1.008-3.389,1.5-5.083.256-.872.495-1.748.723-2.626-.341.6-.711,1.18-1.1,1.742a30.59,30.59,0,0,1-2.845,3.512L149.371,48.7l-1.566-2.9a1.468,1.468,0,0,0-.351-.46l-.006-.006a3.161,3.161,0,0,0-1.753.721,13.27,13.27,0,0,0-2.615,2.813,42.6,42.6,0,0,0-2.932,4.737c-1.088,2-2.11,4.047-3.089,6.106q-1.637,3.466-3.21,6.957a11.185,11.185,0,0,1-1.588,2.666l-.019.023a6.772,6.772,0,0,1-2.73,1.954,9.693,9.693,0,0,1-3.608.6,21.148,21.148,0,0,1-2.567-.18c-1.025-.125-2.055-.291-3.07-.484l-3.015-.571,1.272-2.869c1.419-3.2,2.755-6.443,3.962-9.732,1.042-2.856,2.02-5.741,2.883-8.661.679-2.3,1.311-4.63,1.812-6.978a32.661,32.661,0,0,0,.727-4.58,14.867,14.867,0,0,0,0-2.147,4.7,4.7,0,0,0-.268-1.333l-.023-.059L127.6,34.3ZM98.222,67.176c.754.069,1.511.153,2.262.252h.023c.57.079,1.136.167,1.7.261.5-1.33.96-2.685,1.392-4.036a24.383,24.383,0,0,1-5.383,3.52l0,0Zm-11.8-21.542a23.479,23.479,0,0,1-2.179,2.24l-.01.006a32.365,32.365,0,0,1-5.364,3.865l-.01.006A41.569,41.569,0,0,1,72.1,54.861l-.019.006-.019.006c-.606.21-1.2.447-1.783.709l-.017.006-.01.006a20.68,20.68,0,0,0-1.992.99,8.041,8.041,0,0,0-1.412,1l-.019.019c-.019.017-.042.038-.066.061a7.577,7.577,0,0,0-.006,1.464l.006.019v.019a2,2,0,0,0,.157.67,4.513,4.513,0,0,0,1.712,1.65,6.429,6.429,0,0,0,2.553.363,14.885,14.885,0,0,0,8.643-2.82,18.954,18.954,0,0,0,3.914-3.539,30.827,30.827,0,0,1,1.583-7.1q.485-1.4,1.088-2.754l0-.006Zm-16.282-.185.141-.075a16.062,16.062,0,0,0,3.05-2.058l.01-.01a8.154,8.154,0,0,0,1.572-1.79,9.718,9.718,0,0,0,.872-1.882l.006-.023a3.291,3.291,0,0,0,.206-1.2s0-.01,0-.013c-.073-.01-.151-.013-.206-.017a3.011,3.011,0,0,0-1.911.928l-.017.017a13.588,13.588,0,0,0-2.68,3.813c-.377.746-.721,1.517-1.043,2.3v0ZM87.691,75.536c-.006.01-.017.023-.023.036A8.245,8.245,0,0,0,90.247,76a15.091,15.091,0,0,0,5.623-1.059c.18-.069.359-.144.541-.224q-1.037-.057-2.055-.082a25.949,25.949,0,0,0-4.59.238,5.933,5.933,0,0,0-2.074.66h0ZM98.307,56.251a5.051,5.051,0,0,0,.934-.519,16.521,16.521,0,0,0,2.778-2.523,40.838,40.838,0,0,0,3.149-3.957c1.1-1.571,2.123-3.195,3.089-4.86.777-1.373,1.517-2.77,2.208-4.191a3.649,3.649,0,0,0-.534-.418,5.157,5.157,0,0,0-1.186-.562,3.382,3.382,0,0,0-3.223.5l-.013.01a10.1,10.1,0,0,0-2.433,2.372,21.471,21.471,0,0,0-2.258,3.872,29.481,29.481,0,0,0-2.506,9.978c0,.075-.006.189-.006.3h0Z" transform="translate(-8.204 -11.014)"/><path class="b" d="M117.805,21.788l-.175.247a18.5,18.5,0,0,0-1.6,2.8,43.935,43.935,0,0,0-1.678,4.321v.009c-.728,2.121-1.383,4.275-2,6.432-.558,2.174-1.126,4.347-1.721,6.511q-.8,2.948-1.629,5.886l0,.014a74.094,74.094,0,0,1-3.774,10.769c.749.382,1.479.786,2.1,1.137a23.2,23.2,0,0,1,3.108,2.033c1.255,1.012,2.411,2.461,1.813,4.224l-.911,2.691-2.45-1.33a27.184,27.184,0,0,0-4.1-1.6c-1.025-.343-2.055-.659-3.081-.986-4.723,6.319-13.381,9.463-20.913,9.394a18.016,18.016,0,0,1-10.092-2.948C68.27,69.7,66.3,67.08,66.334,63.942c.061-5.152,5.131-7.808,9.34-8.9l.017-.005c.642-.161,1.3-.289,1.963-.391a6.363,6.363,0,0,1-.6-.477l-.013-.013A7.86,7.86,0,0,1,75.8,52.747,26.357,26.357,0,0,1,60.654,59.42a2.69,2.69,0,0,1,.585.971,2.48,2.48,0,0,1-.36,2.428c-3.666,4.862-10.014,7.333-15.895,7.154-13.055-.394-20.449-18.124-25.058-28.51q-.554-1.227-1.072-2.471-.47,1.642-.932,3.281c-.645,2.3-1.274,4.608-1.831,6.929a22.29,22.29,0,0,0-.663,3.429,3.117,3.117,0,0,0,.015.664,6.184,6.184,0,0,0,.139.656l.009.029.008.029a7.731,7.731,0,0,1,.222,1.267l.129,1.426-1.148.814a11.124,11.124,0,0,1-2.629,1.329,18.708,18.708,0,0,1-3.043.814l-.02,0a18.619,18.619,0,0,1-3.169.285,6.646,6.646,0,0,1-4.224-1.207A4.905,4.905,0,0,1,0,54.561l0-.029V54.5A16.287,16.287,0,0,1,.441,51.79c.266-1.157.616-2.3.989-3.429Q3.638,41.695,5.8,35.013q2.11-6.5,3.89-13.1,1.76-6.621,2.914-13.395a4.552,4.552,0,0,0,.065-.872,4.346,4.346,0,0,0-.1-.78l0-.018a9.971,9.971,0,0,0-.327-1.116l-.665-1.959,1.767-1A20.089,20.089,0,0,1,17.68.886,17.109,17.109,0,0,1,21.528.2c.178-.014.354-.022.533-.022h.073A7.082,7.082,0,0,1,23.864.4a4.959,4.959,0,0,1,2.495,1.443l.026.028.027.029a5.227,5.227,0,0,1,1.222,2.66,7.928,7.928,0,0,1,.027,2.452l-.006.047-.01.047c-.121.651-.266,1.307-.409,1.956l-.006.027c-.281,1.217-.579,2.43-.875,3.642l-.005.018q-.611,2.426-1.259,4.84-.571,2.177-1.2,4.337c1.82-1.262,3.618-2.563,5.369-3.919a53.79,53.79,0,0,0,5.631-4.943A19.626,19.626,0,0,0,37.953,9.1a8.253,8.253,0,0,0,1.03-3.12c.02-.342.026-.686.022-1.027a6.238,6.238,0,0,0-.089-.9l-.4-2.282,2.194-.539c.976-.241,1.974-.47,2.966-.624a12.935,12.935,0,0,1,1.994-.2h.02A5.985,5.985,0,0,1,50.33,2.3a6.445,6.445,0,0,1,1.4,4.786,13.173,13.173,0,0,1-1.544,5.15,24.19,24.19,0,0,1-4.1,5.519l-.013.014-.014.015A44.612,44.612,0,0,1,42.244,21.2Q40.206,22.871,38.1,24.45c-1.289.98-2.572,1.969-3.844,2.978l-.009.009a29.631,29.631,0,0,0-2.82,2.475l-.012.011a8.127,8.127,0,0,0-.547.6c1.039,2.4,2.16,4.769,3.4,7.066,1.6,2.97,3.164,5.954,4.783,8.913,1,1.834,2.02,3.668,3.08,5.469a21.7,21.7,0,0,0,1.827,2.858,17.441,17.441,0,0,0,2.383,2.178,17.35,17.35,0,0,0,5,2.315,6.943,6.943,0,0,0,2.206.2c.3-.011.588-.032.88-.059-6.852-.8-11.877-4.893-11.77-12.969v-.015a30.8,30.8,0,0,1,1.121-7.624,31.125,31.125,0,0,1,2.947-7.093A30.743,30.743,0,0,1,51.307,25.6a31.4,31.4,0,0,1,5.585-5.006l.013-.009a25.114,25.114,0,0,1,6.272-3.141A20.986,20.986,0,0,1,68.8,16.368a6.816,6.816,0,0,1-3.774-8A9.576,9.576,0,0,1,73.946.932c4.551,0,7.472,4.012,6.478,8.524a9.761,9.761,0,0,1-7.1,7.231,8.806,8.806,0,0,1,4.255,2.131,8.731,8.731,0,0,1,2.392,7.35,9.407,9.407,0,0,1-.294,1.7A30.3,30.3,0,0,1,84.5,22.3a24.429,24.429,0,0,1,6.585-4.274,19.433,19.433,0,0,1,7.625-1.618h.024a16.723,16.723,0,0,1,4.268.548l.031.006a14.791,14.791,0,0,1,2.56.972,10,10,0,0,1,1.572-.73,9.478,9.478,0,0,1,3.288-.59,11.853,11.853,0,0,1,3.179.454l.027.008a15.847,15.847,0,0,1,3.181,1.348l1.252.691,1.036-.446a32.3,32.3,0,0,1,4.394-1.571l.018-.005a14.815,14.815,0,0,1,3.678-.547h.026a5.764,5.764,0,0,1,4.137,1.629,5.645,5.645,0,0,1,1.542,4.2,27.391,27.391,0,0,1,3.654-3.51,9.968,9.968,0,0,1,5.737-2.382h.419a4.7,4.7,0,0,1,4.074,1.984c.009.011.017.024.026.034l.895-.345a25.547,25.547,0,0,1,3.974-1.2,17.24,17.24,0,0,1,3.53-.407h.027a6.779,6.779,0,0,1,3.546.881,4.9,4.9,0,0,1,2.123,2.67l.005.017A7.406,7.406,0,0,1,161.237,23a14.761,14.761,0,0,1-.452,2.586c-.189.711-.383,1.42-.593,2.124q-1.313,4.515-2.689,9.01c-.723,2.363-1.436,4.734-2.089,7.118-.179.666-.374,1.4-.539,2.14A30.709,30.709,0,0,0,157.8,42.67a59.3,59.3,0,0,0,3.973-5.786,64.255,64.255,0,0,0,3.141-5.894,39.193,39.193,0,0,0,1.955-5.05l.005-.014a17.267,17.267,0,0,0,.768-3.782,3.885,3.885,0,0,0-.017-.721l-.005-.033-.005-.034a1.56,1.56,0,0,0-.111-.449l-.981-2.438,2.432-.83a19.376,19.376,0,0,1,2.2-.6l.028-.008c.74-.149,1.488-.277,2.239-.354a18.13,18.13,0,0,1,2.119-.129h.055l.055,0a8.631,8.631,0,0,1,2.705.554,5.259,5.259,0,0,1,2.569,2.059,6.1,6.1,0,0,1,.833,3.7l0,.029a15.919,15.919,0,0,1-.463,2.819c-.248,1.008-.549,2-.88,2.992q-1.133,3.353-2.284,6.7-1.033,3.028-1.87,6.119a31.019,31.019,0,0,0-.734,3.425c.547-.486,1.094-.972,1.636-1.467s1.094-1,1.661-1.463a3.991,3.991,0,0,1,2.224-1.111l.086-.008h.084a2.756,2.756,0,0,1,2.737,2.717,16.391,16.391,0,0,0,1.324,3.139,7.365,7.365,0,0,0,1.873,2.256,3.866,3.866,0,0,0,2.12.789,3.108,3.108,0,0,0,2.167-.725l.012-.01a3.939,3.939,0,0,0,.893-2.5,3.1,3.1,0,0,0-.175-1.236,6.77,6.77,0,0,0-.8-1.5c-.457-.635-.937-1.248-1.448-1.836-.621-.712-1.223-1.444-1.82-2.178l-.037-.045-.033-.046a13.353,13.353,0,0,1-2.142-4.349,13.969,13.969,0,0,1-.519-4.823v-.017a14.329,14.329,0,0,1,4.96-10.025,18.446,18.446,0,0,1,4.491-2.867,23.781,23.781,0,0,1,5.039-1.62l.019,0a26.653,26.653,0,0,1,5.136-.516,7.979,7.979,0,0,1,3.73.7l.026.013.026.014a4.564,4.564,0,0,1,2.262,3.39l.038.243-.008.245a6.436,6.436,0,0,1-1.08,3.285l-.014.024a10.448,10.448,0,0,1-2.856,2.717L205.456,27.3l-1.378-1.524a4.586,4.586,0,0,0-1.2-.991,1.911,1.911,0,0,0-.8-.228,2.005,2.005,0,0,0-1.3.359,2.9,2.9,0,0,0-.5,1.611,2.219,2.219,0,0,0,.157.911,7.953,7.953,0,0,0,.84,1.464q1.355,1.778,2.608,3.629a18.743,18.743,0,0,1,2.2,4.371,14.324,14.324,0,0,1,.705,5.482v.031l0,.031a17.1,17.1,0,0,1-1.95,6.774,18.81,18.81,0,0,1-4.291,5.355,19.98,19.98,0,0,1-5.831,3.532l-.017.006a18.874,18.874,0,0,1-6.742,1.283h-.013a13.137,13.137,0,0,1-4.183-.692,11.931,11.931,0,0,1-3.817-2.052,9.918,9.918,0,0,1-2.04-2.166q-.546.5-1.122.975l-.009.008a19.665,19.665,0,0,1-3.8,2.452,9.78,9.78,0,0,1-4.134,1.06h-.026a7.437,7.437,0,0,1-6.123-2.74,8.5,8.5,0,0,1-1.634-4.122,34.163,34.163,0,0,1-3.637,3.538,15.3,15.3,0,0,1-9.62,3.945h-.033a8.683,8.683,0,0,1-4.04-.895A6.263,6.263,0,0,1,141.07,56.1a8.893,8.893,0,0,1-.974-3.159v-.017l0-.018a16.7,16.7,0,0,1-.045-3.065,25.41,25.41,0,0,1,.649-3.818q.556-2.357,1.228-4.684c.5-1.718,1-3.437,1.514-5.147.514-1.686,1-3.377,1.5-5.068q.38-1.3.722-2.617c-.34.6-.708,1.175-1.1,1.734a30.529,30.529,0,0,1-2.836,3.5l-2.231,2.373-1.559-2.888a1.431,1.431,0,0,0-.349-.457l-.006-.008a3.122,3.122,0,0,0-1.747.72,13.241,13.241,0,0,0-2.606,2.8A42.524,42.524,0,0,0,130.3,41c-1.085,2-2.1,4.035-3.079,6.088q-1.631,3.452-3.2,6.934a11.251,11.251,0,0,1-1.585,2.657l-.019.022a6.764,6.764,0,0,1-2.721,1.947,9.7,9.7,0,0,1-3.6.6,21.521,21.521,0,0,1-2.56-.177c-1.022-.125-2.046-.292-3.059-.483l-3-.57,1.269-2.86c1.415-3.191,2.746-6.423,3.95-9.7,1.036-2.846,2.015-5.722,2.871-8.634.677-2.291,1.306-4.616,1.807-6.955a32.985,32.985,0,0,0,.727-4.565,14.6,14.6,0,0,0,0-2.141,4.717,4.717,0,0,0-.267-1.33l-.024-.059ZM88.524,54.563q1.127.1,2.254.252H90.8q.851.119,1.7.26c.5-1.325.957-2.677,1.388-4.022a24.332,24.332,0,0,1-5.363,3.508ZM76.757,33.092a23.653,23.653,0,0,1-2.172,2.234l-.01.008a32.2,32.2,0,0,1-5.346,3.852l-.009.005a41.583,41.583,0,0,1-6.728,3.1l-.019.008-.02.006c-.6.208-1.2.446-1.778.706l-.017.006-.011.005a20.69,20.69,0,0,0-1.986.986,8,8,0,0,0-1.407,1l-.02.019c-.019.017-.042.038-.065.061a7.512,7.512,0,0,0-.006,1.458l0,.019,0,.022a1.933,1.933,0,0,0,.158.668,4.483,4.483,0,0,0,1.707,1.644,6.443,6.443,0,0,0,2.546.362,14.878,14.878,0,0,0,8.616-2.81,19.094,19.094,0,0,0,3.9-3.529,31.1,31.1,0,0,1,1.576-7.076q.485-1.4,1.084-2.744Zm-16.23-.186c.045-.025.091-.05.138-.074a16.37,16.37,0,0,0,3.041-2.05l.012-.009a8.239,8.239,0,0,0,1.567-1.785,9.658,9.658,0,0,0,.869-1.876l.006-.022a3.284,3.284,0,0,0,.2-1.192c0-.005,0-.009,0-.014-.072-.009-.151-.014-.208-.017a3.007,3.007,0,0,0-1.9.924l-.017.018a13.442,13.442,0,0,0-2.671,3.8c-.376.743-.719,1.513-1.038,2.3ZM78.028,62.9c-.005.01-.017.023-.022.036a8.248,8.248,0,0,0,2.571.432,15.084,15.084,0,0,0,5.6-1.054c.178-.07.358-.145.538-.227-.689-.04-1.372-.066-2.046-.082a25.657,25.657,0,0,0-4.575.238,5.858,5.858,0,0,0-2.069.656ZM88.61,43.673a5.251,5.251,0,0,0,.93-.516,16.524,16.524,0,0,0,2.771-2.513A41.036,41.036,0,0,0,95.45,36.7c1.1-1.566,2.117-3.186,3.077-4.846.776-1.366,1.513-2.761,2.2-4.18a4.035,4.035,0,0,0-.53-.418,5.2,5.2,0,0,0-1.182-.559,3.366,3.366,0,0,0-3.217.494l-.014.009a10.126,10.126,0,0,0-2.425,2.363,21.22,21.22,0,0,0-2.248,3.861,29.323,29.323,0,0,0-2.5,9.946c0,.076-.008.189-.005.3Z" transform="translate(0.009 -0.18)"/><path class="c" d="M58.545,73.356c-1.607-1.646-8.727-15.244-10.088-17.773s-2.682-5.321-3.973-8.39a5.961,5.961,0,0,1,1.542-2.217A32.882,32.882,0,0,1,49.078,42.3q1.825-1.446,3.89-3.011c1.389-1.046,2.743-2.1,4.079-3.194a42.41,42.41,0,0,0,3.614-3.24,21.73,21.73,0,0,0,3.694-4.943,10.609,10.609,0,0,0,1.274-4.159,3.99,3.99,0,0,0-.8-2.989,3.678,3.678,0,0,0-2.886-1.08,11.373,11.373,0,0,0-1.63.173c-.735.116-1.652.311-2.777.587a8.8,8.8,0,0,1,.127,1.275c.005.437,0,.862-.028,1.276a10.588,10.588,0,0,1-1.328,4.127,21.821,21.821,0,0,1-3.451,4.492,56.275,56.275,0,0,1-5.887,5.172q-3.607,2.793-8.634,6.138c-.491.334-.937.655-1.349.964s-.8.62-1.193.967C36.4,43,36.982,41.127,37.53,39.244q.847-2.845,1.542-5.482c.475-1.759.886-3.356,1.251-4.8s.644-2.653.865-3.608.342-1.584.395-1.874A5.272,5.272,0,0,0,41.56,21.8a2.708,2.708,0,0,0-.641-1.425,2.585,2.585,0,0,0-1.334-.759,4.813,4.813,0,0,0-1.622-.136,14.631,14.631,0,0,0-3.358.6,17.793,17.793,0,0,0-3.832,1.679,13.726,13.726,0,0,1,.4,1.379,6.878,6.878,0,0,1,.162,1.241,7.308,7.308,0,0,1-.095,1.379q-1.186,6.981-2.967,13.629T24.349,52.6q-2.133,6.585-4.38,13.356c-.422,1.265-.728,2.333-.932,3.219a13.676,13.676,0,0,0-.376,2.3,2.44,2.44,0,0,0,.805,2.14,4.431,4.431,0,0,0,2.759.689A16.537,16.537,0,0,0,25,74.048a16.073,16.073,0,0,0,2.662-.712,8.837,8.837,0,0,0,2.07-1.033,5.388,5.388,0,0,0-.153-.862,7.606,7.606,0,0,1-.2-.944,5.377,5.377,0,0,1-.04-1.229,26.011,26.011,0,0,1,.725-3.85q.65-2.688,1.855-7.01c.806-2.872,1.811-6.344,3-10.379a43.331,43.331,0,0,0,1.363,4.162c.6,1.584,1.289,3.275,2.1,5.056,4.2,9.465,11.316,26.72,22.962,27.072,3.855.117,10.165-1.2,13.939-6.2.365-.48-5,1.377-8.334.36-5.3-1.618-7.056-3.736-8.392-5.111ZM90.213,20.207c2.964,0,4.825,2.476,4.155,5.528a7.183,7.183,0,0,1-6.592,5.526c-2.967,0-4.825-2.473-4.153-5.526A7.178,7.178,0,0,1,90.213,20.207ZM191.8,35.817a15.735,15.735,0,0,0-1.863.115c-.676.07-1.353.185-2.032.322a16.981,16.981,0,0,0-1.936.529,4.037,4.037,0,0,1,.28,1.149,6.183,6.183,0,0,1,.033,1.2,19.62,19.62,0,0,1-.874,4.343,41.919,41.919,0,0,1-2.079,5.379,67.256,67.256,0,0,1-3.272,6.137,61.551,61.551,0,0,1-4.146,6.033,30.816,30.816,0,0,1-3.713,4.069,4.952,4.952,0,0,1-2.633,1.484,1.023,1.023,0,0,1-.98-.564,2.469,2.469,0,0,1-.175-1.229,28.511,28.511,0,0,1,.97-4.793q.843-3.068,2.112-7.194t2.681-8.977c.185-.632.379-1.322.574-2.057a12.357,12.357,0,0,0,.377-2.149,4.881,4.881,0,0,0-.2-1.908,2.468,2.468,0,0,0-1.094-1.356,4.521,4.521,0,0,0-2.343-.529,14.969,14.969,0,0,0-3.051.357,23.179,23.179,0,0,0-3.614,1.092,5.158,5.158,0,0,1,.422,1.7,10.046,10.046,0,0,1,.014,1.816,22.261,22.261,0,0,1-.583,3.356c-.326,1.356-.717,2.861-1.195,4.506s-.974,3.342-1.5,5.09-1.027,3.461-1.5,5.116-.874,3.182-1.2,4.561a22.723,22.723,0,0,0-.587,3.436,14.037,14.037,0,0,0,.037,2.6,6.292,6.292,0,0,0,.7,2.276,3.827,3.827,0,0,0,1.659,1.61,6.372,6.372,0,0,0,2.963.619q4.054-.015,8.138-3.4a44.782,44.782,0,0,0,8.372-9.908c-.23.92-.433,1.8-.6,2.656a20.293,20.293,0,0,0-.355,2.654q-.234,3.724,1.2,5.551a5.089,5.089,0,0,0,4.268,1.828,7.508,7.508,0,0,0,3.15-.827,17.39,17.39,0,0,0,3.339-2.161,22.2,22.2,0,0,0,3.027-3c.114-.135.222-.269.332-.4a6.529,6.529,0,0,0,.594,1.922,7.538,7.538,0,0,0,2.147,2.656,9.579,9.579,0,0,0,3.085,1.656,10.875,10.875,0,0,0,3.458.574,16.519,16.519,0,0,0,5.919-1.127,17.672,17.672,0,0,0,5.146-3.114A16.313,16.313,0,0,0,219,64.836a14.5,14.5,0,0,0,1.662-5.782,11.7,11.7,0,0,0-.569-4.516,16.287,16.287,0,0,0-1.912-3.792q-1.2-1.777-2.556-3.552a10.544,10.544,0,0,1-1.14-2,4.785,4.785,0,0,1-.336-2,5.059,5.059,0,0,1,1.15-3.148,3.989,3.989,0,0,1,3.027-1.126,4.139,4.139,0,0,1,1.867.483,6.772,6.772,0,0,1,1.887,1.517,8.136,8.136,0,0,0,2.2-2.058,3.94,3.94,0,0,0,.681-2.012,2.123,2.123,0,0,0-1.041-1.632,5.8,5.8,0,0,0-2.64-.437,24.37,24.37,0,0,0-4.7.471,21.513,21.513,0,0,0-4.544,1.46,16.033,16.033,0,0,0-3.909,2.5,12.156,12.156,0,0,0-2.833,3.585,11.97,11.97,0,0,0-1.289,4.744,11.439,11.439,0,0,0,.427,3.966,10.859,10.859,0,0,0,1.751,3.552c.6.736,1.188,1.447,1.767,2.114s1.117,1.356,1.6,2.023a9.12,9.12,0,0,1,1.1,2.068,5.6,5.6,0,0,1,.327,2.275,6.064,6.064,0,0,1-1.675,4.148,5.383,5.383,0,0,1-3.855,1.368,6.2,6.2,0,0,1-3.477-1.286,9.717,9.717,0,0,1-2.5-2.987,18.945,18.945,0,0,1-1.636-3.971l0-.029q.042-.621-.36-.62a2.364,2.364,0,0,0-.9.574c-.449.369-.972.839-1.579,1.391s-1.247,1.127-1.9,1.7-1.278,1.067-1.866,1.493a4.711,4.711,0,0,1-1.458.772,5.229,5.229,0,0,1-.41-1.2,6,6,0,0,1-.128-1.769,29.552,29.552,0,0,1,.989-5.447c.535-1.988,1.167-4.081,1.917-6.275s1.514-4.425,2.281-6.689c.336-1,.608-1.931.823-2.793a13.7,13.7,0,0,0,.395-2.378,3.621,3.621,0,0,0-.433-2.2,2.862,2.862,0,0,0-1.422-1.126,6.32,6.32,0,0,0-1.982-.4Zm-33.17-.07a7.631,7.631,0,0,0-4.357,1.885,29.772,29.772,0,0,0-4.951,5.17,86.026,86.026,0,0,0-5.433,7.908c.745-2.323,1.383-4.449,1.924-6.391a27.318,27.318,0,0,0,.983-4.989,3.275,3.275,0,0,0-.823-2.584,3.4,3.4,0,0,0-2.494-.931,12.508,12.508,0,0,0-3.094.473,30.123,30.123,0,0,0-4.075,1.458,7.222,7.222,0,0,1,.433,2.044,17.425,17.425,0,0,1,0,2.505,36.759,36.759,0,0,1-.777,4.92q-.659,3.085-1.854,7.136t-2.924,8.781q-1.742,4.74-4.011,9.849c1.091.206,2.053.357,2.906.459a19.337,19.337,0,0,0,2.281.163,7.387,7.387,0,0,0,2.731-.437,4.4,4.4,0,0,0,1.786-1.265,8.939,8.939,0,0,0,1.234-2.091q1.648-3.638,3.228-6.989,1.6-3.361,3.14-6.205a45.538,45.538,0,0,1,3.095-4.989,15.442,15.442,0,0,1,3.106-3.31,5.307,5.307,0,0,1,3.163-1.2,2.248,2.248,0,0,1,1.366.448,3.7,3.7,0,0,1,1.066,1.275,27.768,27.768,0,0,0,2.605-3.217,18.346,18.346,0,0,0,1.853-3.31,10.581,10.581,0,0,0,.82-3.264,3.767,3.767,0,0,0-.464-2.4,2.39,2.39,0,0,0-2.129-.908h-.335ZM118.19,76.784a59.554,59.554,0,0,0,4.788-12.673q.77-2.724,1.624-5.863t1.721-6.5c.741-2.587,1.426-4.77,2.05-6.586a47.023,47.023,0,0,1,1.781-4.574,21.081,21.081,0,0,1,1.822-3.184,13.47,13.47,0,0,0-2.7-1.149,9.507,9.507,0,0,0-2.557-.368,7.121,7.121,0,0,0-2.489.448,7.743,7.743,0,0,0-2.254,1.276,12.122,12.122,0,0,0-3.3-1.46,14.406,14.406,0,0,0-3.677-.47,17.065,17.065,0,0,0-6.721,1.425,22.047,22.047,0,0,0-5.947,3.86,28.053,28.053,0,0,0-4.8,5.667A31.027,31.027,0,0,0,94.19,53.47a28.329,28.329,0,0,0-1.5,7.041c-.852,1.737-7.079,8.2-14.9,7.991a7.826,7.826,0,0,1-3.577-.632,6.906,6.906,0,0,1-2.648-2.54,4.081,4.081,0,0,1-.5-1.713,10.457,10.457,0,0,1,.029-2.286,2.336,2.336,0,0,1,.84-1.358,10.44,10.44,0,0,1,1.839-1.311A23.764,23.764,0,0,1,76,57.561c.749-.332,1.4-.587,1.975-.781a39.1,39.1,0,0,0,6.349-2.921A29.7,29.7,0,0,0,89.277,50.3a17.964,17.964,0,0,0,3.274-3.816,8.31,8.31,0,0,0,1.308-3.7c.192-2.356-.348-4.137-1.63-5.344s-3.318-1.826-6.135-1.826a18.471,18.471,0,0,0-5.917.977,22.782,22.782,0,0,0-5.687,2.849,29.034,29.034,0,0,0-5.183,4.655,28.686,28.686,0,0,0-7.993,19.239c-.1,7.6,5.125,10.619,11.956,10.619,7.863,0,13.951-2.519,19.636-8.573.024.12.052.239.081.358a6.438,6.438,0,0,0,1.894,3.38,5.587,5.587,0,0,0,3.782,1.252,12.12,12.12,0,0,0,4.925-1.139,22.317,22.317,0,0,0,5.566-3.7,44.825,44.825,0,0,0,6.1-6.747Q113.85,64.056,112.618,68c-.837,2.643-1.622,4.85-2.378,6.645-1.092-.231-2.25-.427-3.491-.6s-2.507-.287-3.8-.368-2.572-.136-3.835-.136a28.2,28.2,0,0,0-6.592.676c-13.1,3.4-7.535,14.352,4.548,14.465,7.814.071,16.206-3.538,19.927-9.826,2.093.716,7.115,2.141,9.256,3.3.466-1.377-6.747-4.932-8.07-5.371ZM72.964,53.539a42.845,42.845,0,0,1,2.766-7.252,15.591,15.591,0,0,1,3.2-4.5,5.206,5.206,0,0,1,3.5-1.553,2.613,2.613,0,0,1,1.837.62,2.521,2.521,0,0,1,.737,1.632,5.541,5.541,0,0,1-.326,2.229,12.124,12.124,0,0,1-1.1,2.379,10.544,10.544,0,0,1-2.033,2.345,18.72,18.72,0,0,1-3.509,2.378c-.86.448-1.657.874-2.4,1.3a10.469,10.469,0,0,0-2,1.448,7.375,7.375,0,0,0-1.559,2.08c.268-.977.486-1.736.644-2.276s.235-.816.235-.828Zm19.4,24.729c2.028-3.024,13.4-1.73,16.638-1.2-.074.116-.153.228-.231.34s-.165.219-.249.327c-5.3,6.661-19.927,6.148-16.156.529Zm12.02-15.214a1.624,1.624,0,0,1-1.434-.769,3.676,3.676,0,0,1-.44-2.265A31.909,31.909,0,0,1,105.225,49.2a23.472,23.472,0,0,1,2.524-4.322,12.416,12.416,0,0,1,3.032-2.931,5.672,5.672,0,0,1,5.226-.771,7.509,7.509,0,0,1,1.743.828,5.435,5.435,0,0,1,1.3,1.172,2.629,2.629,0,0,1,.58,1.332c-.836,1.816-1.771,3.621-2.786,5.4s-2.085,3.448-3.2,5.034a43.441,43.441,0,0,1-3.33,4.184A18.839,18.839,0,0,1,107.134,62,5.113,5.113,0,0,1,104.381,63.054Z" transform="translate(-16.26 -16.985)"/><path class="d" d="M46.781,29.32l-.017,0h-.014a13.625,13.625,0,0,0-3.121.556h0l-.008,0a15.348,15.348,0,0,0-2.837,1.164h0c.056.2.107.4.151.594h0a7.811,7.811,0,0,1,.19,1.445h0a8.534,8.534,0,0,1-.1,1.6h0l0,.014q-1.177,6.93-2.991,13.726h0q-1.8,6.683-3.94,13.265h0q-2.17,6.685-4.383,13.355h0c-.34,1.021-.661,2.064-.9,3.116h0v.011a12.355,12.355,0,0,0-.349,2.094h0a1.409,1.409,0,0,0,.4,1.218h0a1.745,1.745,0,0,0,.627.293h0a1.852,1.852,0,0,1-.147-.9h0a12.246,12.246,0,0,1,.348-2.094h0v-.013c.244-1.052.563-2.093.9-3.115h0q2.212-6.672,4.381-13.356h0q2.139-6.576,3.942-13.265h0Q40.715,42.241,41.9,35.3h0l0-.014a8.44,8.44,0,0,0,.1-1.6h0a8.075,8.075,0,0,0-.189-1.447h0c-.043-.2-.1-.4-.149-.592h0A15.317,15.317,0,0,1,44.5,30.491h0l.009,0a13.756,13.756,0,0,1,3.123-.556h.014l.017,0a3.823,3.823,0,0,1,1.276.108h0l.01,0,.013,0,.046.01a1.437,1.437,0,0,0-.134-.181h0a1.525,1.525,0,0,0-.792-.438h0l-.014,0-.013,0a3.681,3.681,0,0,0-.951-.122h0c-.107,0-.215,0-.322.013Zm22.425.37c-.592.093-1.184.215-1.775.35h0c.009.132.017.264.023.4h0v.028c0,.454,0,.908-.032,1.362h0v.019a11.764,11.764,0,0,1-1.457,4.564h0a23.026,23.026,0,0,1-3.625,4.725h0a57.55,57.55,0,0,1-6,5.272h0c-2.811,2.176-5.738,4.215-8.691,6.177h0q-.663.449-1.3.931h0l-.015.011c-.388.28-.755.587-1.115.9h0l-.884.779.333,1.281a41.773,41.773,0,0,0,1.33,4.048h0q.953,2.528,2.07,4.994h0c3.115,7.01,8.262,19.509,15.868,24.392h0c-7.123-5.246-11.994-17.048-14.988-23.786h0q-1.115-2.465-2.071-4.993h0a41.873,41.873,0,0,1-1.328-4.048h0l-.336-1.279.883-.779c.36-.318.731-.622,1.119-.9h0l.013-.011c.427-.321.859-.631,1.3-.931h0c2.954-1.963,5.883-4,8.691-6.178h0a57.375,57.375,0,0,0,6-5.27h0a22.955,22.955,0,0,0,3.625-4.727h0A11.731,11.731,0,0,0,68.3,32.453h0l0-.019c.029-.452.037-.908.031-1.362h0v-.028c0-.132-.013-.265-.019-.4h0c.588-.134,1.181-.257,1.771-.35h0a10,10,0,0,1,1.466-.158h0a4.137,4.137,0,0,1,1.29.191h0c-.022-.028-.046-.055-.068-.08h0a2.793,2.793,0,0,0-2.106-.719h0a9.964,9.964,0,0,0-1.464.16Zm24.18,5.042a3.269,3.269,0,0,0,1.656,3.9h0a3.512,3.512,0,0,1-.774-3.293h0a6.116,6.116,0,0,1,5.558-4.676h0a3.563,3.563,0,0,1,1.464.293h0a3.209,3.209,0,0,0-2.345-.9h0a6.12,6.12,0,0,0-5.558,4.674Zm136.627,9.891H230a23.477,23.477,0,0,0-4.5.451h0a20.429,20.429,0,0,0-4.321,1.388h0a15.013,15.013,0,0,0-3.65,2.328h0a11.109,11.109,0,0,0-2.585,3.268h0a10.914,10.914,0,0,0-1.165,4.3h0a10.348,10.348,0,0,0,.388,3.582h0a9.768,9.768,0,0,0,1.561,3.174h0c.566.7,1.14,1.391,1.729,2.066h0c.586.672,1.135,1.375,1.659,2.1h0l.006.009a10.208,10.208,0,0,1,1.233,2.316h0a6.76,6.76,0,0,1,.4,2.724h0v.028a7.209,7.209,0,0,1-2.015,4.863h0a6.434,6.434,0,0,1-4.57,1.651h-.035l-.036,0a7.387,7.387,0,0,1-3.256-.967h0l.091.071h0a7.245,7.245,0,0,0,4.048,1.506h.07a6.439,6.439,0,0,0,4.569-1.65h0a7.2,7.2,0,0,0,2.015-4.864h0l0-.015v-.014a6.77,6.77,0,0,0-.4-2.722h0A10.214,10.214,0,0,0,220.01,67.9h0L220,67.895c-.523-.724-1.073-1.428-1.658-2.1h0c-.589-.676-1.16-1.368-1.727-2.065h0a9.8,9.8,0,0,1-1.561-3.175h0a10.346,10.346,0,0,1-.387-3.582h0a10.82,10.82,0,0,1,1.167-4.3h0a11.1,11.1,0,0,1,2.582-3.269h0a15.072,15.072,0,0,1,3.653-2.33h0a20.563,20.563,0,0,1,4.32-1.386h0a23.376,23.376,0,0,1,4.5-.451h.011a7.472,7.472,0,0,1,1.63.139h0a.868.868,0,0,0-.373-.432h0a5.077,5.077,0,0,0-2.016-.313h-.123ZM89.232,46.375a21.729,21.729,0,0,0-5.421,2.717h0a28.019,28.019,0,0,0-4.991,4.484h0l-.013.014-.013.015A27.272,27.272,0,0,0,74.7,59.1h0a27.629,27.629,0,0,0-2.612,6.276h0a27.057,27.057,0,0,0-.986,6.713h0c-.054,3.941,1.45,6.459,3.878,7.908h0c-1.905-1.507-3.044-3.861-3-7.3h0a27.178,27.178,0,0,1,.986-6.714h0a27.54,27.54,0,0,1,2.615-6.273h0a27.187,27.187,0,0,1,4.087-5.5h0l.011-.015.014-.014A28.014,28.014,0,0,1,84.69,49.7h0a21.686,21.686,0,0,1,5.421-2.717h0a17.55,17.55,0,0,1,5.6-.924h0a9.922,9.922,0,0,1,4.458.859h0c-1.367-1.228-3.611-1.467-5.34-1.467h0A17.568,17.568,0,0,0,89.232,46.375Zm28.186.484a21.008,21.008,0,0,0-5.66,3.678h0a27.083,27.083,0,0,0-4.62,5.448h0a30.154,30.154,0,0,0-3.225,6.6h0a27.371,27.371,0,0,0-1.436,6.761h0l-.017.21-.093.188a10.26,10.26,0,0,1-1.786,2.291h0a22.577,22.577,0,0,1-3.409,2.848h0A18.3,18.3,0,0,1,86.5,78.327h0a8.723,8.723,0,0,1-4.036-.754h0c-.1-.052-.2-.106-.289-.162h0a7.587,7.587,0,0,0,1.172.77h0a8.7,8.7,0,0,0,4.034.752h0a18.289,18.289,0,0,0,10.677-3.447h0a22.552,22.552,0,0,0,3.408-2.848h0a10.3,10.3,0,0,0,1.788-2.291h0l.092-.187.019-.21a27.276,27.276,0,0,1,1.435-6.762h0a29.945,29.945,0,0,1,3.225-6.6h0a26.974,26.974,0,0,1,4.62-5.45h0a20.947,20.947,0,0,1,5.663-3.676h0a16.055,16.055,0,0,1,6.309-1.339h0a13.283,13.283,0,0,1,3.4.435h0a11.061,11.061,0,0,1,3.009,1.332h0l.63.4.583-.468a6.806,6.806,0,0,1,1.951-1.1h0a6.111,6.111,0,0,1,2.134-.387h0a8.474,8.474,0,0,1,2.274.328h0c.139.041.28.085.42.134h0c.041-.071.081-.14.124-.213h0a11.312,11.312,0,0,0-1.429-.528h0a8.483,8.483,0,0,0-2.272-.327h0a6.129,6.129,0,0,0-2.135.386h0a6.757,6.757,0,0,0-1.952,1.106h0l-.581.467-.629-.4a11.091,11.091,0,0,0-3.01-1.333h0a13.41,13.41,0,0,0-3.4-.435h0a16.1,16.1,0,0,0-6.313,1.338Zm50.1-1.269h-.153a6.885,6.885,0,0,0-3.733,1.663h0a28.759,28.759,0,0,0-4.765,4.986h0c-2.343,2.826-4.909,6.1-5.547,7.863h0c1.869-3.095,8.189-9.317,11.193-12.242h0a6.871,6.871,0,0,1,3.732-1.663h.316a3.511,3.511,0,0,1,.493.038h0a1.483,1.483,0,0,0-.115-.214h0c-.248-.374-.865-.426-1.261-.432h-.161Zm9.85.4a20.686,20.686,0,0,0-2.49.693h0a6.5,6.5,0,0,1,.141.933h0a11.053,11.053,0,0,1,.014,2h0a23.509,23.509,0,0,1-.608,3.525h0q-.554,2.293-1.209,4.555h0c-.5,1.7-.99,3.4-1.508,5.1h0c-.515,1.694-1.007,3.4-1.5,5.1h0q-.646,2.238-1.183,4.508h0a21.683,21.683,0,0,0-.562,3.264h0a12.9,12.9,0,0,0,.033,2.382h0a5.192,5.192,0,0,0,.57,1.87h0l.006.011a2.773,2.773,0,0,0,1.207,1.158h0l.013.006a1.314,1.314,0,0,0,.12.06h0a2.458,2.458,0,0,1-.457-.616h0l-.006-.014a5.188,5.188,0,0,1-.57-1.868h0a13.011,13.011,0,0,1-.036-2.382h0a21.552,21.552,0,0,1,.562-3.267h0q.539-2.268,1.186-4.506h0c.492-1.7.984-3.4,1.5-5.1h0c.514-1.7,1.009-3.4,1.508-5.1h0q.659-2.261,1.209-4.555h0a23.185,23.185,0,0,0,.609-3.525h0a10.922,10.922,0,0,0-.01-2h0a6.344,6.344,0,0,0-.144-.934h0a21.08,21.08,0,0,1,2.492-.693h0a14.162,14.162,0,0,1,2.834-.335h0a4.948,4.948,0,0,1,1.382.183h0a1.517,1.517,0,0,0-.452-.414h0L182,46.023a3.8,3.8,0,0,0-1.794-.368h0a14.012,14.012,0,0,0-2.837.335Zm-28,.1a26.887,26.887,0,0,0-3.045,1.039h0a8.987,8.987,0,0,1,.192,1.324h0a18.371,18.371,0,0,1,0,2.666h0a36.24,36.24,0,0,1-.795,5.075h0c-.523,2.428-1.173,4.837-1.874,7.214h0c-.878,2.983-1.881,5.928-2.945,8.846h0c-1.073,2.91-2.24,5.783-3.474,8.625h0c.359.057.718.112,1.076.159h0c1.167-2.695,2.267-5.419,3.28-8.178h0c1.063-2.915,2.067-5.863,2.945-8.845h0c.7-2.377,1.356-4.788,1.874-7.214h0a36.625,36.625,0,0,0,.8-5.075h0a18.559,18.559,0,0,0,0-2.666h0a9.309,9.309,0,0,0-.192-1.325h0a26.744,26.744,0,0,1,3.041-1.039h0a11.764,11.764,0,0,1,2.825-.437h0a3.184,3.184,0,0,1,1,.155h0a1.624,1.624,0,0,0-.124-.143h0a2.452,2.452,0,0,0-1.763-.621h0a11.589,11.589,0,0,0-2.82.437Zm49.405-.33-.018,0c-.646.066-1.288.176-1.927.3h0c-.284.061-.567.129-.848.2h0c.015.094.027.188.037.285h0a7.331,7.331,0,0,1,.033,1.391h0a20.6,20.6,0,0,1-.916,4.588h0a42.8,42.8,0,0,1-2.136,5.522h0a68.26,68.26,0,0,1-3.325,6.236h0l-.008.013a62.785,62.785,0,0,1-4.219,6.136h0a31.6,31.6,0,0,1-3.854,4.212h0a5.99,5.99,0,0,1-3.3,1.738h-.065a2.591,2.591,0,0,1-.731-.136h0a2.15,2.15,0,0,0,1.612.745h.065a5.975,5.975,0,0,0,3.3-1.738h0a31.539,31.539,0,0,0,3.855-4.212h0a63.142,63.142,0,0,0,4.22-6.135h0l.006-.011a68.3,68.3,0,0,0,3.325-6.238h0a42.688,42.688,0,0,0,2.138-5.522h0a20.8,20.8,0,0,0,.916-4.588h0a7.543,7.543,0,0,0-.037-1.39h0c-.01-.1-.022-.191-.036-.286h0c.28-.074.563-.143.85-.2h0c.636-.129,1.279-.239,1.925-.306h0l.017,0a15.154,15.154,0,0,1,1.717-.108h0a5.358,5.358,0,0,1,1.577.311h0a1.833,1.833,0,0,0-.82-.584h0a5.334,5.334,0,0,0-1.639-.335h0a15.147,15.147,0,0,0-1.716.107Zm32.124,2.49.059-.05c-.146-.1-.294-.2-.447-.283h0c.133.106.263.216.388.331ZM94.8,51.122l0,.017a6.675,6.675,0,0,1-.385,2.677h0a12.855,12.855,0,0,1-1.2,2.591h0l0,.01A11.59,11.59,0,0,1,90.977,59h0a19.505,19.505,0,0,1-3.711,2.521h0l-.015.009c-.8.415-1.588.835-2.369,1.281h0a9.638,9.638,0,0,0-1.8,1.3h0l-.008.008A6.339,6.339,0,0,0,81.75,65.9h0l-.561,1.057a25.486,25.486,0,0,1,6.944-4.816h0l.015-.009a19.663,19.663,0,0,0,3.71-2.519h0a11.641,11.641,0,0,0,2.232-2.584h0l.008-.01a13.165,13.165,0,0,0,1.2-2.591h0a6.614,6.614,0,0,0,.381-2.678h0v-.015A3.613,3.613,0,0,0,94.6,49.415h0a2.96,2.96,0,0,0-.839-.565h0a3.62,3.62,0,0,1,1.03,2.276Zm33.815.12a3.717,3.717,0,0,1,.8,1.893h0l.034.307-.13.279c-.86,1.871-1.812,3.7-2.829,5.488h0c-1.015,1.749-2.093,3.463-3.253,5.116h0a44.292,44.292,0,0,1-3.414,4.289h0a20.011,20.011,0,0,1-3.372,3.032h0a6.225,6.225,0,0,1-3.326,1.24h-.014a2.827,2.827,0,0,1-1.084-.207h0a2.645,2.645,0,0,0,1.965.816h.015a6.237,6.237,0,0,0,3.325-1.24h0a20.081,20.081,0,0,0,3.374-3.034h0a44.291,44.291,0,0,0,3.413-4.286h0c1.159-1.654,2.239-3.366,3.252-5.114h0c1.017-1.79,1.97-3.619,2.833-5.488h0l.128-.28-.033-.307a3.735,3.735,0,0,0-.806-1.893h0a6.514,6.514,0,0,0-1.558-1.407h0l-.013-.009c-.1-.065-.2-.126-.3-.185h0a6.021,6.021,0,0,1,.99.992ZM165.088,55.9l.046-.055q-.113-.067-.23-.122h0c.063.057.124.116.184.177Zm-39.4,9.373-.68,2.538c-.829,3.1-1.692,6.2-2.653,9.26h0c-.718,2.266-1.491,4.55-2.414,6.738h0l-.342.808-.842-.177c-1.13-.238-2.272-.425-3.414-.586h0q-1.857-.239-3.728-.36h0c-1.252-.088-2.509-.135-3.762-.135h0a26.941,26.941,0,0,0-6.336.645h0c-2.46.637-6.7,2.286-6.74,5.5h0c-.022,1.879,1.435,3.485,2.849,4.475h0c.169.118.342.23.516.337h0a5.608,5.608,0,0,1-2.481-4.2h0c.038-3.217,4.278-4.867,6.739-5.5h0a27.065,27.065,0,0,1,6.335-.645h0c1.253,0,2.511.048,3.762.136h0q1.874.117,3.731.36h0c.842.118,1.681.25,2.517.406h0l.788.13-.012.024.121.025.842.177.341-.81c.922-2.187,1.7-4.472,2.414-6.738h0c.961-3.062,1.826-6.159,2.654-9.261h0l1.414-5.284-1.619,2.14Zm65.345,1.44-.733,2.942c-.215.862-.418,1.727-.589,2.6h0a19.037,19.037,0,0,0-.337,2.507h0c-.1,1.529-.015,3.54.969,4.792h0a3.42,3.42,0,0,0,1.223.984h0a3.72,3.72,0,0,1-.341-.376h0c-.984-1.254-1.064-3.263-.969-4.793h0a19.552,19.552,0,0,1,.337-2.508h0c.171-.872.376-1.739.592-2.6h0l1.517-6.082-1.666,2.535Zm13.388,4.97q-.949.863-1.915,1.711h0l-.006.006c-.625.54-1.267,1.066-1.938,1.551h0l-.01.006a5.6,5.6,0,0,1-1.819.933h0l-.286.069.371.729.8-.191a5.675,5.675,0,0,0,1.821-.932h0l.009-.008c.668-.484,1.312-1.009,1.94-1.549h0l.006-.005.725-.643h0l.2-.257.009.066c.328-.293.653-.584.975-.88h0c.268-.243.538-.489.807-.728h0q-.2-.519-.369-1.052h0c-.45.377-.885.778-1.319,1.172Zm-101.9,1.472.152.732c.024.111.05.219.074.326h0a5.353,5.353,0,0,0,1.563,2.816h0a3.451,3.451,0,0,0,.79.522h0a5.422,5.422,0,0,1-1.471-2.729h0c-.026-.108-.049-.218-.074-.326h0l-.413-2Zm102.015,1.39.146.966a5.389,5.389,0,0,0,.494,1.6h0a6.416,6.416,0,0,0,1.841,2.277h0l.011.009a8.01,8.01,0,0,0,.948.662h0L207.91,80l-.014-.009a6.487,6.487,0,0,1-1.841-2.279h0a5.5,5.5,0,0,1-.494-1.6h0l-.362-2.4-.664.831ZM118.609,86.413a12.972,12.972,0,0,1-6.191,4.724h0a18.131,18.131,0,0,1-7.68,1.254h0a8.885,8.885,0,0,1-3.414-.861h0a7.431,7.431,0,0,0,4.3,1.468h0a18.125,18.125,0,0,0,7.679-1.254h0a12.973,12.973,0,0,0,6.189-4.725h0l.928-1.413-1.155-.19-.654,1Zm-48.34-.356a20.647,20.647,0,0,0,5.981,2.794h0a10.159,10.159,0,0,0,3.317.342h0c.137-.005.273-.011.411-.02h0c.383-.26.751-.533,1.11-.829h0a21.435,21.435,0,0,1-2.4.242h0a10.1,10.1,0,0,1-3.313-.344h0a21.657,21.657,0,0,1-5.342-2.36h0c.081.059.157.116.241.174Zm56.038.574q.9.3,1.814.588h0a13.871,13.871,0,0,0-1.526-.667h0l-.21-.069-.078.148Z" transform="translate(-24.793 -25.57)"/><path class="e" d="M46.781,29.32l-.017,0h-.014a13.625,13.625,0,0,0-3.121.556h0l-.008,0a15.348,15.348,0,0,0-2.837,1.164h0c.056.2.107.4.151.594h0a7.811,7.811,0,0,1,.19,1.445h0a8.534,8.534,0,0,1-.1,1.6h0l0,.014q-1.177,6.93-2.991,13.726h0q-1.8,6.683-3.94,13.265h0q-2.17,6.685-4.383,13.355h0c-.34,1.021-.661,2.064-.9,3.116h0v.011a12.355,12.355,0,0,0-.349,2.094h0a1.409,1.409,0,0,0,.4,1.218h0a1.745,1.745,0,0,0,.627.293h0a1.852,1.852,0,0,1-.147-.9h0a12.246,12.246,0,0,1,.348-2.094h0v-.013c.244-1.052.563-2.093.9-3.115h0q2.212-6.672,4.381-13.356h0q2.139-6.576,3.942-13.265h0Q40.715,42.241,41.9,35.3h0l0-.014a8.44,8.44,0,0,0,.1-1.6h0a8.075,8.075,0,0,0-.189-1.447h0c-.043-.2-.1-.4-.149-.592h0A15.317,15.317,0,0,1,44.5,30.491h0l.009,0a13.756,13.756,0,0,1,3.123-.556h.014l.017,0a3.823,3.823,0,0,1,1.276.108h0l.01,0,.013,0,.046.01a1.437,1.437,0,0,0-.134-.181h0a1.525,1.525,0,0,0-.792-.438h0l-.014,0-.013,0a3.681,3.681,0,0,0-.951-.122h0c-.109,0-.216.005-.322.013Zm22.425.37c-.592.093-1.184.215-1.775.35h0c.009.132.017.264.023.4h0v.028c0,.454,0,.908-.032,1.362h0v.019a11.764,11.764,0,0,1-1.457,4.564h0a23.026,23.026,0,0,1-3.625,4.725h0a57.55,57.55,0,0,1-6,5.272h0c-2.811,2.176-5.738,4.215-8.691,6.177h0q-.663.449-1.3.931h0l-.015.011c-.388.28-.755.587-1.115.9h0l-.884.779.333,1.281a41.773,41.773,0,0,0,1.33,4.048h0q.953,2.528,2.07,4.994h0c3.115,7.01,8.262,19.509,15.868,24.392h0c-7.123-5.246-11.994-17.048-14.988-23.786h0q-1.115-2.465-2.071-4.993h0a41.873,41.873,0,0,1-1.328-4.048h0l-.336-1.279.883-.779c.36-.318.731-.622,1.119-.9h0l.013-.011c.427-.321.859-.631,1.3-.931h0c2.954-1.963,5.883-4,8.691-6.178h0a57.375,57.375,0,0,0,6-5.27h0a22.955,22.955,0,0,0,3.625-4.727h0A11.731,11.731,0,0,0,68.3,32.453h0l0-.019c.029-.452.037-.908.031-1.362h0v-.028c0-.132-.013-.265-.019-.4h0c.588-.134,1.181-.257,1.771-.35h0a10,10,0,0,1,1.466-.158h0a4.137,4.137,0,0,1,1.29.191h0c-.022-.028-.046-.055-.068-.08h0a2.793,2.793,0,0,0-2.106-.719h0a9.964,9.964,0,0,0-1.464.16Zm24.18,5.042a3.269,3.269,0,0,0,1.656,3.9h0a3.512,3.512,0,0,1-.774-3.293h0a6.116,6.116,0,0,1,5.558-4.676h0a3.563,3.563,0,0,1,1.464.293h0a3.209,3.209,0,0,0-2.345-.9h0a6.12,6.12,0,0,0-5.558,4.674Zm136.627,9.891H230a23.477,23.477,0,0,0-4.5.451h0a20.429,20.429,0,0,0-4.321,1.388h0a15.013,15.013,0,0,0-3.65,2.328h0a11.109,11.109,0,0,0-2.585,3.268h0a10.914,10.914,0,0,0-1.165,4.3h0a10.348,10.348,0,0,0,.388,3.582h0a9.768,9.768,0,0,0,1.561,3.174h0c.566.7,1.14,1.391,1.729,2.066h0c.586.672,1.135,1.375,1.659,2.1h0l.006.009a10.208,10.208,0,0,1,1.233,2.316h0a6.76,6.76,0,0,1,.4,2.724h0v.028a7.209,7.209,0,0,1-2.015,4.863h0a6.434,6.434,0,0,1-4.57,1.651h-.035l-.036,0a7.387,7.387,0,0,1-3.256-.967h0l.091.071h0a7.245,7.245,0,0,0,4.048,1.506h.07a6.439,6.439,0,0,0,4.569-1.65h0a7.2,7.2,0,0,0,2.015-4.864h0l0-.015v-.014a6.77,6.77,0,0,0-.4-2.722h0A10.214,10.214,0,0,0,220.01,67.9h0L220,67.895c-.523-.724-1.073-1.428-1.658-2.1h0c-.589-.676-1.16-1.368-1.727-2.065h0a9.8,9.8,0,0,1-1.561-3.175h0a10.346,10.346,0,0,1-.387-3.582h0a10.82,10.82,0,0,1,1.167-4.3h0a11.1,11.1,0,0,1,2.582-3.269h0a15.072,15.072,0,0,1,3.653-2.33h0a20.563,20.563,0,0,1,4.32-1.386h0a23.376,23.376,0,0,1,4.5-.451h.011a7.472,7.472,0,0,1,1.63.139h0a.868.868,0,0,0-.373-.432h0a5.077,5.077,0,0,0-2.016-.313h-.123ZM89.232,46.375a21.729,21.729,0,0,0-5.421,2.717h0a28.019,28.019,0,0,0-4.991,4.484h0l-.013.014-.013.015A27.272,27.272,0,0,0,74.7,59.1h0a27.629,27.629,0,0,0-2.612,6.276h0a27.057,27.057,0,0,0-.986,6.713h0c-.054,3.941,1.45,6.459,3.878,7.908h0c-1.905-1.507-3.044-3.861-3-7.3h0a27.178,27.178,0,0,1,.986-6.714h0a27.54,27.54,0,0,1,2.615-6.273h0a27.187,27.187,0,0,1,4.087-5.5h0l.011-.015.014-.014A28.014,28.014,0,0,1,84.69,49.7h0a21.686,21.686,0,0,1,5.421-2.717h0a17.55,17.55,0,0,1,5.6-.924h0a9.922,9.922,0,0,1,4.458.859h0c-1.367-1.228-3.611-1.467-5.34-1.467h0A17.568,17.568,0,0,0,89.232,46.375Zm28.186.484a21.008,21.008,0,0,0-5.66,3.678h0a27.083,27.083,0,0,0-4.62,5.448h0a30.154,30.154,0,0,0-3.225,6.6h0a27.371,27.371,0,0,0-1.436,6.761h0l-.017.21-.093.188a10.26,10.26,0,0,1-1.786,2.291h0a22.577,22.577,0,0,1-3.409,2.848h0A18.3,18.3,0,0,1,86.5,78.327h0a8.723,8.723,0,0,1-4.036-.754h0c-.1-.052-.2-.106-.289-.162h0a7.587,7.587,0,0,0,1.172.77h0a8.7,8.7,0,0,0,4.034.752h0a18.289,18.289,0,0,0,10.677-3.447h0a22.552,22.552,0,0,0,3.408-2.848h0a10.3,10.3,0,0,0,1.788-2.291h0l.092-.187.019-.21a27.276,27.276,0,0,1,1.435-6.762h0a29.945,29.945,0,0,1,3.225-6.6h0a26.974,26.974,0,0,1,4.62-5.45h0a20.947,20.947,0,0,1,5.663-3.676h0a16.055,16.055,0,0,1,6.309-1.339h0a13.283,13.283,0,0,1,3.4.435h0a11.061,11.061,0,0,1,3.009,1.332h0l.63.4.583-.468a6.806,6.806,0,0,1,1.951-1.1h0a6.111,6.111,0,0,1,2.134-.387h0a8.474,8.474,0,0,1,2.274.328h0c.139.041.28.085.42.134h0c.041-.071.081-.14.124-.213h0a11.312,11.312,0,0,0-1.429-.528h0a8.483,8.483,0,0,0-2.272-.327h0a6.129,6.129,0,0,0-2.135.386h0a6.757,6.757,0,0,0-1.952,1.106h0l-.581.467-.629-.4a11.091,11.091,0,0,0-3.01-1.333h0a13.41,13.41,0,0,0-3.4-.435h0a16.1,16.1,0,0,0-6.313,1.338Zm50.1-1.269h-.153a6.885,6.885,0,0,0-3.733,1.663h0a28.759,28.759,0,0,0-4.765,4.986h0c-2.343,2.826-4.909,6.1-5.547,7.863h0c1.869-3.095,8.189-9.317,11.193-12.242h0a6.871,6.871,0,0,1,3.732-1.663h.316a3.511,3.511,0,0,1,.493.038h0a1.483,1.483,0,0,0-.115-.214h0c-.248-.374-.865-.426-1.261-.432h-.161Zm9.85.4a20.686,20.686,0,0,0-2.49.693h0a6.5,6.5,0,0,1,.141.933h0a11.053,11.053,0,0,1,.014,2h0a23.509,23.509,0,0,1-.608,3.525h0q-.554,2.293-1.209,4.555h0c-.5,1.7-.99,3.4-1.508,5.1h0c-.515,1.694-1.007,3.4-1.5,5.1h0q-.646,2.238-1.183,4.508h0a21.683,21.683,0,0,0-.562,3.264h0a12.9,12.9,0,0,0,.033,2.382h0a5.192,5.192,0,0,0,.57,1.87h0l.006.011a2.773,2.773,0,0,0,1.207,1.158h0l.013.006a1.314,1.314,0,0,0,.12.06h0a2.458,2.458,0,0,1-.457-.616h0l-.006-.014a5.188,5.188,0,0,1-.57-1.868h0a13.011,13.011,0,0,1-.036-2.382h0a21.552,21.552,0,0,1,.562-3.267h0q.539-2.268,1.186-4.506h0c.492-1.7.984-3.4,1.5-5.1h0c.514-1.7,1.009-3.4,1.508-5.1h0q.659-2.261,1.209-4.555h0a23.185,23.185,0,0,0,.609-3.525h0a10.922,10.922,0,0,0-.01-2h0a6.344,6.344,0,0,0-.144-.934h0a21.08,21.08,0,0,1,2.492-.693h0a14.162,14.162,0,0,1,2.834-.335h0a4.948,4.948,0,0,1,1.382.183h0a1.517,1.517,0,0,0-.452-.414h0L182,46.023a3.8,3.8,0,0,0-1.794-.368h0a14.012,14.012,0,0,0-2.837.335Zm-28,.1a26.887,26.887,0,0,0-3.045,1.039h0a8.987,8.987,0,0,1,.192,1.324h0a18.371,18.371,0,0,1,0,2.666h0a36.24,36.24,0,0,1-.795,5.075h0c-.523,2.428-1.173,4.837-1.874,7.214h0c-.878,2.983-1.881,5.928-2.945,8.846h0c-1.073,2.91-2.24,5.783-3.474,8.625h0c.359.057.718.112,1.076.159h0c1.167-2.695,2.267-5.419,3.28-8.178h0c1.063-2.915,2.067-5.863,2.945-8.845h0c.7-2.377,1.356-4.788,1.874-7.214h0a36.625,36.625,0,0,0,.8-5.075h0a18.559,18.559,0,0,0,0-2.666h0a9.309,9.309,0,0,0-.192-1.325h0a26.744,26.744,0,0,1,3.041-1.039h0a11.764,11.764,0,0,1,2.825-.437h0a3.184,3.184,0,0,1,1,.155h0a1.624,1.624,0,0,0-.124-.143h0a2.452,2.452,0,0,0-1.763-.621h0a11.589,11.589,0,0,0-2.82.437Zm49.405-.33-.018,0c-.646.066-1.288.176-1.927.3h0c-.284.061-.567.129-.848.2h0c.015.094.027.188.037.285h0a7.331,7.331,0,0,1,.033,1.391h0a20.6,20.6,0,0,1-.916,4.588h0a42.8,42.8,0,0,1-2.136,5.522h0a68.26,68.26,0,0,1-3.325,6.236h0l-.008.013a62.785,62.785,0,0,1-4.219,6.136h0a31.6,31.6,0,0,1-3.854,4.212h0a5.99,5.99,0,0,1-3.3,1.738h-.065a2.591,2.591,0,0,1-.731-.136h0a2.15,2.15,0,0,0,1.612.745h.065a5.975,5.975,0,0,0,3.3-1.738h0a31.539,31.539,0,0,0,3.855-4.212h0a63.142,63.142,0,0,0,4.22-6.135h0l.006-.011a68.3,68.3,0,0,0,3.325-6.238h0a42.688,42.688,0,0,0,2.138-5.522h0a20.8,20.8,0,0,0,.916-4.588h0a7.543,7.543,0,0,0-.037-1.39h0c-.01-.1-.022-.191-.036-.286h0c.28-.074.563-.143.85-.2h0c.636-.129,1.279-.239,1.925-.306h0l.017,0a15.154,15.154,0,0,1,1.717-.108h0a5.358,5.358,0,0,1,1.577.311h0a1.833,1.833,0,0,0-.82-.584h0a5.334,5.334,0,0,0-1.639-.335h0a15.147,15.147,0,0,0-1.716.107Zm32.124,2.49.059-.05c-.146-.1-.294-.2-.447-.283h0c.133.106.263.216.388.331ZM94.8,51.122l0,.017a6.675,6.675,0,0,1-.385,2.677h0a12.855,12.855,0,0,1-1.2,2.591h0l0,.01A11.59,11.59,0,0,1,90.977,59h0a19.505,19.505,0,0,1-3.711,2.521h0l-.015.009c-.8.415-1.588.835-2.369,1.281h0a9.638,9.638,0,0,0-1.8,1.3h0l-.008.008A6.339,6.339,0,0,0,81.75,65.9h0l-.561,1.057a25.486,25.486,0,0,1,6.944-4.816h0l.015-.009a19.663,19.663,0,0,0,3.71-2.519h0a11.641,11.641,0,0,0,2.232-2.584h0l.008-.01a13.165,13.165,0,0,0,1.2-2.591h0a6.614,6.614,0,0,0,.381-2.678h0v-.015A3.613,3.613,0,0,0,94.6,49.415h0a2.96,2.96,0,0,0-.839-.565h0a3.62,3.62,0,0,1,1.03,2.276Zm33.815.12a3.717,3.717,0,0,1,.8,1.893h0l.034.307-.13.279c-.86,1.871-1.812,3.7-2.829,5.488h0c-1.015,1.749-2.093,3.463-3.253,5.116h0a44.292,44.292,0,0,1-3.414,4.289h0a20.011,20.011,0,0,1-3.372,3.032h0a6.225,6.225,0,0,1-3.326,1.24h-.014a2.827,2.827,0,0,1-1.084-.207h0a2.645,2.645,0,0,0,1.965.816h.015a6.237,6.237,0,0,0,3.325-1.24h0a20.081,20.081,0,0,0,3.374-3.034h0a44.291,44.291,0,0,0,3.413-4.286h0c1.159-1.654,2.239-3.366,3.252-5.114h0c1.017-1.79,1.97-3.619,2.833-5.488h0l.128-.28-.033-.307a3.735,3.735,0,0,0-.806-1.893h0a6.514,6.514,0,0,0-1.558-1.407h0l-.013-.009c-.1-.065-.2-.126-.3-.185h0a6.021,6.021,0,0,1,.99.992ZM165.088,55.9l.046-.055q-.113-.067-.23-.122h0c.063.057.124.116.184.177Zm-39.4,9.373-.68,2.538c-.829,3.1-1.692,6.2-2.653,9.26h0c-.718,2.266-1.491,4.55-2.414,6.738h0l-.342.808-.842-.177c-1.13-.238-2.272-.425-3.414-.586h0q-1.857-.239-3.728-.36h0c-1.252-.088-2.509-.135-3.762-.135h0a26.941,26.941,0,0,0-6.336.645h0c-2.46.637-6.7,2.286-6.74,5.5h0c-.022,1.879,1.435,3.485,2.849,4.475h0c.169.118.342.23.516.337h0a5.608,5.608,0,0,1-2.481-4.2h0c.038-3.217,4.278-4.867,6.739-5.5h0a27.065,27.065,0,0,1,6.335-.645h0c1.253,0,2.511.048,3.762.136h0q1.874.117,3.731.36h0c.842.118,1.681.25,2.517.406h0l.788.13-.012.024.121.025.842.177.341-.81c.922-2.187,1.7-4.472,2.414-6.738h0c.961-3.062,1.826-6.159,2.654-9.261h0l1.414-5.284-1.619,2.14Zm65.345,1.44-.733,2.942c-.215.862-.418,1.727-.589,2.6h0a19.037,19.037,0,0,0-.337,2.507h0c-.1,1.529-.015,3.54.969,4.792h0a3.42,3.42,0,0,0,1.223.984h0a3.72,3.72,0,0,1-.341-.376h0c-.984-1.254-1.064-3.263-.969-4.793h0a19.552,19.552,0,0,1,.337-2.508h0c.171-.872.376-1.739.592-2.6h0l1.517-6.082-1.666,2.535Zm13.388,4.97q-.949.863-1.915,1.711h0l-.006.006c-.625.54-1.267,1.066-1.938,1.551h0l-.01.006a5.6,5.6,0,0,1-1.819.933h0l-.286.069.371.729.8-.191a5.675,5.675,0,0,0,1.821-.932h0l.009-.008c.668-.484,1.312-1.009,1.94-1.549h0l.006-.005.725-.643h0l.2-.257.009.066c.328-.293.653-.584.975-.88h0c.268-.243.538-.489.807-.728h0q-.2-.519-.369-1.052h0c-.45.377-.885.778-1.319,1.172Zm-101.9,1.472.152.732c.024.111.05.219.074.326h0a5.353,5.353,0,0,0,1.563,2.816h0a3.451,3.451,0,0,0,.79.522h0a5.422,5.422,0,0,1-1.471-2.729h0c-.026-.108-.049-.218-.074-.326h0l-.413-2Zm102.015,1.39.146.966a5.389,5.389,0,0,0,.494,1.6h0a6.416,6.416,0,0,0,1.841,2.277h0l.011.009a8.01,8.01,0,0,0,.948.662h0L207.91,80l-.014-.009a6.487,6.487,0,0,1-1.841-2.279h0a5.5,5.5,0,0,1-.494-1.6h0l-.362-2.4-.664.831ZM118.609,86.413a12.972,12.972,0,0,1-6.191,4.724h0a18.131,18.131,0,0,1-7.68,1.254h0a8.885,8.885,0,0,1-3.414-.861h0a7.431,7.431,0,0,0,4.3,1.468h0a18.125,18.125,0,0,0,7.679-1.254h0a12.973,12.973,0,0,0,6.189-4.725h0l.928-1.413-1.155-.19-.654,1Zm-48.34-.356a20.647,20.647,0,0,0,5.981,2.794h0a10.159,10.159,0,0,0,3.317.342h0c.137-.005.273-.011.411-.02h0c.383-.26.751-.533,1.11-.829h0a21.435,21.435,0,0,1-2.4.242h0a10.1,10.1,0,0,1-3.313-.344h0a21.657,21.657,0,0,1-5.342-2.36h0c.081.059.157.116.241.174Zm56.038.574q.9.3,1.814.588h0a13.871,13.871,0,0,0-1.526-.667h0l-.21-.069-.078.148Z" transform="translate(-24.793 -25.57)"/></g></svg>