<svg xmlns="http://www.w3.org/2000/svg" width="229" height="79" viewBox="0 0 229 79"><defs><style>.a,.b{fill:#e8423b;}.a,.c,.d{fill-rule:evenodd;}.c{fill:#2a395d;}.d,.e{fill:#fefefe;}</style></defs><g transform="translate(-0.01 0.01)"><g transform="translate(0.01 -0.01)"><path class="a" d="M877.272,307.2a6.228,6.228,0,0,1,1.647,1.944l.028.053a6.746,6.746,0,0,1,.734,2.547,8.852,8.852,0,0,1-.222,2.722l-.638,2.764.021,0-2.013,8.639c-.014.165-.029.393-.029.794a.273.273,0,0,0,.021.105.519.519,0,0,0,.109.164l.007.007a1.09,1.09,0,0,0,.108.1h2.2l-1.332,5.072H864.5a1.7,1.7,0,0,1-.4-.043c-22.743-.022-59.656-.083-59.763-.083h-.021c-.894-.012-1.615-.047-2.176-.095a13.713,13.713,0,0,1-1.738-.255v0a5.67,5.67,0,0,1-2.355-1.1,5.893,5.893,0,0,1-1.62-2.04,6.458,6.458,0,0,1-.782-2.5,8.419,8.419,0,0,1,.2-2.727v-.021l.45-1.892,0,0,2.269-10.059.005-.067c.012-.121.026-.262.034-.433a.982.982,0,0,0-.191-.017h-2.186l1.161-5.064q36.986.005,73.97,0v-.007a17.317,17.317,0,0,1,3.648.376h.007a6.592,6.592,0,0,1,2.257,1.1Z" transform="translate(-659.257 -253.116)"/><path class="b" d="M342.677,47.944A9.9,9.9,0,0,1,346.717,50h.007a8.675,8.675,0,0,1,2.355,3.489,12.793,12.793,0,0,1,.748,4.512,26.034,26.034,0,0,1-.265,3.527q-.248,1.814-.756,3.946h0L347.1,72.908l-.007.014a47.95,47.95,0,0,1-1.59,5.408,22.913,22.913,0,0,1-1.988,4.194H343.5a13.479,13.479,0,0,1-2.552,3.034,11.145,11.145,0,0,1-3.237,1.98l0-.007a17.393,17.393,0,0,1-3.861.991,32.89,32.89,0,0,1-4.752.315H316.793a23.989,23.989,0,0,1-3.809-.281,13.5,13.5,0,0,1-3.206-.892v0a9.116,9.116,0,0,1-2.514-1.506,8,8,0,0,1-1.8-2.205l0,0a9.184,9.184,0,0,1-1.042-2.729,14.705,14.705,0,0,1-.307-3.131,24.888,24.888,0,0,1,.258-3.389q.256-1.848.756-3.965h0l1.714-7.423a37.989,37.989,0,0,1,1.165-4.03,27.39,27.39,0,0,1,1.5-3.494l.014-.021a18.264,18.264,0,0,1,1.85-2.824,14.032,14.032,0,0,1,2.207-2.212l.034-.028a15.432,15.432,0,0,1,2.585-1.577,15.929,15.929,0,0,1,2.874-1.051l.021-.007a24.62,24.62,0,0,1,3.227-.562,33.372,33.372,0,0,1,3.62-.19h11.349a20.768,20.768,0,0,1,5.391.622Z" transform="translate(-251.921 -39.165)"/><path class="c" d="M1247.4,7.92h-13.809c-1.89,0-2.828-.718-2.828-2.207a7.255,7.255,0,0,1,.145-1.582l.96-4.121h14.163c1.616,0,2.405.927,2.405,2.817A7.347,7.347,0,0,1,1248.3,4.2l-.9,3.716Z" transform="translate(-1019.432 -0.007)"/><path class="c" d="M1201.208,63.194l-6.74,29.013a4.763,4.763,0,0,0-.067,1.1,2.221,2.221,0,0,0,.613,1.49,1.856,1.856,0,0,0,1.3.644l-.4,1.585h-17.189a2.188,2.188,0,0,1-1.58-.551,1.621,1.621,0,0,1-.624-1.294,8.392,8.392,0,0,1,.207-1.465l6.671-28.665a6.177,6.177,0,0,0,.135-1.446,2.152,2.152,0,0,0-.614-1.48,1.764,1.764,0,0,0-1.322-.644l.416-1.583h17.2a2.33,2.33,0,0,1,1.578.517,1.694,1.694,0,0,1,.625,1.342,7.452,7.452,0,0,1-.207,1.437Z" transform="translate(-974.538 -49.578)"/><path class="c" d="M50.684,36.446l-1.857,7.982a3.039,3.039,0,0,1-2.1,2.514,16.181,16.181,0,0,1-4.573.507H36.38a4.573,4.573,0,0,1-2.951-1.1,6.167,6.167,0,0,1-1.93-2.467l-5.57-13.758-3.918,3.715L19.672,44.02a1.675,1.675,0,0,0,.682,1.294,2.158,2.158,0,0,0,1.452.551l-.348,1.583H2.274A2.011,2.011,0,0,1,.01,45.169a6.745,6.745,0,0,1,.129-1.1L9.562,3.716A1.978,1.978,0,0,0,8.84,2.235a1.964,1.964,0,0,0-1.4-.651L7.918,0H27.031a1.919,1.919,0,0,1,2.205,2.135A6.828,6.828,0,0,1,29.1,3.3l-1.928,8.258,6.468-7.011a2.026,2.026,0,0,0,.551-1.3,1.757,1.757,0,0,0-.419-1.1,1.132,1.132,0,0,0-.961-.551L33.22,0H51.654a2.522,2.522,0,0,1,1.993.755,2.489,2.489,0,0,1,.684,1.728A2.872,2.872,0,0,1,53.506,4.4L39.547,17.605l6.947,17.054A2.877,2.877,0,0,0,47.626,36a2.929,2.929,0,0,0,1.547.441h1.516Z" transform="translate(-0.01 0.002)"/><path class="c" d="M561.084,57.87h13.539c2.388,0,3.585,1.611,3.585,4.878h.958a14.747,14.747,0,0,1,3.549-3.921,7.229,7.229,0,0,1,4.507-1.377h5.007c2.133,0,3.691.42,4.649,1.268a4.989,4.989,0,0,1,1.461,4.03h.843a17.061,17.061,0,0,1,3.592-4.059,7.421,7.421,0,0,1,4.509-1.239H611c2.9,0,4.962.384,6.16,1.1a4.286,4.286,0,0,1,1.821,3.921,17.529,17.529,0,0,1-.625,4.192l-5.484,23.513a5.887,5.887,0,0,0-.074,1.1,2.1,2.1,0,0,0,.627,1.487,1.772,1.772,0,0,0,1.289.644l-.4,1.583H598.341a2.44,2.44,0,0,1-1.58-.507,1.781,1.781,0,0,1-.6-1.34,6.585,6.585,0,0,1,.2-1.465l5.036-21.451c.045-.538.115-.922.115-1.163,0-1.1-.574-1.652-1.771-1.652-1.27,0-2.111.863-2.495,2.543l-4.676,20.214a10.13,10.13,0,0,0-.071,1.1,2.193,2.193,0,0,0,.622,1.487,1.839,1.839,0,0,0,1.321.644L594.029,95H578.062a2.4,2.4,0,0,1-1.58-.507,1.8,1.8,0,0,1-.624-1.34,7.067,7.067,0,0,1,.215-1.465l5.012-21.509a3.7,3.7,0,0,0,.145-1.247,1.508,1.508,0,0,0-1.73-1.509c-1.363,0-2.226.825-2.61,2.481l-4.674,20.276a8.172,8.172,0,0,0-.059,1.1,2.209,2.209,0,0,0,.61,1.487,1.853,1.853,0,0,0,1.306.644l-.407,1.583H557.715a2.375,2.375,0,0,1-1.582-.507,1.761,1.761,0,0,1-.624-1.34,7.236,7.236,0,0,1,.2-1.465l6.878-29.7a7.839,7.839,0,0,0,.072-1.03,1.337,1.337,0,0,0-.588-1.139,2.465,2.465,0,0,0-1.342-.37l.35-1.583Z" transform="translate(-460.217 -47.55)"/><path class="c" d="M949.585,22.954l-3.019,13.077a2.281,2.281,0,0,1-2.333,2.061h-2.412l3.644-15.472a3.46,3.46,0,0,1,.791-1.823,2.415,2.415,0,0,1,1.749-.513c1.216,0,1.8.513,1.8,1.508a3.408,3.408,0,0,1-.219,1.161ZM959.7,9.964h-3.31a7.818,7.818,0,0,0-4.748,1.234,18.871,18.871,0,0,0-3.715,4.063h-.811l2.82-11.973a8.042,8.042,0,0,0,.2-1.439,1.726,1.726,0,0,0-.624-1.342,2.3,2.3,0,0,0-1.583-.517H930.743l-.4,1.583a1.79,1.79,0,0,1,1.308.651,2.1,2.1,0,0,1,.6,1.483,7.265,7.265,0,0,1-.128,1.437L923.8,40.85a8.971,8.971,0,0,0-.338,2.61c0,1.533.408,2.614,1.268,3.163a8.891,8.891,0,0,0,4.509.815h20.157a28.68,28.68,0,0,0,5.968-.507,8.511,8.511,0,0,0,3.956-2.011,11.454,11.454,0,0,0,2.924-4.2,41.15,41.15,0,0,0,2.348-7.454l1.918-8.186a32.341,32.341,0,0,0,.96-7.081c0-5.357-2.572-8.041-7.766-8.041Z" transform="translate(-765.079 0.01)"/><path class="d" d="M397.662,116.043a.966.966,0,0,0-.655-.51,3.962,3.962,0,0,0-.8-.074h-5.41l1.377-5.924a3.848,3.848,0,0,0,.117-.8.949.949,0,0,0-.35-.749,1.3,1.3,0,0,0-.877-.284h-3.8c-.079.355-.884,3.868-1.788,7.76h-2.664l-4.621.029-.856,3.644a1.218,1.218,0,0,0,.109.924.91.91,0,0,0,.632.5,3.861,3.861,0,0,0,.806.074l5.407,0c-.768,3.3-1.377,5.936-1.377,5.936a4.537,4.537,0,0,0-.117.8.918.918,0,0,0,.348.736,1.257,1.257,0,0,0,.877.31h3.751l1.37-5.844.453-1.937c3.656,0,6.931.005,7.288.007l.865-3.692a1.344,1.344,0,0,0-.084-.918Z" transform="translate(-312.513 -89.165)"/><path class="e" d="M868.483,346.672a2.014,2.014,0,0,0,1.852-1.885,1.126,1.126,0,0,0-1.091-1.273h-1.832l-.732,3.158h1.8Zm-4.366-5.789a.508.508,0,0,1,.524-.393h5.5a3.9,3.9,0,0,1,4.092,4.066c-.169,2.752-2.946,5.124-6.215,5.124h-2.035l-1.136,4.84a.516.516,0,0,1-.506.391h-3.063a.311.311,0,0,1-.324-.391l3.165-13.637Z" transform="translate(-713.111 -281.895)"/><path class="e" d="M957.679,340.883a.508.508,0,0,1,.508-.393H961.3a.33.33,0,0,1,.327.393l-2.565,11.008h5.117a.308.308,0,0,1,.326.391L964,354.52a.538.538,0,0,1-.524.389h-8.618a.31.31,0,0,1-.338-.389Z" transform="translate(-790.594 -281.895)"/><path class="e" d="M1045.137,340.883a.526.526,0,0,1,.491-.393h3.194a.347.347,0,0,1,.348.393l-1.959,8.5a1.825,1.825,0,0,0,1.869,2.438,3.161,3.161,0,0,0,3.115-2.438l1.957-8.5a.489.489,0,0,1,.491-.393h3.158a.33.33,0,0,1,.35.393l-1.992,8.663c-.765,3.334-3.644,5.584-7.786,5.584-3.362,0-5.96-2.44-5.217-5.584l1.981-8.663Z" transform="translate(-863.929 -281.895)"/><path class="e" d="M1146.279,351.914l1.446-1.67a.655.655,0,0,1,.8-.107,5.823,5.823,0,0,0,2.848.894,1.544,1.544,0,0,0,1.69-1.259c.024-.734-.507-1.289-1.542-1.885-1.516-.849-3.6-2.155-3.472-4.3.143-2.224,2.141-4.352,6.206-4.352a8.075,8.075,0,0,1,4.666,1.5.461.461,0,0,1,.107.7l-1.669,1.585a.7.7,0,0,1-.81.095,5.722,5.722,0,0,0-2.747-.91c-.858,0-1.64.422-1.666,1.048-.053.717.481,1.11,1.928,1.842,1.22.622,3.594,1.95,3.439,4.349-.136,2.373-2.276,4.637-6.537,4.637a6.776,6.776,0,0,1-4.74-1.6c-.177-.205-.115-.383.052-.586Z" transform="translate(-949.376 -280.86)"/></g></g></svg>