<svg xmlns="http://www.w3.org/2000/svg" width="230" height="48" viewBox="0 0 230 48"><defs><style>.a{fill:#ef7f1a;}.a,.b{fill-rule:evenodd;}.b{fill:#007d53;}</style></defs><g transform="translate(0 0)"><path class="a" d="M1554.576,7.98h-13.934c-1.906,0-2.842-.727-2.842-2.218a7.4,7.4,0,0,1,.138-1.594l.971-4.159h14.281c1.629,0,2.426.936,2.426,2.843a7.484,7.484,0,0,1-.138,1.387l-.9,3.743Z" transform="translate(-1325.615 -0.009)"/><path class="b" d="M227.643,13.635,220.862,42.7a4.58,4.58,0,0,0-.069,1.1,2.174,2.174,0,0,0,.624,1.481,1.8,1.8,0,0,0,1.315.655l-.415,1.584h-17.3a2.245,2.245,0,0,1-1.591-.551,1.644,1.644,0,0,1-.622-1.309,7.831,7.831,0,0,1,.207-1.446L209.724,15.5a5.7,5.7,0,0,0,.138-1.446,2.116,2.116,0,0,0-.622-1.482,1.739,1.739,0,0,0-1.315-.654l.415-1.584h17.3a2.387,2.387,0,0,1,1.591.516,1.707,1.707,0,0,1,.622,1.343,7.141,7.141,0,0,1-.207,1.446ZM50.994,36.5l-1.868,7.989A3.048,3.048,0,0,1,47.015,47a16.069,16.069,0,0,1-4.6.516H36.6a4.608,4.608,0,0,1-2.975-1.1,6.243,6.243,0,0,1-1.937-2.479L26.084,30.162,22.14,33.88,19.788,44.072a1.664,1.664,0,0,0,.691,1.308,2.2,2.2,0,0,0,1.454.552l-.346,1.584H2.283A2.013,2.013,0,0,1,0,45.242a5.8,5.8,0,0,1,.138-1.1L9.617,3.718a1.972,1.972,0,0,0-.726-1.481,2,2,0,0,0-1.417-.654L7.957,0H27.193c1.488,0,2.213.724,2.213,2.134a6.7,6.7,0,0,1-.138,1.172L27.331,11.57l6.5-7.025a1.973,1.973,0,0,0,.553-1.308,1.752,1.752,0,0,0-.415-1.1A1.153,1.153,0,0,0,33,1.584L33.419,0H51.963A2.539,2.539,0,0,1,53.97.758a2.473,2.473,0,0,1,.693,1.721,2.9,2.9,0,0,1-.831,1.928L39.785,17.631l6.99,17.079a2.89,2.89,0,0,0,1.141,1.343,2.983,2.983,0,0,0,1.557.448h1.522ZM74.277,21.279,70.818,36.36a3.2,3.2,0,0,0,.381,1.791,1.466,1.466,0,0,0,1.21.482,2.318,2.318,0,0,0,2.422-2l3.529-15.082a3.2,3.2,0,0,0-.381-1.791,1.621,1.621,0,0,0-1.281-.481,2.319,2.319,0,0,0-2.422,2ZM64.314,48a16.5,16.5,0,0,1-6.366-1.033,6.811,6.811,0,0,1-3.529-3,9.794,9.794,0,0,1-1.107-4.992,30.707,30.707,0,0,1,.969-6.955l1.73-7.437a30.422,30.422,0,0,1,2.525-7.127,14.3,14.3,0,0,1,3.632-4.51,13.942,13.942,0,0,1,4.878-2.342,27.8,27.8,0,0,1,6.471-.688H84.935c3.875,0,6.642.758,8.338,2.237,1.661,1.482,2.527,3.719,2.527,6.715a31.252,31.252,0,0,1-.969,7.092L93.1,33.4a30.65,30.65,0,0,1-3.391,9.089,10.351,10.351,0,0,1-4.982,4.339A22.437,22.437,0,0,1,76.7,48H64.317ZM100.745,10.33h13.63c2.387,0,3.6,1.618,3.6,4.889h.969a14.892,14.892,0,0,1,3.563-3.925,7.3,7.3,0,0,1,4.532-1.378h5.052c2.144,0,3.7.413,4.67,1.275a4.927,4.927,0,0,1,1.488,4.028h.831a17.649,17.649,0,0,1,3.632-4.063,7.441,7.441,0,0,1,4.532-1.24h3.737c2.906,0,4.982.379,6.193,1.1A4.273,4.273,0,0,1,159,14.944a17.343,17.343,0,0,1-.624,4.2L152.845,42.7a7.615,7.615,0,0,0-.069,1.1,2.174,2.174,0,0,0,.624,1.481,1.8,1.8,0,0,0,1.315.655l-.415,1.584H138.248A2.394,2.394,0,0,1,136.657,47a1.761,1.761,0,0,1-.622-1.343,7.14,7.14,0,0,1,.207-1.446l5.051-21.485c.069-.552.138-.93.138-1.17,0-1.1-.588-1.652-1.8-1.652-1.281,0-2.111.86-2.491,2.548L132.435,42.7a7.609,7.609,0,0,0-.069,1.1,2.111,2.111,0,0,0,.622,1.481,1.8,1.8,0,0,0,1.315.655l-.415,1.584H117.837A2.4,2.4,0,0,1,116.244,47a1.766,1.766,0,0,1-.622-1.343,7.063,7.063,0,0,1,.208-1.446l5.051-21.555a4.1,4.1,0,0,0,.138-1.24,1.512,1.512,0,0,0-1.73-1.514c-1.384,0-2.249.825-2.63,2.479l-4.7,20.314a7.413,7.413,0,0,0-.069,1.1,2.168,2.168,0,0,0,.624,1.481,1.793,1.793,0,0,0,1.314.655l-.415,1.584H97.354A2.394,2.394,0,0,1,95.762,47a1.761,1.761,0,0,1-.622-1.343,6.568,6.568,0,0,1,.207-1.446l6.919-29.75a7.861,7.861,0,0,0,.069-1.033,1.339,1.339,0,0,0-.588-1.136,2.473,2.473,0,0,0-1.35-.379l.346-1.584Zm80.331,12.327L177.41,38.15h2.423a2.283,2.283,0,0,0,2.351-2.066L185.229,23a3.651,3.651,0,0,0,.207-1.172c0-1-.588-1.514-1.8-1.514a2.446,2.446,0,0,0-1.764.516,3.459,3.459,0,0,0-.8,1.824Zm4.5-19.35-2.837,11.982h.831a18.527,18.527,0,0,1,3.736-4.064,7.876,7.876,0,0,1,4.775-1.24H195.4c5.223,0,7.819,2.686,7.819,8.058a32,32,0,0,1-.969,7.092l-1.938,8.2a42.07,42.07,0,0,1-2.351,7.471A11.8,11.8,0,0,1,195.02,45a8.561,8.561,0,0,1-3.978,2,28.7,28.7,0,0,1-6.019.516H164.749a8.907,8.907,0,0,1-4.532-.827c-.865-.551-1.281-1.618-1.281-3.169a9.174,9.174,0,0,1,.346-2.616l8.372-35.739a7.9,7.9,0,0,0,.138-1.446,2.111,2.111,0,0,0-.622-1.481,1.794,1.794,0,0,0-1.315-.654L166.271,0h17.3a2.386,2.386,0,0,1,1.591.516,1.761,1.761,0,0,1,.622,1.343,7.155,7.155,0,0,1-.207,1.446Z" transform="translate(0 0)"/></g></svg>