<svg xmlns="http://www.w3.org/2000/svg" width="29" height="19" viewBox="0 0 29 19">
    <defs>
        <style>.a{fill:#b21f2d;}.b{fill:#fcb933;}.c{fill:#03754a;}.d{fill:#f2a00f;}.e{fill:#1a5a40;}.f{fill:#e58d00;}
        </style>
    </defs>
    <path class="a" d="M0,304v3.806A2.7,2.7,0,0,0,2.806,310.5H26.194A2.7,2.7,0,0,0,29,307.806V304Z"
          transform="translate(0 -291.497)"/>
    <path class="b" d="M26.194,80H2.806A2.7,2.7,0,0,0,0,82.692V86.5H29V82.692A2.7,2.7,0,0,0,26.194,80Z"
          transform="translate(0 -80)"/>
    <rect class="c" width="28.121" height="6.542" transform="translate(0 6.289)"/>
    <path class="a" d="M322.811,310.5a2.766,2.766,0,0,0,2.877-2.692V304H315.2Z"
          transform="translate(-296.689 -291.497)"/>
    <path class="d" d="M71.407,80H48l7.771,6.5H74.215V82.692A2.7,2.7,0,0,0,71.407,80Z"
          transform="translate(-45.215 -80)"/>
    <path class="e" d="M187.89,198.5h10.442V192H180Z" transform="translate(-169.332 -185.749)"/>
    <path class="f" d="M71.407,80H48l21.675,6.5h4.541V82.692A2.7,2.7,0,0,0,71.407,80Z"
          transform="translate(-45.215 -80)"/>
    <path class="e" d="M419.134,193.3V192H414.4Z" transform="translate(-390.134 -185.678)"/>
    <path class="a" d="M29,368.046a2.68,2.68,0,0,1-2.806,2.738H2.806A2.774,2.774,0,0,1,0,368"
          transform="translate(0 -351.785)"/>
</svg>