
<svg xmlns="http://www.w3.org/2000/svg" width="24" height="24" viewBox="0 0 24 24"><defs><style>.a{fill:#fff;}</style></defs><path class="a" d="M12,0A12,12,0,1,1,3.515,3.515,11.963,11.963,0,0,1,12,0ZM4.927,7.239a1.25,1.25,0,0,0-.127.542v8.437a1.249,1.249,0,0,0,.127.542L9.688,12,4.927,7.239ZM13.716,12.6,12.27,13.986a.421.421,0,0,1-.6,0L10.285,12.6,5.524,17.357a1.251,1.251,0,0,0,.542.127H17.935a1.251,1.251,0,0,0,.542-.127L13.716,12.6Zm5.358-5.357L14.312,12l4.761,4.761a1.25,1.25,0,0,0,.127-.542V7.781A1.249,1.249,0,0,0,19.074,7.239Zm-1.139-.724H6.066a1.251,1.251,0,0,0-.542.127l6.448,6.449L13.417,11.7h0l5.059-5.059a1.251,1.251,0,0,0-.542-.127Z" transform="translate(0)"/></svg>