<svg xmlns="http://www.w3.org/2000/svg" width="24" height="24" viewBox="0 0 24 24"><defs><style>.a{fill:#fff;}</style></defs><path class="a" d="M12,0A12,12,0,1,1,3.515,3.515,11.963,11.963,0,0,1,12,0Zm5.058,13.863a1.15,1.15,0,0,0-1.738,0c-.406.4-.813.806-1.212,1.216a.239.239,0,0,1-.334.061c-.263-.143-.543-.259-.8-.417a12.6,12.6,0,0,1-3.039-2.766A7.2,7.2,0,0,1,8.85,10.213a.25.25,0,0,1,.062-.321c.406-.393.8-.8,1.2-1.2a1.154,1.154,0,0,0,0-1.779c-.318-.321-.635-.635-.953-.956s-.652-.659-.984-.984a1.157,1.157,0,0,0-1.738,0c-.41.4-.8.816-1.219,1.212A1.979,1.979,0,0,0,4.6,7.525,5.655,5.655,0,0,0,5.033,9.96a14.789,14.789,0,0,0,2.626,4.374,16.249,16.249,0,0,0,5.381,4.21,7.778,7.778,0,0,0,2.981.867,2.184,2.184,0,0,0,1.874-.713c.348-.389.741-.744,1.11-1.117a1.162,1.162,0,0,0,.007-1.769q-.973-.978-1.953-1.95Z" transform="translate(0)"/></svg>