<svg xmlns="http://www.w3.org/2000/svg" width="136" height="97" viewBox="0 0 136 97"><g transform="translate(0 0)"><path d="M252.7,70.351,133,71.058l.1-19.153a28.868,28.868,0,0,0,25.641,15.52h.37a28.944,28.944,0,0,0,16.845-5.631,28.623,28.623,0,0,0,17.159,5.631h.372a29.058,29.058,0,0,0,16.774-5.565,28.8,28.8,0,0,0,17.1,5.565h.37A28.946,28.946,0,0,0,252.7,52.61v17.74Zm2.588-55.439a12.008,12.008,0,0,0-3.4-6.508,3.854,3.854,0,0,0-.453-.437l-.693-.569a4.7,4.7,0,0,0-5.462-6.33,4.7,4.7,0,0,0-6.542,1.608,4.7,4.7,0,0,0-4.351,6.069A12.118,12.118,0,0,0,231.122,17v5.9a44.856,44.856,0,0,0-5.534-1.865V21l-.773-.168a1.273,1.273,0,1,0-.541,2.488l.777.168.015-.051a42.5,42.5,0,0,1,6.057,2.186l.74.336a55.1,55.1,0,0,1,5.116,2.691v-.019a1.258,1.258,0,0,0,1.682-.487,1.281,1.281,0,0,0-.47-1.732l-.69-.4c-.084-.032-.587-.3-.605-.319-1.059-.589-2.153-1.159-3.248-1.664V17a9.65,9.65,0,0,1,19.3,0V45.228a25.809,25.809,0,0,1-6.863,11.956A26.463,26.463,0,0,1,227.69,64.9h-.333a26.183,26.183,0,0,1-15.027-4.71c.439-.385.877-.789,1.28-1.209a28.3,28.3,0,0,0,8.412-20.078V38.4h3.789a7.266,7.266,0,0,1,7.267,7.231v4.861a1.263,1.263,0,0,0,2.525,0V45.631a9.794,9.794,0,0,0-9.792-9.769H222.07l.051-16.158,3.836-3.852-3.986-.941a12.27,12.27,0,0,0-3.4-6.508c-.152-.15-.582-.591-.452-.437a2.111,2.111,0,0,0-.777-.621c-.026-.02-.053-.037-.079-.057a4.7,4.7,0,0,0-5.5-6.221,4.7,4.7,0,0,0-6.542,1.608,4.7,4.7,0,0,0-4.3,6.216A12.118,12.118,0,0,0,197.794,17v5.9a45.6,45.6,0,0,0-4.544-1.58l.016-.018-.218-.049-.05-.018h-.019l-.5-.1a1.28,1.28,0,0,0-1.517.974,1.308,1.308,0,0,0,.979,1.513l.706.153h.035l.051.015v-.015a2.107,2.107,0,0,1,.352.066,44.182,44.182,0,0,1,4.714,1.783l.754.336a52.788,52.788,0,0,1,5.084,2.691v-.019l.116.068a1.27,1.27,0,0,0,1.265-2.2l-.622-.371-.069-.031-.773-.421c-1.075-.588-2.154-1.143-3.229-1.648V17a9.7,9.7,0,0,1,9.658-9.651A9.646,9.646,0,0,1,219.6,17c0,7.314-.1,14.663-.1,21.91a25.722,25.722,0,0,1-7.653,18.278A26.435,26.435,0,0,1,193.451,64.9h-.337a26.386,26.386,0,0,1-15.107-4.74c.42-.389.841-.774,1.243-1.178a28.267,28.267,0,0,0,8.4-20.078V38.4h3.822a7.241,7.241,0,0,1,7.252,7.231v4.861a1.271,1.271,0,0,0,2.542,0V45.632a9.827,9.827,0,0,0-9.793-9.769h-3.586V19.7l3.822-3.852-4.006-.941A12.144,12.144,0,0,0,184.315,8.4c-.152-.15-1.243-1.059-1.243-1.059a13.721,13.721,0,0,0-1.22-.811A4.7,4.7,0,0,0,176.008.558a4.7,4.7,0,0,0-6.43,2.011A4.7,4.7,0,0,0,166,9.693a12.083,12.083,0,0,0-2.46,7.3v5.9c-7.187-2.942-19.149-3.884-25.542-1.865l-.051.015a1.267,1.267,0,0,0,.688,2.439l.643-.185h.013l.12-.034h-.018c.287-.118.892-.353.961-.37,6.106-1.294,16.79-.083,23.186,2.725l.739.336a52.761,52.761,0,0,1,4.913,2.589v-.016l.031.016a1.27,1.27,0,1,0,1.263-2.2l-.656-.386h-.015l-.019-.017c-.135-.068-.739-.386-.79-.4q-1.463-.808-2.926-1.514V17a9.64,9.64,0,0,1,19.28,0c0,7.3-.235,14.663-.235,21.91a25.705,25.705,0,0,1-7.658,18.278A26.466,26.466,0,0,1,159.061,64.9h-.32a26.41,26.41,0,0,1-25.607-20.01l.034-3.733a1.372,1.372,0,0,0-2.744-.016l-.034,3.043-.15,28.249a1.389,1.389,0,0,0,1.378,1.4l122.341-.741h.115a1.374,1.374,0,0,0,1.382-1.378V48.223h.015V19.7l3.838-3.852-4.023-.941Z" transform="translate(-123.309 0.009)"/><path d="M2310.535,260a1.448,1.448,0,1,0-1.448,1.447A1.446,1.446,0,0,0,2310.535,260Z" transform="translate(-2184.744 -244.799)"/><path d="M441.92,689.892a1.256,1.256,0,0,0,1.275-1.242v-4.861a9.814,9.814,0,0,0-9.786-9.769H423.372a1.269,1.269,0,0,0,0,2.539h10.036a7.237,7.237,0,0,1,7.249,7.231v4.861a1.253,1.253,0,0,0,1.262,1.242Z" transform="translate(-399.629 -638.205)"/><path d="M1041.07,260a1.455,1.455,0,0,0-2.91,0,1.455,1.455,0,0,0,2.91,0Z" transform="translate(-982.874 -244.799)"/><path d="M1684.342,260a1.419,1.419,0,0,0-1.427-1.444,1.446,1.446,0,1,0,0,2.891A1.429,1.429,0,0,0,1684.342,260Z" transform="translate(-1591.907 -244.799)"/><path d="M501.71,1452.785h4.744V1432.59H501.71Z" transform="translate(-474.992 -1356.475)"/><path d="M696.341,1432.59H691.58v20.195h12.747v-3.748h-7.985Z" transform="translate(-654.749 -1356.475)"/><path d="M1442.376,1445.016c0,5.214-1.465,7.114-5.467,7.114-4.338,0-5.866-1.648-5.866-7.114V1432.59h-1.433v12.729c0,5.415,1.936,7.971,7.3,7.971,4.843,0,6.894-2.54,6.894-7.9v-12.8h-1.427v12.426Z" transform="translate(-1353.474 -1356.475)"/><path d="M1826.188,1432.59h-1.529l-9.7,9.518v-9.518h-1.447v20.195h1.447v-10.021l10.239,10.021h1.935l-10.813-10.576Z" transform="translate(-1716.929 -1356.475)"/><path d="M2131.02,1452.785h1.432V1432.59h-1.432Z" transform="translate(-2017.524 -1356.475)"/><path d="M2256.429,1435.762c-2.337-.807-4.474-1.683-4.474-4.086,0-2.994,2.252-3.935,4.96-3.935a10.013,10.013,0,0,1,4.323,1.025l.556-1.312a15.381,15.381,0,0,0-4.675-.874c-3.716,0-6.659,1.38-6.659,5.1,0,3.5,2.724,4.59,5.4,5.532,2.591.891,5.061,1.833,5.061,4.81,0,3.547-2.958,4.421-5.313,4.421a12.86,12.86,0,0,1-4.574-1.026l-.571,1.311a19.256,19.256,0,0,0,5.13.875c3.714,0,6.826-1.346,6.826-5.65,0-4.036-3.112-5.18-5.987-6.188Z" transform="translate(-2130.606 -1350.785)"/><path d="M217.547,1405.722a2.869,2.869,0,0,0,2.824-2.792v-.032c-.185,0-.387-.017-.554-.017a19.482,19.482,0,0,0-4.978.656,2.849,2.849,0,0,0,2.708,2.186Z" transform="translate(-203.406 -1328.32)"/><path d="M146.989,1432.743c0-.589.269-2.035,3.246-2.035a9.211,9.211,0,0,1,4.235,1.228l1.448-3.969a19.3,19.3,0,0,0-3.649-.757,3.9,3.9,0,0,1-1.918,2.1,2.922,2.922,0,0,1-1.561.454,2.8,2.8,0,0,1-1.362-.337,3.712,3.712,0,0,1-1.783-1.462,5.1,5.1,0,0,0-3.464,4.776c0,7.214,10.543,5.867,10.543,9.769,0,1.866-1.547,2.152-4.155,2.152a14.96,14.96,0,0,1-4.96-1.311l-1.427,3.967a29.424,29.424,0,0,0,6.373.993c4.673,0,8.978-.808,8.978-5.87,0-7.836-10.543-6.423-10.543-9.7Z" transform="translate(-134.613 -1351.382)"/><path d="M1232.138,1755.51a1.85,1.85,0,1,0,1.833,1.849A1.83,1.83,0,0,0,1232.138,1755.51Z" transform="translate(-1164.773 -1662.209)"/><path d="M1509.863,1420.9h-6.323v1.244h6.323Z" transform="translate(-1423.47 -1345.38)"/><path d="M1000.666,1445c0,3.582-1.834,4.742-3.8,4.742-1.935,0-4.221-.537-4.221-4.742v-12.426H987.9V1445.3c0,5.414,3.062,8.088,8.966,8.088a12.155,12.155,0,0,0,3.361-.437,2.829,2.829,0,0,1-.337-1.345,2.75,2.75,0,0,1,4.628-2.034,9.124,9.124,0,0,0,.891-4.2v-12.8h-4.743V1445Z" transform="translate(-935.287 -1356.456)"/><path d="M52.961,483.251a1.1,1.1,0,0,0,1.277.824,1.06,1.06,0,0,0,.824-1.26,9.886,9.886,0,0,0-11.755-7.651,1.069,1.069,0,0,0-.823,1.276,1.054,1.054,0,0,0,1.277.825,7.784,7.784,0,0,1,5.836,1.076,7.7,7.7,0,0,1,3.363,4.909Z" transform="translate(-40.198 -449.704)"/><path d="M11.189,406.519a12.817,12.817,0,0,1,5.651,8.205l.031.085c.036.185,0,.032.036.2.05.236.1.47.168.706.067.488.117.942.152,1.43a1.078,1.078,0,1,0,2.152-.135A15.954,15.954,0,0,0,12.349,404.7,15.209,15.209,0,0,0,.863,402.65a1.075,1.075,0,0,0-.839,1.26,1.1,1.1,0,0,0,1.278.825,13.029,13.029,0,0,1,9.887,1.783Z" transform="translate(-0.007 -380.921)"/></g></svg>