<svg xmlns="http://www.w3.org/2000/svg">
    <symbol id="simple-arrow-right" viewBox="0 0 17.076 8.271">
        <path d="M16.88,135.663h0l-3.485-3.469a.667.667,0,0,0-.941.946l2.34,2.329H.667a.667.667,0,0,0,0,1.334H14.793l-2.34,2.329a.667.667,0,0,0,.941.946l3.485-3.469h0A.668.668,0,0,0,16.88,135.663Z"
              transform="translate(0 -132)"/>
    </symbol>
    <symbol id="search" viewBox="0 0 18.715 18.715">
        <defs>
            <style>.a{fill:#fefefe;fill-rule:evenodd;}</style>
        </defs>
        <path class="a"
              d="M8.242,0a8.242,8.242,0,1,0,8.242,8.242A8.252,8.252,0,0,0,8.242,0Zm0,14.963a6.721,6.721,0,1,1,6.72-6.721,6.728,6.728,0,0,1-6.72,6.721Z"/>
        <g transform="translate(12.832 12.832)">
            <path class="a"
                  d="M119.923,118.848l-4.362-4.362a.761.761,0,0,0-1.076,1.076l4.362,4.362a.761.761,0,1,0,1.076-1.076Z"
                  transform="translate(-114.262 -114.262)"/>
        </g>
    </symbol>

    <symbol id="simple-arrow-down" viewBox="0 0 17.076 8.271">
        <path d="M13.34,3.4h0L10.585,5.966a.554.554,0,0,1-.745,0,.47.47,0,0,1,0-.7l1.849-1.72H.527A.511.511,0,0,1,0,3.055a.511.511,0,0,1,.527-.493H11.69L9.841.842a.47.47,0,0,1,0-.7.554.554,0,0,1,.745,0l2.754,2.562h0A.471.471,0,0,1,13.34,3.4Z"
              transform="translate(0 0)"/>
    </symbol>
    <symbol id="show-more" viewBox="0 0 448 512">
        <path fill="currentColor"
              d="M252.3 256l121.4 121.4 53.8-53.8c7.6-7.6 20.5-2.2 20.5 8.5v136c0 6.6-5.4 12-12 12H300c-10.7 0-16-12.9-8.5-20.5l53.8-53.8L224 284.3 102.6 405.7l53.8 53.8c7.6 7.6 2.2 20.5-8.5 20.5h-136c-6.6 0-12-5.4-12-12V332c0-10.7 12.9-16 20.5-8.5l53.8 53.8L195.7 256 74.3 134.6l-53.8 53.8C12.9 196 0 190.7 0 180V44c0-6.6 5.4-12 12-12h136c10.7 0 16 12.9 8.5 20.5l-53.8 53.8L224 227.7l121.4-121.4-53.8-53.8C284 44.9 289.3 32 300 32h136c6.6 0 12 5.4 12 12v136c0 10.7-12.9 16-20.5 8.5l-53.8-53.8L252.3 256z"
              class=""></path>
    </symbol>
    <symbol id="simple-arrow-1" viewBox="0 0 14.807 11.406">
        <path d="M13.34,3.4h0L10.585,5.966a.554.554,0,0,1-.745,0,.47.47,0,0,1,0-.7l1.849-1.72H.527A.511.511,0,0,1,0,3.055a.511.511,0,0,1,.527-.493H11.69L9.841.842a.47.47,0,0,1,0-.7.554.554,0,0,1,.745,0l2.754,2.562h0A.471.471,0,0,1,13.34,3.4Z"
              transform="translate(0 0)"/>
    </symbol>
    <symbol id="simple-arrow-2" viewBox="0 0 13 14.454">
        <path d="M13.34,2.706h0L10.585.143a.554.554,0,0,0-.745,0,.47.47,0,0,0,0,.7l1.849,1.72H.527A.511.511,0,0,0,0,3.054a.511.511,0,0,0,.527.493H11.69L9.841,5.267a.47.47,0,0,0,0,.7.554.554,0,0,0,.745,0L13.339,3.4h0A.471.471,0,0,0,13.34,2.706Z"
              transform="translate(0 0)"/>
    </symbol>
    <symbol id="circle-arrow" viewBox="0 0 24 24">
        <defs>
            <style>.a{fill:#fff;fill-rule:evenodd;}</style>
        </defs>
        <path
              d="M24,12A12,12,0,1,1,12,0,12,12,0,0,1,24,12ZM12.75,7.5a.75.75,0,0,0-1.5,0v7.189L8.031,11.469a.751.751,0,0,0-1.062,1.062l4.5,4.5a.75.75,0,0,0,1.062,0l4.5-4.5a.751.751,0,1,0-1.062-1.062L12.75,14.689Z"
              transform="translate(0 24) rotate(-90)"/>
    </symbol>

    <symbol id="close" viewBox="0 0 13.952 13.952">
        <defs>
            <style>.a{fill:#858585;}</style>
        </defs>
        <path class="a"
              d="M21.452,8.905,20.047,7.5l-5.571,5.571L8.905,7.5,7.5,8.905l5.571,5.571L7.5,20.047l1.405,1.405,5.571-5.571,5.571,5.571,1.405-1.405-5.571-5.571Z"
              transform="translate(-7.5 -7.5)"/>
    </symbol>
    <symbol id="check" viewBox="0 0 11.722 6.331">
        <defs>
            <style>.a{fill-rule:evenodd;}</style>
        </defs>
        <g transform="translate(11.722) rotate(90)">
            <g transform="translate(0 0)">
                <g transform="translate(0 0)">
                    <path class="a"
                          d="M6.2,5.539.775.133A.454.454,0,1,0,.134.776l5.1,5.085-5.1,5.085a.454.454,0,0,0,.642.643L6.2,6.182a.454.454,0,0,0,0-.643Z"/>
                </g>
            </g>
            <g transform="translate(0 0)">
                <g transform="translate(0 0)">
                    <path class="a"
                          d="M6.2,5.539.775.133A.454.454,0,1,0,.134.776l5.1,5.085-5.1,5.085a.454.454,0,0,0,.642.643L6.2,6.182a.454.454,0,0,0,0-.643Z"/>
                </g>
            </g>
        </g>
    </symbol>
    <symbol id="facebook-circle" viewBox="0 0 24 24">
        <defs>
            <style>.a{fill:#fff;}</style>
        </defs>
        <path class="a" d="M366.689,640.78c-.1.016-.2.031-.3.045Q366.54,640.8,366.689,640.78Z"
              transform="translate(-352.755 -616.935)"/>
        <path class="a" d="M377.232,639.68l-.142.025Z" transform="translate(-363.058 -615.876)"/>
        <path class="a" d="M350.06,642.89c-.116.013-.233.025-.35.034C349.827,642.915,349.944,642.9,350.06,642.89Z"
              transform="translate(-336.696 -618.967)"/>
        <path class="a" d="M361.008,642.13l-.168.021Z" transform="translate(-347.412 -618.235)"/>
        <path class="a" d="M386.436,637.93l-.126.026Z" transform="translate(-371.935 -614.19)"/>
        <path class="a" d="M408.861,632.52l-.1.028Z" transform="translate(-393.549 -608.98)"/>
        <path class="a" d="M402.04,634.32l-.11.029Z" transform="translate(-386.974 -610.714)"/>
        <path class="a" d="M393.237,636.48l-.117.027Z" transform="translate(-378.491 -612.794)"/>
        <path class="a" d="M344.7,643.83l-.188.014Z" transform="translate(-331.69 -619.872)"/>
        <path class="a"
              d="M24,12A12,12,0,1,0,12,24l.211,0V14.656H9.633v-3h2.578V9.441a3.609,3.609,0,0,1,3.853-3.96,21.233,21.233,0,0,1,2.312.118v2.68H16.8c-1.244,0-1.485.591-1.485,1.459v1.914h2.975l-.388,3H15.312v8.881A12.006,12.006,0,0,0,24,12Z"/>
        <path class="a" d="M334.063,644.26c-.124.008-.248.014-.373.018Q333.877,644.272,334.063,644.26Z"
              transform="translate(-321.272 -620.287)"/>
        <path class="a" d="M328.367,644.77l-.2,0Z" transform="translate(-315.958 -620.778)"/>
    </symbol>
    <symbol id="mail-circle" viewBox="0 0 24 24">
        <defs>
            <style>.a{fill:#fff;}</style>
        </defs>
        <path class="a"
              d="M12,0A12,12,0,1,1,3.515,3.515,11.963,11.963,0,0,1,12,0ZM4.927,7.239a1.25,1.25,0,0,0-.127.542v8.437a1.249,1.249,0,0,0,.127.542L9.688,12,4.927,7.239ZM13.716,12.6,12.27,13.986a.421.421,0,0,1-.6,0L10.285,12.6,5.524,17.357a1.251,1.251,0,0,0,.542.127H17.935a1.251,1.251,0,0,0,.542-.127L13.716,12.6Zm5.358-5.357L14.312,12l4.761,4.761a1.25,1.25,0,0,0,.127-.542V7.781A1.249,1.249,0,0,0,19.074,7.239Zm-1.139-.724H6.066a1.251,1.251,0,0,0-.542.127l6.448,6.449L13.417,11.7h0l5.059-5.059a1.251,1.251,0,0,0-.542-.127Z"
              transform="translate(0)"/>
    </symbol>
    <symbol id="phone-circle" viewBox="0 0 24 24">
        <defs>
            <style>.a{fill:#fff;}</style>
        </defs>
        <path class="a"
              d="M12,0A12,12,0,1,1,3.515,3.515,11.963,11.963,0,0,1,12,0Zm5.058,13.863a1.15,1.15,0,0,0-1.738,0c-.406.4-.813.806-1.212,1.216a.239.239,0,0,1-.334.061c-.263-.143-.543-.259-.8-.417a12.6,12.6,0,0,1-3.039-2.766A7.2,7.2,0,0,1,8.85,10.213a.25.25,0,0,1,.062-.321c.406-.393.8-.8,1.2-1.2a1.154,1.154,0,0,0,0-1.779c-.318-.321-.635-.635-.953-.956s-.652-.659-.984-.984a1.157,1.157,0,0,0-1.738,0c-.41.4-.8.816-1.219,1.212A1.979,1.979,0,0,0,4.6,7.525,5.655,5.655,0,0,0,5.033,9.96a14.789,14.789,0,0,0,2.626,4.374,16.249,16.249,0,0,0,5.381,4.21,7.778,7.778,0,0,0,2.981.867,2.184,2.184,0,0,0,1.874-.713c.348-.389.741-.744,1.11-1.117a1.162,1.162,0,0,0,.007-1.769q-.973-.978-1.953-1.95Z"
              transform="translate(0)"/>
    </symbol>
    <symbol id="youtube-circle" viewBox="0 0 24 24">
        <defs>
            <style>.a{fill:#fff;}</style>
        </defs>
        <path class="a" d="M281.6,265.86l3.864-2.225L281.6,261.41Z" transform="translate(-271.074 -251.635)"/>
        <path class="a"
              d="M12,0A12,12,0,1,0,24,12,12,12,0,0,0,12,0Zm7.5,12.012a19.794,19.794,0,0,1-.309,3.607,1.879,1.879,0,0,1-1.322,1.322A45.608,45.608,0,0,1,12,17.25a43.968,43.968,0,0,1-5.867-.321,1.878,1.878,0,0,1-1.322-1.322A19.721,19.721,0,0,1,4.5,12a19.794,19.794,0,0,1,.309-3.607A1.916,1.916,0,0,1,6.133,7.059,45.609,45.609,0,0,1,12,6.75a43.874,43.874,0,0,1,5.867.321,1.878,1.878,0,0,1,1.322,1.322A18.8,18.8,0,0,1,19.5,12.012Z"/>
    </symbol>
    <symbol id="location-circle" viewBox="0 0 24 24">
        <defs>
            <style>.a{fill:#fff;fill-rule:evenodd;}</style>
        </defs>
        <path class="a"
              d="M12,0A12,12,0,1,1,0,12,12,12,0,0,1,12,0Zm0,12.774A3.176,3.176,0,1,1,15.176,9.6,3.18,3.18,0,0,1,12,12.774Zm0-9.489A6.32,6.32,0,0,0,5.687,9.6c0,4.32,5.649,10.661,5.89,10.93a.569.569,0,0,0,.846,0c.241-.268,5.89-6.61,5.89-10.93A6.32,6.32,0,0,0,12,3.285Z"/>

    </symbol>
    <symbol id="arrow-left" viewBox="0 0 15.515 28.728">
        <defs>
            <style>.a{fill:#fefefe;fill-rule:evenodd;}</style>
        </defs>
        <g transform="translate(0 0)">
            <g transform="translate(0 0)">
                <path class="a"
                      d="M.339,13.578,13.626.327A1.114,1.114,0,1,1,15.2,1.9L2.7,14.366,15.2,26.828A1.114,1.114,0,0,1,13.626,28.4L.339,15.154a1.113,1.113,0,0,1,0-1.577Z"
                      transform="translate(-0.011 -0.002)"/>
            </g>
        </g>
    </symbol>
    <symbol id="prev" viewBox="0 0 11.248 20.826">
        <g transform="translate(0)">
            <g transform="translate(0 0)">
                <path d="M117.98,9.842,127.612.236a.807.807,0,0,1,1.14,1.143l-9.059,9.034,9.06,9.034a.807.807,0,0,1-1.14,1.143l-9.633-9.606a.807.807,0,0,1,0-1.143Z"
                      transform="translate(-117.742 0)"/>
            </g>
        </g>
    </symbol>
    <symbol id="next" viewBox="0 0 11.248 20.826">
        <g transform="translate(0)">
            <g transform="translate(0 0)">
                <path d="M128.753,9.842,119.12.236a.807.807,0,0,0-1.14,1.143l9.059,9.034-9.06,9.034a.807.807,0,0,0,1.14,1.143l9.633-9.606a.807.807,0,0,0,0-1.143Z"
                      transform="translate(-117.742 0)"/>
            </g>
        </g>
    </symbol>
    <symbol id="lithuania" viewBox="0 0 29 19">
        <defs>
            <style>.a{fill:#b21f2d;}.b{fill:#fcb933;}.c{fill:#03754a;}.d{fill:#f2a00f;}.e{fill:#1a5a40;}.f{fill:#e58d00;}
            </style>
        </defs>
        <path class="a" d="M0,304v3.806A2.7,2.7,0,0,0,2.806,310.5H26.194A2.7,2.7,0,0,0,29,307.806V304Z"
              transform="translate(0 -291.497)"/>
        <path class="b" d="M26.194,80H2.806A2.7,2.7,0,0,0,0,82.692V86.5H29V82.692A2.7,2.7,0,0,0,26.194,80Z"
              transform="translate(0 -80)"/>
        <rect class="c" width="28.121" height="6.542" transform="translate(0 6.289)"/>
        <path class="a" d="M322.811,310.5a2.766,2.766,0,0,0,2.877-2.692V304H315.2Z"
              transform="translate(-296.689 -291.497)"/>
        <path class="d" d="M71.407,80H48l7.771,6.5H74.215V82.692A2.7,2.7,0,0,0,71.407,80Z"
              transform="translate(-45.215 -80)"/>
        <path class="e" d="M187.89,198.5h10.442V192H180Z" transform="translate(-169.332 -185.749)"/>
        <path class="f" d="M71.407,80H48l21.675,6.5h4.541V82.692A2.7,2.7,0,0,0,71.407,80Z"
              transform="translate(-45.215 -80)"/>
        <path class="e" d="M419.134,193.3V192H414.4Z" transform="translate(-390.134 -185.678)"/>
        <path class="a" d="M29,368.046a2.68,2.68,0,0,1-2.806,2.738H2.806A2.774,2.774,0,0,1,0,368"
              transform="translate(0 -351.785)"/>
    </symbol>

</svg>