<svg xmlns="http://www.w3.org/2000/svg" width="24" height="24" viewBox="0 0 24 24"><defs><style>.a{fill:#fff;}</style></defs><path class="a" d="M281.6,265.86l3.864-2.225L281.6,261.41Z" transform="translate(-271.074 -251.635)"/><path class="a" d="M12,0A12,12,0,1,0,24,12,12,12,0,0,0,12,0Zm7.5,12.012a19.794,19.794,0,0,1-.309,3.607,1.879,1.879,0,0,1-1.322,1.322A45.608,45.608,0,0,1,12,17.25a43.968,43.968,0,0,1-5.867-.321,1.878,1.878,0,0,1-1.322-1.322A19.721,19.721,0,0,1,4.5,12a19.794,19.794,0,0,1,.309-3.607A1.916,1.916,0,0,1,6.133,7.059,45.609,45.609,0,0,1,12,6.75a43.874,43.874,0,0,1,5.867.321,1.878,1.878,0,0,1,1.322,1.322A18.8,18.8,0,0,1,19.5,12.012Z"/></svg>